<?xml version="1.0" encoding="UTF-8"?> <svg xmlns="http://www.w3.org/2000/svg" id="Layer_1" data-name="Layer 1" viewBox="0 0 235.71 93.21"><defs><style> .cls-1 { fill: #002c61; } .cls-1, .cls-2 { stroke-width: 0px; } .cls-2 { fill: #fff; } </style></defs><rect class="cls-1" width="235.71" height="93.21"></rect><path class="cls-2" d="M23.38,71.3c0,1.82-.8,2.82-2.32,2.82h-2.14V19.09h2.14c1.52,0,2.32,1,2.32,2.82v49.4ZM21.06,84.04c7.94,0,11.95-4.09,11.95-12.74V22c0-8.01-4.01-12.83-11.95-12.83h-11.86v74.87h11.86ZM53.43,38.19c0,2.27-1.07,3.46-3.21,3.46h-1.96v-22.56h1.87c2.23,0,3.3,1.18,3.3,3.55v15.56ZM63.86,84.04c-1.43-11.64-2.94-23.56-4.81-35.39,2.94-1.82,4.19-4.82,4.19-10.55v-15.46c0-9.82-4.37-13.46-13.11-13.46h-11.59v74.87h9.72v-33.38h1.6c1.43,11.1,2.41,22.29,3.39,33.38h10.61ZM76.7,84.04v-11.37h-9.01v11.37h9.01ZM96.41,71.3c0,1.82-.8,2.82-2.32,2.82h-2.14V19.09h2.14c1.52,0,2.32,1,2.32,2.82v49.4ZM94.09,84.04c7.94,0,11.95-4.09,11.95-12.74V22c0-8.01-4.01-12.83-11.95-12.83h-11.86v74.87h11.86ZM121.47,84.04V9.17h-9.72v74.87h9.72ZM148.31,84.04v-9.92h-10.88v-23.29h6.6v-9.92h-6.6v-21.83h10.43v-9.92h-20.15v74.87h20.6ZM165.97,72.49c0,1.64-.8,2.46-2.41,2.46-1.52,0-2.32-.82-2.32-2.46v-15.92h-9.27v15.92c0,7.82,3.66,12.37,11.86,12.37s11.77-4.55,11.77-12.37v-10.73c0-6.46-1.6-10.28-6.78-17.28-5.44-7.28-7.04-8.91-7.04-12.74v-11.1c0-1.64.71-2.37,2.32-2.37s2.32.73,2.32,2.37v13.74h8.92v-13.74c0-8.28-3.21-12.28-11.5-12.28s-11.86,4-11.86,12.28v11.19c0,6.37,2.32,10.73,6.86,16.74,5.89,7.64,7.13,9.37,7.13,13.28v10.64ZM201.37,84.04v-9.92h-10.88v-23.29h6.6v-9.92h-6.6v-21.83h10.43v-9.92h-20.15v74.87h20.6ZM226.51,84.04v-9.92h-10.88V9.17h-9.72v74.87h20.6Z"></path></svg> 