<?xml version="1.0" encoding="UTF-8"?> <svg xmlns="http://www.w3.org/2000/svg" width="80" height="100" viewBox="0 0 80 100" fill="none"><path d="M15.2552 22.987C15.3148 22.4447 15.3744 21.9244 15.4303 21.4052C15.5871 19.9475 15.7391 18.4897 15.8996 17.0332C15.9288 16.7621 15.9105 16.5456 15.6917 16.3232C15.2346 15.8587 15.1191 15.2751 15.2516 14.638C15.5555 13.1754 15.8485 11.7116 16.161 10.2502C16.3373 9.42708 17.0546 8.82526 17.9008 8.82161C20.6656 8.80945 23.4303 8.80945 26.1939 8.82161C27.0352 8.82526 27.7562 9.45261 27.9398 10.2903C28.2644 11.7687 28.5902 13.2472 28.8954 14.7292C29.0291 15.376 28.8541 15.9572 28.375 16.4216C28.223 16.5687 28.155 16.7061 28.1793 16.9238C28.3458 18.4107 28.5003 19.8988 28.6571 21.387C28.73 22.08 28.7993 22.7742 28.9124 23.4733C28.9525 23.1669 29 22.8606 29.0316 22.553C29.3015 19.9791 29.5653 17.4052 29.8376 14.8314C30.0699 12.6405 30.3094 10.4496 30.5477 8.25869C30.5805 7.96081 30.5623 7.71279 30.3191 7.46476C29.7829 6.91643 29.8085 6.23072 29.958 5.53041C30.2449 4.18816 30.5149 2.84226 30.7957 1.49879C30.9878 0.586932 31.7027 0.00212767 32.6279 0.000911857C35.3319 -0.000303952 38.0358 -0.000303952 40.7386 0.000911857C41.693 0.000911857 42.3921 0.571126 42.5951 1.50244C42.9088 2.94195 43.2286 4.38026 43.5374 5.82099C43.6857 6.51279 43.5131 7.11461 43.0097 7.6289C42.9064 7.73346 42.831 7.93163 42.8456 8.07632C42.9842 9.46477 43.1459 10.8496 43.2979 12.2368C43.4498 13.6241 43.5945 15.0113 43.7465 16.3985C43.9191 17.9767 44.0942 19.5536 44.2693 21.1317C44.3325 21.7043 44.3933 22.277 44.4638 22.8496C44.4711 22.9141 44.5307 22.9724 44.566 23.0344C44.6012 22.9736 44.6596 22.9153 44.6669 22.8508C44.769 21.9669 44.8663 21.083 44.9623 20.1979C45.0778 19.1329 45.1884 18.0666 45.3088 17.0028C45.3356 16.7621 45.3222 16.5712 45.1301 16.3742C44.662 15.8928 44.5198 15.3031 44.6596 14.6393C44.9623 13.1973 45.2468 11.7517 45.5556 10.311C45.7465 9.42343 46.4492 8.83012 47.3404 8.82647C50.0845 8.81553 52.8286 8.81431 55.5727 8.82647C56.4493 8.83012 57.1642 9.45991 57.3514 10.3292C57.6699 11.7991 57.9934 13.2666 58.2997 14.739C58.4371 15.4004 58.2329 15.9706 57.7684 16.4618C57.6663 16.57 57.5836 16.7596 57.597 16.9019C57.7623 18.5919 57.9471 20.2806 58.1259 21.9694C58.1623 22.3086 58.1927 22.6478 58.2791 22.9931C58.3119 22.7487 58.3496 22.5055 58.3751 22.2612C58.5247 20.8338 58.6669 19.4052 58.8189 17.9779C58.9696 16.5505 59.1314 15.1244 59.2833 13.697C59.4146 12.4605 59.5386 11.2228 59.6675 9.98635C59.7356 9.33346 59.8171 8.68057 59.8742 8.02647C59.8852 7.90124 59.8548 7.72738 59.7721 7.64592C59.197 7.07449 59.0827 6.40215 59.2481 5.63497C59.5411 4.27327 59.8134 2.90791 60.0918 1.54256C60.2827 0.59909 61 0.00212767 61.9545 0.000911857C64.6584 0.000911857 67.3624 -0.000303952 70.0651 0.000911857C70.9806 0.000911857 71.6834 0.534652 71.8864 1.42949C72.2341 2.95411 72.5697 4.48238 72.8797 6.01552C72.9964 6.59303 72.8056 7.12312 72.3825 7.53771C72.1831 7.73346 72.1198 7.91461 72.1527 8.20154C72.3411 9.81857 72.4955 11.4392 72.6682 13.0575C72.8396 14.6757 73.022 16.294 73.1934 17.9122C73.3454 19.3396 73.4888 20.7681 73.6384 22.1955C73.743 23.1913 73.8378 24.1882 73.9654 25.1803C73.991 25.3809 74.104 25.6034 74.2439 25.753C76.0651 27.6958 77.591 29.8259 78.5211 32.3463C79.1253 33.9828 79.3296 35.6752 79.3004 37.4089C79.2931 37.8393 79.2926 38.8094 79.2907 39.2193C79.2822 41.0223 79.2907 42.8241 79.2834 44.6272C79.2749 46.9129 79.2396 49.1974 79.2433 51.4831C79.253 58.1056 79.2761 64.7269 79.2931 71.3495C79.2943 71.916 79.2858 72.4838 79.3041 73.0504C79.3235 73.6559 79.1047 74.1422 78.6779 74.5677C74.7958 78.4328 70.9198 82.3051 67.0426 86.1738C63.1362 90.0717 59.231 93.9708 55.3246 97.8687C54.8019 98.3903 54.2705 98.9046 53.7514 99.431C53.3672 99.8213 52.904 100 52.3629 100C35.7757 100 19.1896 100 2.60231 100C1.50441 100 0.730008 99.2267 0.726308 98.1313C0.719008 96.0863 0.711707 94.0401 0.710507 91.9951C0.704407 82.4972 0.699607 72.9993 0.697107 63.5014C0.697107 62.0436 0.683808 60.5859 0.721408 59.1294C0.765208 57.4491 1.24911 55.8686 1.94701 54.3524C2.85151 52.3865 4.08321 50.6381 5.58221 49.0868C5.95551 48.7001 6.01871 48.2746 6.06741 47.8041C6.26551 45.9135 6.46861 44.0241 6.66681 42.1336C6.85761 40.3135 7.04001 38.4934 7.23211 36.6746C7.42541 34.8448 7.62481 33.015 7.82421 31.1852C7.84971 30.953 7.81571 30.7743 7.63331 30.5895C7.15311 30.1031 7.05581 29.4891 7.18351 28.8423C7.46921 27.3967 7.76581 25.9536 8.06741 24.5104C8.27041 23.5426 8.96711 22.9882 9.97131 22.9858C11.6017 22.9821 13.2321 22.9858 14.8625 22.9858H15.254L15.2552 22.987ZM50.6414 71.4054H4.31291V96.3501H50.6401V71.4054H50.6414ZM54.2584 93.7361C54.2924 93.758 54.3277 93.7787 54.3617 93.8006C54.9575 93.183 55.5447 92.5544 56.1526 91.9477C62.5709 85.5367 68.9928 79.1306 75.4074 72.7172C75.5071 72.6175 75.5849 72.4425 75.5849 72.3014C75.5934 64.5567 75.5922 56.812 75.591 49.0673C75.591 48.9944 75.5764 48.9202 75.5642 48.8035C75.4135 48.947 75.2943 49.0552 75.1813 49.1682C71.1107 53.2303 67.0402 57.2923 62.9709 61.3543C60.1478 64.1725 57.3271 66.9932 54.4991 69.8054C54.3265 69.9768 54.2535 70.1434 54.2547 70.3853C54.2608 78.0692 54.2596 85.7532 54.2596 93.4383V93.7349L54.2584 93.7361ZM40.7896 32.9031C40.6705 33.9876 40.5599 35.0223 40.4444 36.0545C40.2705 37.601 40.093 39.1475 39.9191 40.694C39.7672 42.0497 39.6213 43.4065 39.4717 44.7621C39.3173 46.1579 39.1337 47.5512 39.0134 48.9506C38.9416 49.7944 38.6827 50.4874 38.0407 51.0868C36.9416 52.1117 36.0407 53.3117 35.2735 54.6053C34.2486 56.3342 33.665 58.1737 33.7076 60.2163C33.7562 62.6041 33.7185 64.9944 33.7185 67.3835V67.7653H34.0808C34.9817 67.7653 35.8826 67.7653 36.7836 67.7653C41.5617 67.7653 46.341 67.7653 51.1192 67.7689C51.3271 67.7689 51.4778 67.7154 51.6225 67.5622C51.9702 67.195 52.3301 66.8388 52.6985 66.4911C52.8505 66.3476 52.9088 66.1969 52.9076 65.9877C52.9003 63.9427 52.9003 61.8978 52.904 59.8528C52.9064 58.592 52.662 57.3835 52.1708 56.2248C51.2882 54.1421 49.935 52.3926 48.3313 50.8205C47.9787 50.474 47.7502 50.0728 47.6954 49.5804C47.648 49.1488 47.6091 48.716 47.5605 48.2831C47.2845 45.843 47.0024 43.4029 46.7289 40.9627C46.4541 38.5117 46.1891 36.0594 45.9179 33.6083C45.8912 33.3639 45.8523 33.1208 45.8182 32.8727C44.127 33.3068 42.4748 33.2849 40.786 32.9019L40.7896 32.9031ZM4.37861 67.7579H23.5191C23.5191 67.6157 23.5191 67.4941 23.5191 67.3738C23.5191 64.9434 23.4936 62.513 23.5276 60.0838C23.5507 58.4655 23.1556 56.9677 22.4382 55.5366C21.558 53.7798 20.3531 52.2673 18.9598 50.8971C18.5987 50.5421 18.3835 50.1287 18.3349 49.6205C18.2802 49.0466 18.2084 48.4752 18.144 47.9026C17.9677 46.3451 17.7914 44.7889 17.6163 43.2314C17.4656 41.8855 17.3185 40.5384 17.1677 39.1925C16.9938 37.646 16.8188 36.0983 16.6437 34.5518C16.5817 34.0034 16.5172 33.4551 16.4528 32.8971C14.7701 33.3068 13.1203 33.2788 11.4461 32.8849C11.389 33.4247 11.3367 33.9354 11.2795 34.4448C11.085 36.1724 10.8868 37.8989 10.6947 39.6266C10.5221 41.184 10.3567 42.7415 10.1853 44.2989C10.0102 45.8965 9.81081 47.4916 9.66251 49.0916C9.58831 49.8916 9.33551 50.547 8.73361 51.1208C7.54211 52.2564 6.55731 53.567 5.75611 55.009C4.85761 56.6272 4.34461 58.3403 4.37131 60.2151C4.40531 62.6041 4.37981 64.9944 4.37981 67.3835V67.7555L4.37861 67.7579ZM64.7131 54.5129C64.8517 54.3804 64.932 54.3062 65.0098 54.2296C66.887 52.3549 68.7618 50.4789 70.6402 48.6065C72.239 47.0126 73.8427 45.4235 75.439 43.8272C75.5156 43.7506 75.5837 43.6229 75.5849 43.5196C75.6116 41.2643 75.6554 39.0077 75.636 36.7524C75.6238 35.3153 75.2955 33.9414 74.6402 32.6381C73.7198 30.8095 72.504 29.2119 71.0463 27.7882C70.6949 27.4454 70.4578 27.0515 70.4068 26.553C70.3484 25.9694 70.2755 25.3882 70.2098 24.8046C70.0578 23.4587 69.9034 22.114 69.7539 20.7681C69.5824 19.2314 69.4171 17.6934 69.2469 16.1566C69.0718 14.5797 68.8943 13.0028 68.7156 11.4259C68.6584 10.9177 68.5952 10.4095 68.532 9.88301C66.8372 10.2976 65.1776 10.3146 63.5022 9.89152C63.3356 11.3505 63.1703 12.7742 63.0122 14.1991C62.8019 16.097 62.5976 17.9961 62.3873 19.8952C62.1478 22.0545 61.901 24.2138 61.6639 26.373C61.6031 26.9262 61.3842 27.3809 60.994 27.7907C60.3459 28.4703 59.738 29.1888 59.1289 29.9037C59.045 30.0022 59.0025 30.1797 59.0158 30.3123C59.1228 31.4296 59.2614 32.5433 59.3575 33.6606C59.3976 34.1372 59.5399 34.5214 59.901 34.8533C60.2268 35.1524 60.5125 35.5013 60.7861 35.8515C62.0663 37.4904 63.2882 39.1633 63.9593 41.1719C64.4262 42.5725 64.7289 43.9901 64.7204 45.4758C64.7046 48.3512 64.7156 51.2266 64.7156 54.102V54.5129H64.7131ZM19.5337 18.756C19.53 18.7669 19.513 18.8034 19.5081 18.8423C19.3476 20.2587 19.1859 21.6739 19.0388 23.0916C19.0291 23.184 19.1057 23.3165 19.1835 23.3809C19.5203 23.6654 19.7549 24.0119 19.8486 24.4399C20.1659 25.8989 20.4674 27.3615 20.7859 28.8205C20.9452 29.5463 20.7555 30.153 20.2328 30.6746C20.1501 30.756 20.0759 30.8995 20.0832 31.0089C20.1245 31.573 20.1926 32.136 20.2522 32.6989C20.3859 33.9658 20.5209 35.2314 20.6546 36.4983C20.7847 37.7348 20.9148 38.9712 21.0449 40.2077C21.1969 41.6448 21.3501 43.0831 21.5021 44.5202C21.6407 45.8272 21.7768 47.1342 21.9264 48.44C21.941 48.5676 22.0139 48.7099 22.1039 48.8047C23.0936 49.8369 23.9896 50.9445 24.7653 52.147C26.3507 54.6053 27.2784 57.2546 27.2237 60.2236C27.1787 62.6126 27.2151 65.0017 27.2151 67.392V67.7361H30.0188V67.3494C30.0188 64.7379 30.0164 62.1251 30.0212 59.5136C30.0212 59.1294 30.0443 58.7439 30.0893 58.3622C30.2778 56.7622 30.7702 55.2534 31.4814 53.8102C31.575 53.6205 31.6285 53.3895 31.6297 53.178C31.6395 50.6977 31.6212 48.2175 31.6419 45.7372C31.6553 44.1664 31.2857 42.6965 30.5927 41.3007C29.71 39.5244 28.4978 37.9901 27.0838 36.6114C26.7446 36.2807 26.4954 35.911 26.4395 35.4405C26.2863 34.1554 26.1477 32.8691 26.0054 31.5828C25.7963 29.6837 25.5908 27.7846 25.3805 25.8855C25.1629 23.9171 24.9416 21.9487 24.7215 19.9803C24.6741 19.5536 24.6194 19.128 24.5744 18.7596C23.7027 18.8472 22.8711 18.9979 22.0394 18.9967C21.209 18.9967 20.3774 18.8447 19.5324 18.7584L19.5337 18.756ZM48.9283 18.6952C48.7556 20.2125 48.5903 21.6776 48.4225 23.1426C48.4018 23.3262 48.4334 23.4612 48.5939 23.5876C48.9392 23.8575 49.1386 24.215 49.2286 24.6551C49.4888 25.9195 49.7502 27.1852 50.0602 28.4387C50.2705 29.291 50.2195 30.0484 49.6176 30.7378C49.5021 30.8703 49.4499 31.1086 49.462 31.2922C49.5094 31.9876 49.5958 32.6806 49.6687 33.3737C49.8195 34.801 49.9714 36.2284 50.121 37.6557C50.2717 39.0928 50.4176 40.5311 50.5684 41.9694C50.7216 43.4272 50.8675 44.8849 51.0414 46.3403C51.1107 46.9178 51.1593 47.522 51.3733 48.0509C51.6164 48.6503 51.9812 49.2217 52.3848 49.7312C53.3538 50.953 54.2949 52.1883 55.0122 53.5792C55.7915 55.0904 56.3788 56.6698 56.4955 58.3743C56.583 59.6546 56.5502 60.9421 56.5709 62.2272C56.5721 62.3342 56.5709 62.4412 56.5709 62.547C56.6085 62.5737 56.6462 62.6017 56.6827 62.6285C56.7411 62.5373 56.7848 62.4303 56.859 62.3561C58.1733 61.0357 59.4876 59.7166 60.8116 58.406C60.9855 58.2345 61.0487 58.0619 61.0487 57.8199C61.0426 53.7713 61.0414 49.7214 61.045 45.6728C61.045 44.3913 60.7934 43.1646 60.2961 41.9877C59.4608 40.0108 58.2061 38.3208 56.6851 36.829C56.1575 36.3123 55.8146 35.753 55.7879 35.0126C55.783 34.8715 55.7672 34.7305 55.7514 34.5895C55.5775 33.0527 55.4012 31.5171 55.2298 29.9803C55.0572 28.4338 54.8918 26.8861 54.7204 25.3384C54.5259 23.5803 54.3277 21.8235 54.1307 20.0654C54.0809 19.618 54.025 19.1718 53.969 18.6964C52.2754 19.1061 50.6158 19.1171 48.9271 18.6964L48.9283 18.6952ZM35.3623 47.9913C35.372 47.9391 35.4048 47.8041 35.4194 47.6679C35.5495 46.4412 35.6735 45.2144 35.8048 43.9889C35.958 42.5518 36.1173 41.1147 36.2705 39.6776C36.4225 38.2503 36.5671 36.8229 36.7191 35.3955C36.8711 33.9682 37.0243 32.5408 37.1836 31.1147C37.2067 30.9043 37.1386 30.7585 36.9951 30.6053C36.5781 30.1615 36.3848 29.6302 36.5064 29.0198C36.7811 27.635 37.0535 26.249 37.3574 24.8703C37.4425 24.4849 37.5714 24.0824 37.789 23.7603C38.1319 23.2533 38.679 23.0527 39.2906 23.049C39.772 23.0466 40.2547 23.049 40.7532 23.049C40.2498 18.6356 39.7526 14.2721 39.2517 9.88666C37.5471 10.3146 35.8875 10.3 34.2 9.88666C34.1392 10.4034 34.0808 10.8824 34.0273 11.3614C33.8571 12.8982 33.693 14.4362 33.5203 15.973C33.3282 17.6897 33.1264 19.4064 32.9343 21.1232C32.7422 22.8411 32.5465 24.5578 32.3738 26.2782C32.3082 26.9384 32.0237 27.4442 31.5604 27.9147C30.8881 28.598 30.2753 29.3396 29.6541 30.0703C29.5714 30.1676 29.5373 30.3487 29.5531 30.4825C29.6784 31.5354 29.8133 32.5882 29.9629 33.6387C30.0042 33.9305 30.0443 34.2551 30.1975 34.4922C30.4249 34.8448 30.7617 35.1244 31.0352 35.449C31.5301 36.0338 32.0553 36.598 32.4881 37.2253C32.9452 37.888 33.3258 38.6065 33.7124 39.3165C34.527 40.812 35.1021 42.3974 35.2358 44.0995C35.3404 45.4187 35.327 46.7463 35.3635 47.9925L35.3623 47.9913ZM36.7361 3.66414C35.9969 3.66414 35.2577 3.66779 34.5197 3.66171C34.2449 3.65928 34.0845 3.74196 34.0687 4.0532C34.0443 4.5067 33.9945 4.9602 33.9361 5.41126C33.8595 5.99971 33.9045 6.10063 34.4662 6.32312C35.4875 6.7292 36.555 6.80823 37.6249 6.64045C38.183 6.55291 38.7216 6.32312 39.2577 6.12737C39.4814 6.04591 39.569 5.85868 39.5252 5.58634C39.4474 5.09758 39.4158 4.60153 39.3757 4.10791C39.3441 3.71886 39.2966 3.66536 38.8942 3.66414C38.1757 3.66293 37.4571 3.66414 36.7386 3.66414H36.7361ZM66.0517 3.70183C65.2931 3.70183 64.5356 3.70791 63.777 3.69819C63.4937 3.69454 63.3818 3.81369 63.366 4.09211C63.3381 4.576 63.2821 5.05746 63.2408 5.54014C63.2007 6.01309 63.2602 6.17722 63.7101 6.30367C64.346 6.48361 64.9976 6.65504 65.653 6.70731C66.656 6.78634 67.6469 6.6599 68.5551 6.15655C68.7812 6.03133 68.8663 5.87205 68.8323 5.61552C68.7666 5.10488 68.701 4.59302 68.6742 4.07995C68.6584 3.76384 68.5162 3.69332 68.2341 3.69819C67.5071 3.71035 66.7788 3.70183 66.0505 3.70305L66.0517 3.70183ZM22.2072 15.5292C22.3884 15.5183 22.572 15.5159 22.7519 15.4952C23.4388 15.4149 24.1063 15.2642 24.6814 14.8545C24.7762 14.7876 24.8638 14.6283 24.8577 14.5165C24.8273 13.9523 24.7629 13.3894 24.7154 12.8265C24.6972 12.6052 24.5951 12.5116 24.3641 12.5128C22.837 12.5189 21.31 12.5189 19.7841 12.5128C19.5434 12.5128 19.44 12.6089 19.4206 12.8484C19.3768 13.3821 19.31 13.9122 19.2625 14.4459C19.2309 14.807 19.344 14.9833 19.6844 15.1219C20.4929 15.449 21.3428 15.5377 22.206 15.528L22.2072 15.5292ZM51.4912 12.5165C50.7435 12.5165 49.9945 12.5298 49.2468 12.5104C48.9441 12.5031 48.8261 12.621 48.8043 12.9055C48.7678 13.3687 48.7106 13.8295 48.6742 14.2927C48.6292 14.8593 48.6742 14.9286 49.214 15.1426C50.2462 15.5499 51.321 15.6216 52.4006 15.4551C52.9295 15.3736 53.4389 15.1584 53.9508 14.9833C54.1952 14.8994 54.2997 14.7171 54.2645 14.4362C54.1964 13.9061 54.1563 13.3712 54.1113 12.8386C54.0906 12.6028 53.98 12.5104 53.7368 12.514C52.9891 12.525 52.2401 12.5177 51.4924 12.5177L51.4912 12.5165ZM13.9725 26.739C13.2443 26.739 12.516 26.739 11.789 26.739C11.3999 26.739 11.3415 26.7937 11.3063 27.1864C11.271 27.5791 11.2345 27.9706 11.2029 28.3633C11.1482 29.0551 11.2054 29.1499 11.8741 29.387C12.7555 29.6995 13.6686 29.7712 14.5926 29.6934C15.2589 29.6375 15.9069 29.4952 16.5051 29.1682C16.7081 29.0575 16.7981 28.9177 16.7689 28.6831C16.7057 28.1627 16.6412 27.6399 16.6072 27.1171C16.5865 26.8059 16.4382 26.7305 16.1574 26.7353C15.4291 26.7475 14.7008 26.739 13.9738 26.739H13.9725ZM43.3501 26.7293C42.5915 26.7293 41.8328 26.739 41.0742 26.7244C40.8018 26.7195 40.6851 26.829 40.662 27.0855C40.6194 27.5584 40.5684 28.0302 40.5283 28.5031C40.4808 29.066 40.5307 29.1451 41.0717 29.3469C41.9483 29.674 42.8577 29.7688 43.7842 29.6958C44.5222 29.6375 45.2419 29.4904 45.8863 29.0891C46.0553 28.9834 46.1465 28.8642 46.1198 28.6478C46.0553 28.1165 46.0055 27.584 45.9641 27.0502C45.9447 26.8071 45.8365 26.722 45.5957 26.7256C44.848 26.7366 44.0991 26.7293 43.3501 26.7293Z" fill="#163B2C"></path><path d="M27.4899 73.8832C29.8693 73.8832 32.2486 73.8832 34.6279 73.8832C37.2833 73.8832 39.2675 75.9865 39.1228 78.6431C39.0097 80.7088 37.2431 82.5227 35.1665 82.7002C34.8942 82.7234 34.6206 82.7367 34.3483 82.7367C29.6905 82.7392 25.034 82.7367 20.3762 82.7392C19.2066 82.7392 18.1574 82.3902 17.3002 81.5914C15.9762 80.3586 15.513 78.8218 16.0102 77.0929C16.5136 75.3422 17.7318 74.2856 19.5373 73.9464C19.8036 73.8966 20.0796 73.8856 20.3519 73.8856C22.7312 73.8808 25.1106 73.8832 27.4899 73.8832ZM27.4875 77.4771C25.1495 77.4771 22.8115 77.4771 20.4735 77.4771C20.3823 77.4771 20.2911 77.4723 20.1999 77.482C19.8376 77.5209 19.5422 77.7701 19.4546 78.1021C19.3671 78.4376 19.4923 78.8352 19.8084 78.9969C20.0139 79.1027 20.2692 79.1501 20.5039 79.1501C24.2899 79.1586 28.0747 79.1562 31.8607 79.1562C32.7519 79.1562 33.6431 79.1708 34.5331 79.1464C34.7726 79.1404 35.0389 79.0662 35.2383 78.9385C35.5434 78.744 35.614 78.3647 35.4851 78.0169C35.3562 77.668 35.0571 77.4771 34.6243 77.4771C32.2462 77.4771 29.8668 77.4771 27.4887 77.4771H27.4875Z" fill="#163B2C"></path></svg> 