<?xml version="1.0" encoding="UTF-8"?> <svg xmlns="http://www.w3.org/2000/svg" width="567" height="276" viewBox="0 0 567 276" fill="none"><g data-figma-bg-blur-radius="6.26214"><path d="M29.48 54H22.28V33.44C22.28 30.8 22.44 19.68 22.6 16.96H22.28L18.28 54H11.4L7.4 16.96H7.08C7.32 19.6 7.4 22.32 7.4 33.44V54H0.2V0.879997H12.44L14.84 34.4H15.16L17.64 0.879997H29.48V54ZM62.7969 54H54.6369V0.879997H62.7969V54ZM40.9569 0.879997V22H44.3169C50.2369 22 52.2369 24.72 52.2369 29.6V45.68C52.2369 50.56 50.3169 54 44.3169 54H32.7969V0.879997H40.9569ZM40.9569 46.8H42.6369C44.1569 46.8 44.5569 45.92 44.5569 43.76V31.52C44.5569 29.6 44.1569 29.04 42.6369 29.04H40.9569V46.8ZM99.4388 66H93.4388V54H79.6788V66H73.6788V46.56H74.4788C74.9588 46.56 75.4388 46.56 75.8388 46.24C77.4388 45.12 77.9988 40.64 78.5588 23.36L79.2788 0.879997H96.8788V46.56H99.4388V66ZM88.7188 46.56V8.16H85.7588L85.1988 23.44C84.6388 38.88 84.0788 43.76 83.2788 46.56H88.7188ZM117.514 54H101.994V0.879997H117.034V8.16H109.994V22.48H116.154V29.84H109.994V46.72H117.514V54ZM142.539 54H134.379V8.16H131.339L130.859 23.36C130.379 37.44 129.499 45.68 127.979 49.44C126.539 53.12 124.219 54 120.619 54H119.579V46.56H120.059C121.339 46.56 122.139 46.24 122.619 44.4C123.419 41.6 123.819 35.12 124.219 23.28L124.859 0.879997H142.539V54ZM166.581 54H158.501L157.621 41.92H153.541L152.741 54H144.821L150.021 0.879997H161.381L166.581 54ZM155.461 14.4L154.021 34.96H157.141L155.781 14.4H155.461ZM184.445 54H168.925V0.879997H183.965V8.16H176.925V22.48H183.085V29.84H176.925V46.72H184.445V54ZM216.271 54H209.071V33.44C209.071 30.8 209.231 19.68 209.391 16.96H209.071L205.071 54H198.191L194.191 16.96H193.871C194.111 19.6 194.191 22.32 194.191 33.44V54H186.991V0.879997H199.231L201.631 34.4H201.951L204.431 0.879997H216.271V54ZM11.88 114.56V102.32H19.48V114C19.48 120.96 16.2 124.4 9.96 124.4C3.56 124.4 0.2 120.64 0.2 113.92V80.88C0.2 73.92 3.4 70.56 9.88 70.56C16.04 70.56 19.48 73.52 19.48 80.8V89.92H11.88V80.48C11.88 78.88 11.24 78.08 10.04 78.08C8.84 78.08 8.28 78.88 8.28 80.48V114.56C8.28 116.24 8.68 116.96 9.96 116.96C11.24 116.96 11.88 116.24 11.88 114.56ZM42.2369 81.36V114C42.2369 120.96 38.7169 124.4 32.4769 124.4C26.0769 124.4 22.5569 120.64 22.5569 113.92V81.2C22.5569 74.48 26.1569 70.56 32.3969 70.56C38.6369 70.56 42.2369 74.56 42.2369 81.36ZM34.2369 114.56V80.48C34.2369 78.88 33.5969 78.08 32.3969 78.08C31.1969 78.08 30.6369 78.88 30.6369 80.48V114.56C30.6369 116.16 31.1969 116.96 32.3969 116.96C33.5969 116.96 34.2369 116.16 34.2369 114.56ZM64.6756 102.64V113.92C64.6756 120.64 61.3156 124.4 54.9156 124.4C48.6756 124.4 45.3156 120.96 45.3156 114V108.56H52.9956V114.56C52.9956 116.16 53.5556 116.96 54.7556 116.96C55.9556 116.96 56.5956 116.16 56.5956 114.56V102.08C56.5956 100.24 55.7956 99.36 54.2756 99.36H51.7956V92.72H54.5956C55.8756 92.72 56.5956 91.84 56.5956 90.08V80.48C56.5956 78.88 55.9556 78.08 54.7556 78.08C53.5556 78.08 52.9956 78.88 52.9956 80.48V85.92H45.3156V81.36C45.3156 74.48 48.8356 70.56 54.8356 70.56C61.3156 70.56 64.0356 75.2 64.0356 79.6V89.2C64.0356 92.72 62.7556 95.12 59.9556 95.6V95.92C62.5956 96.4 64.6756 98.4 64.6756 102.64ZM92.5638 136H86.5638V124H72.8038V136H66.8038V116.56H67.6038C68.0838 116.56 68.5638 116.56 68.9638 116.24C70.5638 115.12 71.1238 110.64 71.6838 93.36L72.4038 70.88H90.0038V116.56H92.5638V136ZM81.8438 116.56V78.16H78.8838L78.3238 93.44C77.7638 108.88 77.2038 113.76 76.4038 116.56H81.8438ZM115.919 124H107.839L106.959 111.92H102.879L102.079 124H94.1587L99.3587 70.88H110.719L115.919 124ZM104.799 84.4L103.359 104.96H106.479L105.119 84.4H104.799ZM130.423 124H118.263V70.88H129.543C135.303 70.88 137.463 74 137.463 79.28V89.36C137.463 92.88 136.103 95.2 133.303 95.68V96C135.943 96.48 138.023 97.84 138.023 102.8V116.88C138.023 121.6 135.943 124 130.423 124ZM129.943 114.16V102.24C129.943 100.4 129.143 99.52 127.622 99.52H126.263V117.04H127.622C129.143 117.04 129.943 116.08 129.943 114.16ZM129.863 90.24V80.72C129.863 78.72 129.463 77.84 127.863 77.84H126.263V92.88H127.863C129.223 92.88 129.863 92 129.863 90.24ZM161.269 124H153.189L152.309 111.92H148.229L147.429 124H139.509L144.709 70.88H156.069L161.269 124ZM150.149 84.4L148.709 104.96H151.829L150.469 84.4H150.149ZM170.733 124H162.573L165.933 100.72C163.773 99.04 163.213 96 163.213 92V81.2C163.213 74.56 164.413 70.88 171.053 70.88H182.573V124H174.413V102.16H173.453L170.733 124ZM170.813 92.88C170.813 94.56 171.533 95.52 172.813 95.52H174.413V78.16H172.813C171.533 78.16 170.813 79.12 170.813 81.2V92.88Z" fill="white" fill-opacity="0.65"></path><path d="M495.925 135.92V131.52C498.245 130.24 499.365 128.32 499.365 125.84V124H495.925V116.16H503.845V124.72C503.845 131.28 501.045 134.96 495.925 135.92Z" fill="#FAF7F0"></path><path d="M257.011 54H249.811V33.44C249.811 30.8 249.971 19.68 250.131 16.96H249.811L245.811 54H238.931L234.931 16.96H234.611C234.851 19.6 234.931 22.32 234.931 33.44V54H227.731V0.879997H239.971L242.371 34.4H242.691L245.171 0.879997H257.011V54ZM281.448 54H273.608V22.8H273.288L268.408 54H260.328V0.879997H268.248V28.4H268.568L272.808 0.879997H281.448V54ZM296.164 33.84H292.804V54H284.644V0.879997H296.164C301.924 0.879997 304.084 4 304.084 9.28V25.52C304.084 30.8 301.924 33.84 296.164 33.84ZM292.804 8.16V26.88H294.484C295.764 26.88 296.404 25.92 296.404 24.24V10.24C296.404 8.8 295.764 8.16 294.484 8.16H292.804ZM337.474 54H329.314V8.16H326.274L325.794 23.36C325.314 37.44 324.434 45.68 322.914 49.44C321.474 53.12 319.154 54 315.554 54H314.514V46.56H314.994C316.274 46.56 317.074 46.24 317.554 44.4C318.354 41.6 318.754 35.12 319.154 23.28L319.794 0.879997H337.474V54ZM352.236 44.56V31.36H351.916C350.956 33.28 348.476 33.84 346.876 33.84C343.036 33.84 340.716 30.48 340.716 23.52V0.879997H348.636V24C348.636 25.68 349.196 26.4 350.316 26.4C351.276 26.4 351.996 25.92 352.236 24.72V0.879997H360.316V43.92C360.316 50.64 357.036 54.4 350.556 54.4C344.316 54.4 340.716 51.04 340.716 44V36.32H348.636V44.56C348.636 46.16 349.276 46.96 350.476 46.96C351.676 46.96 352.236 46.16 352.236 44.56ZM383.225 54H375.145V31.84H374.905C373.465 32.32 372.185 32.56 370.585 32.56C365.625 32.56 363.625 30 363.625 23.2V0.879997H371.545V22.72C371.545 24.48 372.185 25.12 373.465 25.12C374.105 25.12 374.905 24.96 375.145 24.72V0.879997H383.225V54ZM417.654 54H386.534V0.879997H394.694V46.56H398.294V0.879997H405.894V46.56H409.494V0.879997H417.654V54ZM436.448 54H420.928V0.879997H435.968V8.16H428.928V22.48H435.088V29.84H428.928V46.72H436.448V54ZM201.082 124H192.922L196.282 100.72C194.122 99.04 193.562 96 193.562 92V81.2C193.562 74.56 194.762 70.88 201.402 70.88H212.922V124H204.762V102.16H203.802L201.082 124ZM201.162 92.88C201.162 94.56 201.882 95.52 203.162 95.52H204.762V78.16H203.162C201.882 78.16 201.162 79.12 201.162 81.2V92.88ZM227.689 103.84H224.329V124H216.169V70.88H227.689C233.449 70.88 235.609 74 235.609 79.28V95.52C235.609 100.8 233.449 103.84 227.689 103.84ZM224.329 78.16V96.88H226.009C227.289 96.88 227.929 95.92 227.929 94.24V80.24C227.929 78.8 227.289 78.16 226.009 78.16H224.329ZM258.935 124H250.695L248.215 103.92H247.975L246.695 109.12V124H238.375V70.88H246.695V89.2H247.015C247.335 86.8 247.975 84.16 250.855 70.88H259.015L253.975 90.96L258.935 124ZM282.404 124H274.564V92.8H274.244L269.364 124H261.284V70.88H269.204V98.4H269.524L273.764 70.88H282.404V124ZM301.12 124H285.6V70.88H300.64V78.16H293.6V92.48H299.76V99.84H293.6V116.72H301.12V124ZM341.089 124H333.889V103.44C333.889 100.8 334.049 89.68 334.209 86.96H333.889L329.889 124H323.009L319.009 86.96H318.689C318.929 89.6 319.009 92.32 319.009 103.44V124H311.809V70.88H324.049L326.449 104.4H326.769L329.249 70.88H341.089V124ZM363.846 81.36V114C363.846 120.96 360.326 124.4 354.086 124.4C347.686 124.4 344.166 120.64 344.166 113.92V81.2C344.166 74.48 347.766 70.56 354.006 70.56C360.246 70.56 363.846 74.56 363.846 81.36ZM355.846 114.56V80.48C355.846 78.88 355.206 78.08 354.006 78.08C352.806 78.08 352.246 78.88 352.246 80.48V114.56C352.246 116.16 352.806 116.96 354.006 116.96C355.206 116.96 355.846 116.16 355.846 114.56ZM396.205 124H389.005V103.44C389.005 100.8 389.165 89.68 389.325 86.96H389.005L385.005 124H378.125L374.125 86.96H373.805C374.045 89.6 374.125 92.32 374.125 103.44V124H366.925V70.88H379.165L381.565 104.4H381.885L384.365 70.88H396.205V124ZM415.042 124H399.522V70.88H414.562V78.16H407.522V92.48H413.682V99.84H407.522V116.72H415.042V124ZM437.508 124H429.348V99.28H425.748V124H417.588V70.88H425.748V92H429.348V70.88H437.508V124ZM454.089 124H446.009V78.16H440.329V70.88H459.849V78.16H454.089V124ZM492.547 124H484.387V70.88H492.547V124ZM470.707 70.88V92H474.067C479.987 92 481.987 94.72 481.987 99.6V115.68C481.987 120.56 480.067 124 474.067 124H462.547V70.88H470.707ZM470.707 116.8H472.387C473.907 116.8 474.307 115.92 474.307 113.76V101.52C474.307 99.6 473.907 99.04 472.387 99.04H470.707V116.8ZM185.702 184.56V172.32H193.302V184C193.302 190.96 190.022 194.4 183.782 194.4C177.382 194.4 174.022 190.64 174.022 183.92V150.88C174.022 143.92 177.222 140.56 183.702 140.56C189.862 140.56 193.302 143.52 193.302 150.8V159.92H185.702V150.48C185.702 148.88 185.062 148.08 183.862 148.08C182.662 148.08 182.102 148.88 182.102 150.48V184.56C182.102 186.24 182.502 186.96 183.782 186.96C185.062 186.96 185.702 186.24 185.702 184.56ZM212.139 194H196.619V140.88H211.659V148.16H204.619V162.48H210.779V169.84H204.619V186.72H212.139V194ZM226.204 173.84H222.844V194H214.684V140.88H226.204C231.964 140.88 234.124 144 234.124 149.28V165.52C234.124 170.8 231.964 173.84 226.204 173.84ZM222.844 148.16V166.88H224.524C225.804 166.88 226.444 165.92 226.444 164.24V150.24C226.444 148.8 225.804 148.16 224.524 148.16H222.844ZM257.792 206H251.792V194H238.032V206H232.032V186.56H232.832C233.312 186.56 233.792 186.56 234.192 186.24C235.792 185.12 236.352 180.64 236.912 163.36L237.632 140.88H255.232V186.56H257.792V206ZM247.072 186.56V148.16H244.112L243.552 163.44C242.992 178.88 242.432 183.76 241.632 186.56H247.072ZM282.827 206H276.827V194H260.347V140.88H268.507V186.56H272.107V140.88H280.267V186.56H282.827V206ZM306.166 194H298.086L297.206 181.92H293.126L292.326 194H284.406L289.606 140.88H300.966L306.166 194ZM295.046 154.4L293.606 174.96H296.726L295.366 154.4H295.046ZM293.489 264H285.329V239.28H281.729V264H273.569V210.88H281.729V232H285.329V210.88H293.489V264ZM317.591 264H309.511L308.631 251.92H304.551L303.751 264H295.831L301.031 210.88H312.391L317.591 264ZM306.471 224.4L305.031 244.96H308.151L306.791 224.4H306.471ZM353.198 276H347.198V264H333.438V276H327.438V256.56H328.238C328.718 256.56 329.198 256.56 329.598 256.24C331.198 255.12 331.758 250.64 332.318 233.36L333.038 210.88H350.638V256.56H353.198V276ZM342.478 256.56V218.16H339.518L338.958 233.44C338.398 248.88 337.838 253.76 337.038 256.56H342.478ZM374.724 221.36V254C374.724 260.96 371.204 264.4 364.964 264.4C358.564 264.4 355.044 260.64 355.044 253.92V221.2C355.044 214.48 358.644 210.56 364.884 210.56C371.124 210.56 374.724 214.56 374.724 221.36ZM366.724 254.56V220.48C366.724 218.88 366.084 218.08 364.884 218.08C363.684 218.08 363.124 218.88 363.124 220.48V254.56C363.124 256.16 363.684 256.96 364.884 256.96C366.084 256.96 366.724 256.16 366.724 254.56ZM389.483 254.56V242.32H397.083V254C397.083 260.96 393.803 264.4 387.563 264.4C381.163 264.4 377.803 260.64 377.803 253.92V220.88C377.803 213.92 381.003 210.56 387.483 210.56C393.643 210.56 397.083 213.52 397.083 220.8V229.92H389.483V220.48C389.483 218.88 388.843 218.08 387.643 218.08C386.443 218.08 385.883 218.88 385.883 220.48V254.56C385.883 256.24 386.283 256.96 387.563 256.96C388.843 256.96 389.483 256.24 389.483 254.56ZM413.055 264H404.975V218.16H399.295V210.88H418.815V218.16H413.055V264ZM442.633 264H434.793V232.8H434.473L429.593 264H421.513V210.88H429.433V238.4H429.753L433.993 210.88H442.633V264ZM453.268 264H444.788L451.908 236.96L445.108 210.88H453.428L457.988 230.08H458.308V210.88H466.228V230.08H466.548L471.108 210.88H479.428L472.548 236.96L479.748 264H471.268L466.548 242.4H466.228V264H458.308V242.4H457.988L453.268 264ZM497.461 264H481.941V210.88H496.981V218.16H489.941V232.48H496.101V239.84H489.941V256.72H497.461V264ZM519.926 264H511.766V239.28H508.166V264H500.006V210.88H508.166V232H511.766V210.88H519.926V264ZM544.348 264H536.508V232.8H536.188L531.308 264H523.228V210.88H531.148V238.4H531.468L535.708 210.88H544.348V264ZM554.664 264H546.504L549.864 240.72C547.704 239.04 547.144 236 547.144 232V221.2C547.144 214.56 548.344 210.88 554.984 210.88H566.504V264H558.344V242.16H557.384L554.664 264ZM554.744 232.88C554.744 234.56 555.464 235.52 556.744 235.52H558.344V218.16H556.744C555.464 218.16 554.744 219.12 554.744 221.2V232.88Z" fill="white"></path><path d="M19.56 172.64V183.92C19.56 190.64 16.2 194.4 9.8 194.4C3.56 194.4 0.2 190.96 0.2 184V178.56H7.88V184.56C7.88 186.16 8.44 186.96 9.64 186.96C10.84 186.96 11.48 186.16 11.48 184.56V172.08C11.48 170.24 10.68 169.36 9.16 169.36H6.68V162.72H9.48C10.76 162.72 11.48 161.84 11.48 160.08V150.48C11.48 148.88 10.84 148.08 9.64 148.08C8.44 148.08 7.88 148.88 7.88 150.48V155.92H0.2V151.36C0.2 144.48 3.72 140.56 9.72 140.56C16.2 140.56 18.92 145.2 18.92 149.6V159.2C18.92 162.72 17.64 165.12 14.84 165.6V165.92C17.48 166.4 19.56 168.4 19.56 172.64ZM42.2687 194H34.1888L33.3087 181.92H29.2287L28.4287 194H20.5087L25.7087 140.88H37.0687L42.2687 194ZM31.1487 154.4L29.7087 174.96H32.8287L31.4687 154.4H31.1487ZM52.0525 194H43.5725L50.6925 166.96L43.8925 140.88H52.2125L56.7725 160.08H57.0925V140.88H65.0125V160.08H65.3325L69.8925 140.88H78.2125L71.3325 166.96L78.5325 194H70.0525L65.3325 172.4H65.0125V194H57.0925V172.4H56.7725L52.0525 194ZM101.845 194H94.005V162.8H93.685L88.805 194H80.725V140.88H88.645V168.4H88.965L93.205 140.88H101.845V194ZM113.201 194H105.041V140.88H120.881V148.32H113.201V194ZM141.328 194H133.248L132.368 181.92H128.288L127.488 194H119.568L124.768 140.88H136.128L141.328 194ZM130.208 154.4L128.768 174.96H131.888L130.528 154.4H130.208ZM150.792 194H142.632L145.992 170.72C143.832 169.04 143.272 166 143.272 162V151.2C143.272 144.56 144.472 140.88 151.112 140.88H162.632V194H154.472V172.16H153.512L150.792 194ZM150.872 162.88C150.872 164.56 151.592 165.52 152.872 165.52H154.472V148.16H152.872C151.592 148.16 150.872 149.12 150.872 151.2V162.88ZM21.32 264H13.48V232.8H13.16L8.28 264H0.2V210.88H8.12V238.4H8.44L12.68 210.88H21.32V264ZM44.8194 264H32.6594V210.88H43.9394C49.6994 210.88 51.8594 214 51.8594 219.28V229.36C51.8594 232.88 50.4994 235.2 47.6994 235.68V236C50.3394 236.48 52.4194 237.84 52.4194 242.8V256.88C52.4194 261.6 50.3394 264 44.8194 264ZM44.3394 254.16V242.24C44.3394 240.4 43.5394 239.52 42.0194 239.52H40.6594V257.04H42.0194C43.5394 257.04 44.3394 256.08 44.3394 254.16ZM44.2594 230.24V220.72C44.2594 218.72 43.8594 217.84 42.2594 217.84H40.6594V232.88H42.2594C43.6194 232.88 44.2594 232 44.2594 230.24ZM79.9856 276H73.9856V264H60.2256V276H54.2256V256.56H55.0256C55.5056 256.56 55.9856 256.56 56.3856 256.24C57.9856 255.12 58.5456 250.64 59.1056 233.36L59.8256 210.88H77.4256V256.56H79.9856V276ZM69.2656 256.56V218.16H66.3056L65.7456 233.44C65.1856 248.88 64.6256 253.76 63.8256 256.56H69.2656ZM101.512 221.36V254C101.512 260.96 97.9919 264.4 91.7519 264.4C85.3519 264.4 81.8319 260.64 81.8319 253.92V221.2C81.8319 214.48 85.4319 210.56 91.6719 210.56C97.9119 210.56 101.512 214.56 101.512 221.36ZM93.5119 254.56V220.48C93.5119 218.88 92.8719 218.08 91.6719 218.08C90.4719 218.08 89.9119 218.88 89.9119 220.48V254.56C89.9119 256.16 90.4719 256.96 91.6719 256.96C92.8719 256.96 93.5119 256.16 93.5119 254.56ZM116.864 210.88H124.784L118.944 236L125.024 264H116.784L113.744 246H113.424L110.384 264H102.224L108.464 237.12L102.464 210.88H110.624L113.584 227.6H113.904L116.864 210.88ZM147.264 264H139.104V239.28H135.504V264H127.344V210.88H135.504V232H139.104V210.88H147.264V264ZM170.006 221.36V254C170.006 260.96 166.486 264.4 160.246 264.4C153.846 264.4 150.326 260.64 150.326 253.92V221.2C150.326 214.48 153.926 210.56 160.166 210.56C166.406 210.56 170.006 214.56 170.006 221.36ZM162.006 254.56V220.48C162.006 218.88 161.366 218.08 160.166 218.08C158.966 218.08 158.406 218.88 158.406 220.48V254.56C158.406 256.16 158.966 256.96 160.166 256.96C161.366 256.96 162.006 256.16 162.006 254.56ZM185.244 264H173.084V210.88H184.364C190.124 210.88 192.284 214 192.284 219.28V229.36C192.284 232.88 190.924 235.2 188.124 235.68V236C190.764 236.48 192.844 237.84 192.844 242.8V256.88C192.844 261.6 190.764 264 185.244 264ZM184.764 254.16V242.24C184.764 240.4 183.964 239.52 182.444 239.52H181.084V257.04H182.444C183.964 257.04 184.764 256.08 184.764 254.16ZM184.684 230.24V220.72C184.684 218.72 184.284 217.84 182.684 217.84H181.084V232.88H182.684C184.044 232.88 184.684 232 184.684 230.24ZM217.771 264H209.611V218.16H206.571L206.091 233.36C205.611 247.44 204.731 255.68 203.211 259.44C201.771 263.12 199.451 264 195.851 264H194.811V256.56H195.291C196.571 256.56 197.371 256.24 197.851 254.4C198.651 251.6 199.051 245.12 199.451 233.28L200.091 210.88H217.771V264ZM228.133 264H219.973L223.333 240.72C221.173 239.04 220.613 236 220.613 232V221.2C220.613 214.56 221.813 210.88 228.453 210.88H239.973V264H231.813V242.16H230.853L228.133 264ZM228.213 232.88C228.213 234.56 228.933 235.52 230.213 235.52H231.813V218.16H230.213C228.933 218.16 228.213 219.12 228.213 221.2V232.88ZM250.339 264H242.179L245.539 240.72C243.379 239.04 242.819 236 242.819 232V221.2C242.819 214.56 244.019 210.88 250.659 210.88H262.179V264H254.019V242.16H253.059L250.339 264ZM250.419 232.88C250.419 234.56 251.139 235.52 252.419 235.52H254.019V218.16H252.419C251.139 218.16 250.419 219.12 250.419 221.2V232.88Z" fill="#FAF7F0" fill-opacity="0.65"></path></g><defs><clipPath id="bgblur_0_5_4_clip_path" transform="translate(6.06219 5.38213)"><path d="M29.48 54H22.28V33.44C22.28 30.8 22.44 19.68 22.6 16.96H22.28L18.28 54H11.4L7.4 16.96H7.08C7.32 19.6 7.4 22.32 7.4 33.44V54H0.2V0.879997H12.44L14.84 34.4H15.16L17.64 0.879997H29.48V54ZM62.7969 54H54.6369V0.879997H62.7969V54ZM40.9569 0.879997V22H44.3169C50.2369 22 52.2369 24.72 52.2369 29.6V45.68C52.2369 50.56 50.3169 54 44.3169 54H32.7969V0.879997H40.9569ZM40.9569 46.8H42.6369C44.1569 46.8 44.5569 45.92 44.5569 43.76V31.52C44.5569 29.6 44.1569 29.04 42.6369 29.04H40.9569V46.8ZM99.4388 66H93.4388V54H79.6788V66H73.6788V46.56H74.4788C74.9588 46.56 75.4388 46.56 75.8388 46.24C77.4388 45.12 77.9988 40.64 78.5588 23.36L79.2788 0.879997H96.8788V46.56H99.4388V66ZM88.7188 46.56V8.16H85.7588L85.1988 23.44C84.6388 38.88 84.0788 43.76 83.2788 46.56H88.7188ZM117.514 54H101.994V0.879997H117.034V8.16H109.994V22.48H116.154V29.84H109.994V46.72H117.514V54ZM142.539 54H134.379V8.16H131.339L130.859 23.36C130.379 37.44 129.499 45.68 127.979 49.44C126.539 53.12 124.219 54 120.619 54H119.579V46.56H120.059C121.339 46.56 122.139 46.24 122.619 44.4C123.419 41.6 123.819 35.12 124.219 23.28L124.859 0.879997H142.539V54ZM166.581 54H158.501L157.621 41.92H153.541L152.741 54H144.821L150.021 0.879997H161.381L166.581 54ZM155.461 14.4L154.021 34.96H157.141L155.781 14.4H155.461ZM184.445 54H168.925V0.879997H183.965V8.16H176.925V22.48H183.085V29.84H176.925V46.72H184.445V54ZM216.271 54H209.071V33.44C209.071 30.8 209.231 19.68 209.391 16.96H209.071L205.071 54H198.191L194.191 16.96H193.871C194.111 19.6 194.191 22.32 194.191 33.44V54H186.991V0.879997H199.231L201.631 34.4H201.951L204.431 0.879997H216.271V54ZM11.88 114.56V102.32H19.48V114C19.48 120.96 16.2 124.4 9.96 124.4C3.56 124.4 0.2 120.64 0.2 113.92V80.88C0.2 73.92 3.4 70.56 9.88 70.56C16.04 70.56 19.48 73.52 19.48 80.8V89.92H11.88V80.48C11.88 78.88 11.24 78.08 10.04 78.08C8.84 78.08 8.28 78.88 8.28 80.48V114.56C8.28 116.24 8.68 116.96 9.96 116.96C11.24 116.96 11.88 116.24 11.88 114.56ZM42.2369 81.36V114C42.2369 120.96 38.7169 124.4 32.4769 124.4C26.0769 124.4 22.5569 120.64 22.5569 113.92V81.2C22.5569 74.48 26.1569 70.56 32.3969 70.56C38.6369 70.56 42.2369 74.56 42.2369 81.36ZM34.2369 114.56V80.48C34.2369 78.88 33.5969 78.08 32.3969 78.08C31.1969 78.08 30.6369 78.88 30.6369 80.48V114.56C30.6369 116.16 31.1969 116.96 32.3969 116.96C33.5969 116.96 34.2369 116.16 34.2369 114.56ZM64.6756 102.64V113.92C64.6756 120.64 61.3156 124.4 54.9156 124.4C48.6756 124.4 45.3156 120.96 45.3156 114V108.56H52.9956V114.56C52.9956 116.16 53.5556 116.96 54.7556 116.96C55.9556 116.96 56.5956 116.16 56.5956 114.56V102.08C56.5956 100.24 55.7956 99.36 54.2756 99.36H51.7956V92.72H54.5956C55.8756 92.72 56.5956 91.84 56.5956 90.08V80.48C56.5956 78.88 55.9556 78.08 54.7556 78.08C53.5556 78.08 52.9956 78.88 52.9956 80.48V85.92H45.3156V81.36C45.3156 74.48 48.8356 70.56 54.8356 70.56C61.3156 70.56 64.0356 75.2 64.0356 79.6V89.2C64.0356 92.72 62.7556 95.12 59.9556 95.6V95.92C62.5956 96.4 64.6756 98.4 64.6756 102.64ZM92.5638 136H86.5638V124H72.8038V136H66.8038V116.56H67.6038C68.0838 116.56 68.5638 116.56 68.9638 116.24C70.5638 115.12 71.1238 110.64 71.6838 93.36L72.4038 70.88H90.0038V116.56H92.5638V136ZM81.8438 116.56V78.16H78.8838L78.3238 93.44C77.7638 108.88 77.2038 113.76 76.4038 116.56H81.8438ZM115.919 124H107.839L106.959 111.92H102.879L102.079 124H94.1587L99.3587 70.88H110.719L115.919 124ZM104.799 84.4L103.359 104.96H106.479L105.119 84.4H104.799ZM130.423 124H118.263V70.88H129.543C135.303 70.88 137.463 74 137.463 79.28V89.36C137.463 92.88 136.103 95.2 133.303 95.68V96C135.943 96.48 138.023 97.84 138.023 102.8V116.88C138.023 121.6 135.943 124 130.423 124ZM129.943 114.16V102.24C129.943 100.4 129.143 99.52 127.622 99.52H126.263V117.04H127.622C129.143 117.04 129.943 116.08 129.943 114.16ZM129.863 90.24V80.72C129.863 78.72 129.463 77.84 127.863 77.84H126.263V92.88H127.863C129.223 92.88 129.863 92 129.863 90.24ZM161.269 124H153.189L152.309 111.92H148.229L147.429 124H139.509L144.709 70.88H156.069L161.269 124ZM150.149 84.4L148.709 104.96H151.829L150.469 84.4H150.149ZM170.733 124H162.573L165.933 100.72C163.773 99.04 163.213 96 163.213 92V81.2C163.213 74.56 164.413 70.88 171.053 70.88H182.573V124H174.413V102.16H173.453L170.733 124ZM170.813 92.88C170.813 94.56 171.533 95.52 172.813 95.52H174.413V78.16H172.813C171.533 78.16 170.813 79.12 170.813 81.2V92.88Z"></path><path d="M495.925 135.92V131.52C498.245 130.24 499.365 128.32 499.365 125.84V124H495.925V116.16H503.845V124.72C503.845 131.28 501.045 134.96 495.925 135.92Z"></path><path d="M257.011 54H249.811V33.44C249.811 30.8 249.971 19.68 250.131 16.96H249.811L245.811 54H238.931L234.931 16.96H234.611C234.851 19.6 234.931 22.32 234.931 33.44V54H227.731V0.879997H239.971L242.371 34.4H242.691L245.171 0.879997H257.011V54ZM281.448 54H273.608V22.8H273.288L268.408 54H260.328V0.879997H268.248V28.4H268.568L272.808 0.879997H281.448V54ZM296.164 33.84H292.804V54H284.644V0.879997H296.164C301.924 0.879997 304.084 4 304.084 9.28V25.52C304.084 30.8 301.924 33.84 296.164 33.84ZM292.804 8.16V26.88H294.484C295.764 26.88 296.404 25.92 296.404 24.24V10.24C296.404 8.8 295.764 8.16 294.484 8.16H292.804ZM337.474 54H329.314V8.16H326.274L325.794 23.36C325.314 37.44 324.434 45.68 322.914 49.44C321.474 53.12 319.154 54 315.554 54H314.514V46.56H314.994C316.274 46.56 317.074 46.24 317.554 44.4C318.354 41.6 318.754 35.12 319.154 23.28L319.794 0.879997H337.474V54ZM352.236 44.56V31.36H351.916C350.956 33.28 348.476 33.84 346.876 33.84C343.036 33.84 340.716 30.48 340.716 23.52V0.879997H348.636V24C348.636 25.68 349.196 26.4 350.316 26.4C351.276 26.4 351.996 25.92 352.236 24.72V0.879997H360.316V43.92C360.316 50.64 357.036 54.4 350.556 54.4C344.316 54.4 340.716 51.04 340.716 44V36.32H348.636V44.56C348.636 46.16 349.276 46.96 350.476 46.96C351.676 46.96 352.236 46.16 352.236 44.56ZM383.225 54H375.145V31.84H374.905C373.465 32.32 372.185 32.56 370.585 32.56C365.625 32.56 363.625 30 363.625 23.2V0.879997H371.545V22.72C371.545 24.48 372.185 25.12 373.465 25.12C374.105 25.12 374.905 24.96 375.145 24.72V0.879997H383.225V54ZM417.654 54H386.534V0.879997H394.694V46.56H398.294V0.879997H405.894V46.56H409.494V0.879997H417.654V54ZM436.448 54H420.928V0.879997H435.968V8.16H428.928V22.48H435.088V29.84H428.928V46.72H436.448V54ZM201.082 124H192.922L196.282 100.72C194.122 99.04 193.562 96 193.562 92V81.2C193.562 74.56 194.762 70.88 201.402 70.88H212.922V124H204.762V102.16H203.802L201.082 124ZM201.162 92.88C201.162 94.56 201.882 95.52 203.162 95.52H204.762V78.16H203.162C201.882 78.16 201.162 79.12 201.162 81.2V92.88ZM227.689 103.84H224.329V124H216.169V70.88H227.689C233.449 70.88 235.609 74 235.609 79.28V95.52C235.609 100.8 233.449 103.84 227.689 103.84ZM224.329 78.16V96.88H226.009C227.289 96.88 227.929 95.92 227.929 94.24V80.24C227.929 78.8 227.289 78.16 226.009 78.16H224.329ZM258.935 124H250.695L248.215 103.92H247.975L246.695 109.12V124H238.375V70.88H246.695V89.2H247.015C247.335 86.8 247.975 84.16 250.855 70.88H259.015L253.975 90.96L258.935 124ZM282.404 124H274.564V92.8H274.244L269.364 124H261.284V70.88H269.204V98.4H269.524L273.764 70.88H282.404V124ZM301.12 124H285.6V70.88H300.64V78.16H293.6V92.48H299.76V99.84H293.6V116.72H301.12V124ZM341.089 124H333.889V103.44C333.889 100.8 334.049 89.68 334.209 86.96H333.889L329.889 124H323.009L319.009 86.96H318.689C318.929 89.6 319.009 92.32 319.009 103.44V124H311.809V70.88H324.049L326.449 104.4H326.769L329.249 70.88H341.089V124ZM363.846 81.36V114C363.846 120.96 360.326 124.4 354.086 124.4C347.686 124.4 344.166 120.64 344.166 113.92V81.2C344.166 74.48 347.766 70.56 354.006 70.56C360.246 70.56 363.846 74.56 363.846 81.36ZM355.846 114.56V80.48C355.846 78.88 355.206 78.08 354.006 78.08C352.806 78.08 352.246 78.88 352.246 80.48V114.56C352.246 116.16 352.806 116.96 354.006 116.96C355.206 116.96 355.846 116.16 355.846 114.56ZM396.205 124H389.005V103.44C389.005 100.8 389.165 89.68 389.325 86.96H389.005L385.005 124H378.125L374.125 86.96H373.805C374.045 89.6 374.125 92.32 374.125 103.44V124H366.925V70.88H379.165L381.565 104.4H381.885L384.365 70.88H396.205V124ZM415.042 124H399.522V70.88H414.562V78.16H407.522V92.48H413.682V99.84H407.522V116.72H415.042V124ZM437.508 124H429.348V99.28H425.748V124H417.588V70.88H425.748V92H429.348V70.88H437.508V124ZM454.089 124H446.009V78.16H440.329V70.88H459.849V78.16H454.089V124ZM492.547 124H484.387V70.88H492.547V124ZM470.707 70.88V92H474.067C479.987 92 481.987 94.72 481.987 99.6V115.68C481.987 120.56 480.067 124 474.067 124H462.547V70.88H470.707ZM470.707 116.8H472.387C473.907 116.8 474.307 115.92 474.307 113.76V101.52C474.307 99.6 473.907 99.04 472.387 99.04H470.707V116.8ZM185.702 184.56V172.32H193.302V184C193.302 190.96 190.022 194.4 183.782 194.4C177.382 194.4 174.022 190.64 174.022 183.92V150.88C174.022 143.92 177.222 140.56 183.702 140.56C189.862 140.56 193.302 143.52 193.302 150.8V159.92H185.702V150.48C185.702 148.88 185.062 148.08 183.862 148.08C182.662 148.08 182.102 148.88 182.102 150.48V184.56C182.102 186.24 182.502 186.96 183.782 186.96C185.062 186.96 185.702 186.24 185.702 184.56ZM212.139 194H196.619V140.88H211.659V148.16H204.619V162.48H210.779V169.84H204.619V186.72H212.139V194ZM226.204 173.84H222.844V194H214.684V140.88H226.204C231.964 140.88 234.124 144 234.124 149.28V165.52C234.124 170.8 231.964 173.84 226.204 173.84ZM222.844 148.16V166.88H224.524C225.804 166.88 226.444 165.92 226.444 164.24V150.24C226.444 148.8 225.804 148.16 224.524 148.16H222.844ZM257.792 206H251.792V194H238.032V206H232.032V186.56H232.832C233.312 186.56 233.792 186.56 234.192 186.24C235.792 185.12 236.352 180.64 236.912 163.36L237.632 140.88H255.232V186.56H257.792V206ZM247.072 186.56V148.16H244.112L243.552 163.44C242.992 178.88 242.432 183.76 241.632 186.56H247.072ZM282.827 206H276.827V194H260.347V140.88H268.507V186.56H272.107V140.88H280.267V186.56H282.827V206ZM306.166 194H298.086L297.206 181.92H293.126L292.326 194H284.406L289.606 140.88H300.966L306.166 194ZM295.046 154.4L293.606 174.96H296.726L295.366 154.4H295.046ZM293.489 264H285.329V239.28H281.729V264H273.569V210.88H281.729V232H285.329V210.88H293.489V264ZM317.591 264H309.511L308.631 251.92H304.551L303.751 264H295.831L301.031 210.88H312.391L317.591 264ZM306.471 224.4L305.031 244.96H308.151L306.791 224.4H306.471ZM353.198 276H347.198V264H333.438V276H327.438V256.56H328.238C328.718 256.56 329.198 256.56 329.598 256.24C331.198 255.12 331.758 250.64 332.318 233.36L333.038 210.88H350.638V256.56H353.198V276ZM342.478 256.56V218.16H339.518L338.958 233.44C338.398 248.88 337.838 253.76 337.038 256.56H342.478ZM374.724 221.36V254C374.724 260.96 371.204 264.4 364.964 264.4C358.564 264.4 355.044 260.64 355.044 253.92V221.2C355.044 214.48 358.644 210.56 364.884 210.56C371.124 210.56 374.724 214.56 374.724 221.36ZM366.724 254.56V220.48C366.724 218.88 366.084 218.08 364.884 218.08C363.684 218.08 363.124 218.88 363.124 220.48V254.56C363.124 256.16 363.684 256.96 364.884 256.96C366.084 256.96 366.724 256.16 366.724 254.56ZM389.483 254.56V242.32H397.083V254C397.083 260.96 393.803 264.4 387.563 264.4C381.163 264.4 377.803 260.64 377.803 253.92V220.88C377.803 213.92 381.003 210.56 387.483 210.56C393.643 210.56 397.083 213.52 397.083 220.8V229.92H389.483V220.48C389.483 218.88 388.843 218.08 387.643 218.08C386.443 218.08 385.883 218.88 385.883 220.48V254.56C385.883 256.24 386.283 256.96 387.563 256.96C388.843 256.96 389.483 256.24 389.483 254.56ZM413.055 264H404.975V218.16H399.295V210.88H418.815V218.16H413.055V264ZM442.633 264H434.793V232.8H434.473L429.593 264H421.513V210.88H429.433V238.4H429.753L433.993 210.88H442.633V264ZM453.268 264H444.788L451.908 236.96L445.108 210.88H453.428L457.988 230.08H458.308V210.88H466.228V230.08H466.548L471.108 210.88H479.428L472.548 236.96L479.748 264H471.268L466.548 242.4H466.228V264H458.308V242.4H457.988L453.268 264ZM497.461 264H481.941V210.88H496.981V218.16H489.941V232.48H496.101V239.84H489.941V256.72H497.461V264ZM519.926 264H511.766V239.28H508.166V264H500.006V210.88H508.166V232H511.766V210.88H519.926V264ZM544.348 264H536.508V232.8H536.188L531.308 264H523.228V210.88H531.148V238.4H531.468L535.708 210.88H544.348V264ZM554.664 264H546.504L549.864 240.72C547.704 239.04 547.144 236 547.144 232V221.2C547.144 214.56 548.344 210.88 554.984 210.88H566.504V264H558.344V242.16H557.384L554.664 264ZM554.744 232.88C554.744 234.56 555.464 235.52 556.744 235.52H558.344V218.16H556.744C555.464 218.16 554.744 219.12 554.744 221.2V232.88Z"></path><path d="M19.56 172.64V183.92C19.56 190.64 16.2 194.4 9.8 194.4C3.56 194.4 0.2 190.96 0.2 184V178.56H7.88V184.56C7.88 186.16 8.44 186.96 9.64 186.96C10.84 186.96 11.48 186.16 11.48 184.56V172.08C11.48 170.24 10.68 169.36 9.16 169.36H6.68V162.72H9.48C10.76 162.72 11.48 161.84 11.48 160.08V150.48C11.48 148.88 10.84 148.08 9.64 148.08C8.44 148.08 7.88 148.88 7.88 150.48V155.92H0.2V151.36C0.2 144.48 3.72 140.56 9.72 140.56C16.2 140.56 18.92 145.2 18.92 149.6V159.2C18.92 162.72 17.64 165.12 14.84 165.6V165.92C17.48 166.4 19.56 168.4 19.56 172.64ZM42.2687 194H34.1888L33.3087 181.92H29.2287L28.4287 194H20.5087L25.7087 140.88H37.0687L42.2687 194ZM31.1487 154.4L29.7087 174.96H32.8287L31.4687 154.4H31.1487ZM52.0525 194H43.5725L50.6925 166.96L43.8925 140.88H52.2125L56.7725 160.08H57.0925V140.88H65.0125V160.08H65.3325L69.8925 140.88H78.2125L71.3325 166.96L78.5325 194H70.0525L65.3325 172.4H65.0125V194H57.0925V172.4H56.7725L52.0525 194ZM101.845 194H94.005V162.8H93.685L88.805 194H80.725V140.88H88.645V168.4H88.965L93.205 140.88H101.845V194ZM113.201 194H105.041V140.88H120.881V148.32H113.201V194ZM141.328 194H133.248L132.368 181.92H128.288L127.488 194H119.568L124.768 140.88H136.128L141.328 194ZM130.208 154.4L128.768 174.96H131.888L130.528 154.4H130.208ZM150.792 194H142.632L145.992 170.72C143.832 169.04 143.272 166 143.272 162V151.2C143.272 144.56 144.472 140.88 151.112 140.88H162.632V194H154.472V172.16H153.512L150.792 194ZM150.872 162.88C150.872 164.56 151.592 165.52 152.872 165.52H154.472V148.16H152.872C151.592 148.16 150.872 149.12 150.872 151.2V162.88ZM21.32 264H13.48V232.8H13.16L8.28 264H0.2V210.88H8.12V238.4H8.44L12.68 210.88H21.32V264ZM44.8194 264H32.6594V210.88H43.9394C49.6994 210.88 51.8594 214 51.8594 219.28V229.36C51.8594 232.88 50.4994 235.2 47.6994 235.68V236C50.3394 236.48 52.4194 237.84 52.4194 242.8V256.88C52.4194 261.6 50.3394 264 44.8194 264ZM44.3394 254.16V242.24C44.3394 240.4 43.5394 239.52 42.0194 239.52H40.6594V257.04H42.0194C43.5394 257.04 44.3394 256.08 44.3394 254.16ZM44.2594 230.24V220.72C44.2594 218.72 43.8594 217.84 42.2594 217.84H40.6594V232.88H42.2594C43.6194 232.88 44.2594 232 44.2594 230.24ZM79.9856 276H73.9856V264H60.2256V276H54.2256V256.56H55.0256C55.5056 256.56 55.9856 256.56 56.3856 256.24C57.9856 255.12 58.5456 250.64 59.1056 233.36L59.8256 210.88H77.4256V256.56H79.9856V276ZM69.2656 256.56V218.16H66.3056L65.7456 233.44C65.1856 248.88 64.6256 253.76 63.8256 256.56H69.2656ZM101.512 221.36V254C101.512 260.96 97.9919 264.4 91.7519 264.4C85.3519 264.4 81.8319 260.64 81.8319 253.92V221.2C81.8319 214.48 85.4319 210.56 91.6719 210.56C97.9119 210.56 101.512 214.56 101.512 221.36ZM93.5119 254.56V220.48C93.5119 218.88 92.8719 218.08 91.6719 218.08C90.4719 218.08 89.9119 218.88 89.9119 220.48V254.56C89.9119 256.16 90.4719 256.96 91.6719 256.96C92.8719 256.96 93.5119 256.16 93.5119 254.56ZM116.864 210.88H124.784L118.944 236L125.024 264H116.784L113.744 246H113.424L110.384 264H102.224L108.464 237.12L102.464 210.88H110.624L113.584 227.6H113.904L116.864 210.88ZM147.264 264H139.104V239.28H135.504V264H127.344V210.88H135.504V232H139.104V210.88H147.264V264ZM170.006 221.36V254C170.006 260.96 166.486 264.4 160.246 264.4C153.846 264.4 150.326 260.64 150.326 253.92V221.2C150.326 214.48 153.926 210.56 160.166 210.56C166.406 210.56 170.006 214.56 170.006 221.36ZM162.006 254.56V220.48C162.006 218.88 161.366 218.08 160.166 218.08C158.966 218.08 158.406 218.88 158.406 220.48V254.56C158.406 256.16 158.966 256.96 160.166 256.96C161.366 256.96 162.006 256.16 162.006 254.56ZM185.244 264H173.084V210.88H184.364C190.124 210.88 192.284 214 192.284 219.28V229.36C192.284 232.88 190.924 235.2 188.124 235.68V236C190.764 236.48 192.844 237.84 192.844 242.8V256.88C192.844 261.6 190.764 264 185.244 264ZM184.764 254.16V242.24C184.764 240.4 183.964 239.52 182.444 239.52H181.084V257.04H182.444C183.964 257.04 184.764 256.08 184.764 254.16ZM184.684 230.24V220.72C184.684 218.72 184.284 217.84 182.684 217.84H181.084V232.88H182.684C184.044 232.88 184.684 232 184.684 230.24ZM217.771 264H209.611V218.16H206.571L206.091 233.36C205.611 247.44 204.731 255.68 203.211 259.44C201.771 263.12 199.451 264 195.851 264H194.811V256.56H195.291C196.571 256.56 197.371 256.24 197.851 254.4C198.651 251.6 199.051 245.12 199.451 233.28L200.091 210.88H217.771V264ZM228.133 264H219.973L223.333 240.72C221.173 239.04 220.613 236 220.613 232V221.2C220.613 214.56 221.813 210.88 228.453 210.88H239.973V264H231.813V242.16H230.853L228.133 264ZM228.213 232.88C228.213 234.56 228.933 235.52 230.213 235.52H231.813V218.16H230.213C228.933 218.16 228.213 219.12 228.213 221.2V232.88ZM250.339 264H242.179L245.539 240.72C243.379 239.04 242.819 236 242.819 232V221.2C242.819 214.56 244.019 210.88 250.659 210.88H262.179V264H254.019V242.16H253.059L250.339 264ZM250.419 232.88C250.419 234.56 251.139 235.52 252.419 235.52H254.019V218.16H252.419C251.139 218.16 250.419 219.12 250.419 221.2V232.88Z"></path></clipPath></defs></svg> 