<?xml version="1.0" encoding="UTF-8"?> <svg xmlns="http://www.w3.org/2000/svg" id="Layer_1" data-name="Layer 1" viewBox="0 0 222.86 185.46"><defs><style> .cls-1 { fill: #231f20; } .cls-1, .cls-2, .cls-3 { stroke-width: 0px; } .cls-2 { fill: #daaf5d; } .cls-3 { fill: #fff; } </style></defs><g><path class="cls-1" d="M80.3,138.23l13.32,45.98h-14.63l-7.6-33.06-7.89,33.06h-13.48l14.78-48.97-13.05-45.93h14.34l6.31,29.74,6.6-29.74h13.34l-11.6,38.6-4.96,15.7h.6l3.93-5.38ZM25.21,88.07c5.59,0,14.06,2.21,18.65,13.7,2.73,6.78,3.73,15.91,3.73,35s-1,28.22-3.73,35c-4.59,11.48-13.05,13.7-18.65,13.7s-14.06-2.21-18.65-13.7c-2.73-6.78-3.73-15.91-3.73-35s1.01-28.22,3.73-35c4.59-11.48,13.05-13.7,18.65-13.7M29.66,170.8c1-1.94,2.15-5.53,2.15-34.03s-1.15-32.09-2.15-34.03c-1-1.94-2.15-2.91-4.45-2.91s-3.44.97-4.45,2.91c-1,1.94-2.15,5.53-2.15,34.03s1.15,32.09,2.15,34.03c1,1.94,2.15,2.9,4.45,2.9s3.44-.97,4.45-2.9M222.86,184.22h-13.77l-3.1-23.58,4.61-2.3.03-.28h-6.55s-10.34,0-10.34,0l-3.01,26.15h-13.2l15.21-94.9h14.49l15.64,94.9ZM204.22,146.45l-2.15-16.88c-.96-7.33-1.6-13.7-2.58-21.42-1.08,9.58-2.73,21.42-2.73,21.42l-2.01,16.88h9.47ZM118.44,88.07c5.59,0,14.06,2.21,18.65,13.7,2.72,6.78,3.73,15.91,3.73,35s-1,28.22-3.73,35c-4.59,11.48-13.05,13.7-18.65,13.7s-14.06-2.21-18.65-13.7c-2.72-6.78-3.73-15.91-3.73-35s1-28.22,3.73-35c4.59-11.48,13.05-13.7,18.65-13.7M122.89,170.8c1-1.94,2.15-5.53,2.15-34.03s-1.15-32.09-2.15-34.03c-1.01-1.94-2.15-2.91-4.45-2.91s-3.44.97-4.45,2.91c-1.01,1.94-2.15,5.53-2.15,34.03s1.15,32.09,2.15,34.03c1.01,1.94,2.15,2.9,4.45,2.9s3.44-.97,4.45-2.9M180.27,89.32h-36.29l-.04,15.56,6.6-1.52,11.55-3.29v-.28l-7.2,5.57v78.86h14.63v-82.86l10.76,2.52v-14.55Z"></path><path class="cls-3" d="M77.47,138.23l13.32,45.98h-14.63l-7.6-33.06-7.89,33.06h-13.48l14.78-48.97-13.05-45.93h14.34l6.31,29.74,6.6-29.74h13.34l-11.6,38.6-4.96,15.7h.6l3.93-5.38ZM22.38,88.07c5.59,0,14.06,2.21,18.65,13.7,2.73,6.78,3.73,15.91,3.73,35s-1,28.22-3.73,35c-4.59,11.48-13.05,13.7-18.65,13.7s-14.06-2.21-18.65-13.7c-2.73-6.78-3.73-15.91-3.73-35s1.01-28.22,3.73-35c4.59-11.48,13.05-13.7,18.65-13.7M26.83,170.8c1-1.94,2.15-5.53,2.15-34.03s-1.15-32.09-2.15-34.03c-1-1.94-2.15-2.91-4.45-2.91s-3.44.97-4.45,2.91c-1,1.94-2.15,5.53-2.15,34.03s1.15,32.09,2.15,34.03c1,1.94,2.15,2.9,4.45,2.9s3.44-.97,4.45-2.9M220.03,184.22h-13.77l-3.1-23.58,4.61-2.3.03-.28h-6.55s-10.34,0-10.34,0l-3.01,26.15h-13.2l15.21-94.9h14.49l15.64,94.9ZM201.39,146.45l-2.15-16.88c-.96-7.33-1.6-13.7-2.58-21.42-1.08,9.58-2.73,21.42-2.73,21.42l-2.01,16.88h9.47ZM115.61,88.07c5.59,0,14.06,2.21,18.65,13.7,2.72,6.78,3.73,15.91,3.73,35s-1,28.22-3.73,35c-4.59,11.48-13.05,13.7-18.65,13.7s-14.06-2.21-18.65-13.7c-2.72-6.78-3.73-15.91-3.73-35s1-28.22,3.73-35c4.59-11.48,13.05-13.7,18.65-13.7M120.06,170.8c1-1.94,2.15-5.53,2.15-34.03s-1.15-32.09-2.15-34.03c-1.01-1.94-2.15-2.91-4.45-2.91s-3.44.97-4.45,2.91c-1.01,1.94-2.15,5.53-2.15,34.03s1.15,32.09,2.15,34.03c1.01,1.94,2.15,2.9,4.45,2.9s3.44-.97,4.45-2.9M177.44,89.32h-36.29v14.55l6.6-1.52,11.55-3.29v.37l-7.24,5.29v79.51h14.63v-82.86l10.76,2.52v-14.55ZM213.81,92.9c.11.47.18.65.24.77-.31,0-.46,0-.77,0-.1-.12-.17-.4-.26-.77-.07-.32-.26-.48-.66-.48-.14,0-.21,0-.35,0,0,.5,0,.75.01,1.25-.29,0-.44,0-.74,0-.01-1.26-.02-1.89-.03-3.15.29-.05.69-.1,1.22-.11.6,0,.87.1,1.08.24.19.13.33.36.33.67,0,.39-.28.64-.65.76,0,.01,0,.02,0,.04.31.1.47.35.57.77ZM213.1,91.44c0-.29-.22-.48-.68-.48-.19,0-.33.02-.41.04,0,.36,0,.54,0,.91.14,0,.21,0,.35,0,.41,0,.73-.14.73-.47ZM215.51,92.08c.02,1.61-1.27,2.88-2.92,2.9-1.64.01-2.97-1.25-2.98-2.85-.02-1.6,1.29-2.87,2.93-2.88,0,0,.01,0,.02,0,1.62-.01,2.93,1.23,2.95,2.84ZM214.87,92.1c-.01-1.33-1.01-2.4-2.33-2.39,0,0,0,0-.02,0-1.3,0-2.3,1.09-2.28,2.4.01,1.33,1.04,2.37,2.37,2.37,1.29,0,2.28-1.07,2.26-2.38Z"></path></g><g><path class="cls-1" d="M195.27,16.62c-.2-.53-.52-.98-.96-1.35-.93-.95-2.26-1.13-2.79-1.17-.56-.43-1.18-.63-1.91-.63-.42,0-.87.07-1.34.22-13.2,4.06-52.15,15.87-57.56,17.52l-.09-.18c-.02-.13-.02-.2-.03-.25l.53-2.2c.02-.08.03-.17.02-.25.05-.23.07-.47.07-.7v-.35c-.01-.09-.03-.18-.07-.27l-.13-.32c-.12-.29-.3-.68-.52-1.14-.27-.57-.47-.79-.65-.98-.02-.02-.03-.03-.05-.05,0-.01-.05-.09-.12-.41l1.03-2.3c.48-.93-.15-2.53-1.04-4.52-.06-.13-.11-.25-.16-.36.73-1.34,1.63-4.23,1.71-5.4.18-2.43-.42-3.53-1.38-4.42-.27-.29-.56-.52-.86-.78-.2-.16-.41-.34-.61-.53-1.89-1.75-6.48-5.81-8.37-5.81h0c-.66,0-1.57.43-2.68.99-.2.1-.41.2-.56.28-2.03-.46-4.62-.67-6.24-.67-.12,0-.23,0-.33,0h-.21c-1.16.03-2.36.05-3.51.44-1.27.43-2.11,1.78-2.72,2.77-.16.26-.38.61-.48.72-.38.2-1.29.47-2.18.73-2.42.71-4.19,1.28-4.97,2.23-1.54,1.87-2.22,4.77-2.07,6.56.29,3.58-.8,5.27-1.27,5.99-.07.11-.13.2-.17.28-1.46,2.57-1.24,4.68.63,6.27l.04.04c.07.07.13.14.21.21.65.55,1.13.97,1.52,1.34.55.57.8.99.89,1.55.35,1.99,1.12,4.26,2.37,6.95.32.69,1.44,3.06,1.44,3.06.02.03.04.07.06.1.63.94,1.3,1.96,1.73,2.63l-5.97,2.6c-.17.07-.31.21-.39.38-.03.06-2.51,5.22-7.62,9.72-.06-.67-.29-1.21-.67-1.54-.44-.51-1.1-.81-1.79-.81-.08,0-.16,0-.24.01-1.06.11-2.78.45-4.26,1.4-.1-.45-.32-.89-.74-1.27-.13-.15-.26-.28-.42-.4-.68-.51-1.5-.78-2.38-.78-1.07,0-2.06.39-2.71.87-.62-.29-1.45-.43-2.14-.43-1.72,0-2.97.71-3.48,1.94-.16-.02-.32-.02-.48-.02-1.98,0-3.33,1.19-3.82,2.52-.95.18-2.1.69-2.69,1.42-.93,1.14-.84,2.31-.7,2.99-2.08.76-5.22,2-7.9,3.13-.27.11-.74.32-1.33.58-2.06.91-5.9,2.59-8.76,3.63-.19.07-.34.2-.43.38-1.55,3.16,4.88,19.99,10.41,25.15,1.14,1.13,2.91,1.68,3.43,1.83.23.06.47.09.71.09.95,0,1.84-.47,2.68-.95l.07-.04s.03-.02.05-.03l.07-.05c.47-.33,4.77-3.29,9.86-7.1l3.04-1.81h88.91c.35,0,.66-.24.74-.58l.25-.98c1.11-4.12.56-6.66-.13-9.87-.16-.74-.33-1.52-.49-2.37-.44-2.35-.9-4.79-1.14-7.65-.32-3.73-2.1-7.25-5.32-10.46-5.01-5.17-12.79-8.43-17.11-8.48-.55,0-1.03-.14-1.44-.4l2.16-.86c3.83-1.37,18.24-6.58,18.24-6.58l.13-.05s.07-.03.1-.04l.12-.06.12-.06c2.4-1.22,3.15-2.91,3.3-4.27,5.77-2.16,21.32-7.88,28.51-10.5l1.42-.52c1.46-.53,2.05-.75,2.24-.83,1.96-.91,2.39-3.08,1.81-4.67ZM161.78,85.1l.08-.33-.08.33h0Z"></path><path class="cls-2" d="M125.76,39.96c1.19-.22,2.39-.58,3.01-1.28.21-.24.03-.95-.07-1.29-.25.08-.58.08-.89,0-1.03-.33-.59-1.31-.39-2.1.11-.43.36-1.04.36-1.25-.24,0-1.13-.09-1.86-.19-.41-.07-3.29-.12-3.29-.12-.01-.14-.37-.34-.27-.45.72.02,1.72-.4,2.46-.47.9-.09,2.29-.15,3.18-.11.08-.76-.28-1.71-.11-2.43-.75-.03-1.57.26-2.3.07-.35-.09-1.24-.69-1.54-.67.03,0,.05,0,.08,0,0-.03.4-.12.93-.45.67-.41,1.51-.78,3.09-1.26.11-.04.19-.08.25-.12.02-.01.02-.03.02-.04.03-.03.05-.06.04-.1-.47-1.14-2.02-3.95-2.34-6.25-.17-1.21,1.98-1,2.55-.26-1.89-2.41-2.24-6.16-4.73-8.21-.33.05-.65.08-.9.03-.19-.04-.38-.09-.57-.14-1.57-.46-3.6-1.1-5.11-1.45-.36-.05-.73-.12-1.08-.22-.35-.05-.63-.07-.83-.03-3.63.63-2.61,4.21-4.4,7.16-1.41,2.33-3.26,3.37-3.26,3.37l.2,3.19c.33.74.44,1.35-.24,1.49-.86.18-1.9-1.63-2.44-2.09-.84-.71-3.34-.26-3.2,2.51.15,2.76,3.04,5.86,3.43,6.11.38.26,1.25.09,1.25.09.14-.21.3-.89.41-1.41v-.32s.02-.03.02-.05c.01-.02.03-.04.04-.06.03-.08.06-.15.06-.21l.67.04c.02.12.04.28.06.46-.03,1.92-1.39,9.5.71,17.08,5.05,0,10.56-2.7,11.85-4.71-5.03-1.19-7.51-3.96-9.15-6.72,1.03.74,2.25,1.54,3.19,1.96,1.3.57,7.42,1.1,11.1.9ZM122.05,24.14s-.23-.33-1.89-.31c-2.26.03-3.7.41-3.7.41l-.44-.73c.48-.53,1.02-1.03,1.65-1.4.64-.38,1.08-.59,1.87-.61.94-.04,2.11.34,3.09,1.07l-.58,1.56ZM115.23,20.63c.11-.22,1.14-2.12,2.41-2.12.19,0,.37.04.54.13.39.19,5.29,1.28,5.67,1.32h.55l-.38.39-1.21,1.29-.18-.1c-1.08-.6-2.36-1.07-3.28-1.21-.41-.06-.82,0-1.29.17-.54.18-.91.4-1.81,1.03l-.18.13-.93-.88.08-.15ZM121,72.06c-1.61-.12-2.68-.58-4.24-.63,1.13-2.09,1.52-3.59,2.36-5.42,2,.24,4.03.45,6.05.52,2,.09,3.97.17,5.94.48-.52,1.29-1.09,2.59-1.8,3.75-.38.61-.88,1.23-1.36,1.45-.45.16-1.36.18-2.12.15-1.59-.04-3.22-.17-4.84-.31ZM136.67,49.17c-3.66,5.16-10.85,8-8.96,6.84,1.87-1.15,10.74-8.65,5.37-9.62-5.37-.97-5.12-4.78-5.12-4.78,0,0-.87,11.14-14.4,24.59-7.7,7.65-7.86,10.09-9.46,13.79l-4.96-.42c-.51-5.22-.89-8.37-1.81-13.18-.91-4.73,4.05-7.17,5.76-9.81,1.99-3.07,1.14-5.06,1.42-5.11.93-.17,2.6,9.23,2.15,11.73-.1.56.69.53,1.98-.01.12-.42.27-.98.4-1.63,1.07-5.34-.52-9.24-.26-9.31.28-.07,2.25,4.13,2.05,9.46,0,.14-.01.26-.02.37.66-.4,1.38-.86,2.12-1.39.2-1.05.41-2.62.32-4.52-.12-2.65-.75-4.56-.62-4.59.13-.04.82,1.77,1.32,3.81.4,1.66.58,3.06.67,4.01.62-.5,1.24-1.04,1.86-1.63.11-.88.21-2.18.04-3.74-.23-2.18-.85-3.73-.73-3.77.12-.04.78,1.41,1.3,2.93.44,1.29.69,2.38.84,3.13,3.24-3.44,6.03-7.88,6.48-12.89,0,0-8.91,8.68-20.29,6.73-1.89-.32,1.04,1.22-1.99,5.09-1.34,1.7-5.42,2.96-8.91,6.23-3.04,2.84-6.14,6.94-7.78,13.01-.39,1.43-.51,2.68-.54,3.86l-3.5-.3-8.73,7.06h87.1c1.84-6.83-.77-11.84-1.5-20.46-.95-11.23-19.32-18.65-21.58-15.47ZM134.56,80.65c.32-2.39-.28-7.29.41-9.62.35-1.16.73-2.31,1.2-3.44.22-.57.48-1.11.73-1.68.29-.6.63-1.15,1-1.67,1.82-2.58,5.16-5.31,5.16-5.31,2.96-2.36,5.94-4.35,6.03-4.22.08.11-2.21,1.68-5.36,4.84,0,0-2.71,2.76-4.2,5.58-.26.49-.48.99-.64,1.47-.15.53-.32,1.09-.45,1.64-.28,1.1-.57,2.21-.64,3.34-.45,7.82.87,7.44.89,9.7,0,.51-.18,1.08-.39,1.62l-4.13-.35c.16-.5.25-1,.37-1.89ZM130.1,77.55c-.39,1.38-.84,2.73-1.38,4.1-.05.13-.12.27-.18.41l-1.86-.13.49-.13.29-.06.07-.16.12-.3c.44-1.32.79-2.71,1.21-4.07.42-1.36.89-2.71,1.37-4.06.51-1.34,1-2.7,1.78-3.96l.11.05c-.71,2.75-1.23,5.55-2.01,8.3ZM118.3,65.29l.14-.34.41.03c2.14.15,4.25.56,6.37.91,2.12.33,4.26.48,6.41.56h.39s-.09.41-.09.41c-.35,1.52-.82,3.01-1.61,4.44-.42.7-.83,1.44-1.79,2-.54.23-1.01.26-1.45.29-.44.02-.87.03-1.29,0-1.69-.08-3.31-.36-4.93-.65-1.64-.33-3.17-.65-4.83-1.18.6-1.94,1.33-4.25,2.26-6.46ZM115.19,80.67l.06-.15c.82-2.55,1.48-5.42,2.51-8.09l.12.02c-.08,1.43-.27,2.85-.53,4.25-.13.7-.28,1.4-.46,2.1-.18.69-.29,1.13-.63,1.84.08.05.52.4.52.4h-.15s-1.48-.13-1.48-.13c0-.08.02-.17.04-.25ZM193.21,18.49s-31.3,11.48-34.83,12.84c.76,2.64-1.06,3.36-1.81,3.75l-19.11,7.05c-.2-.12-9.46.75-6.39-4l.08-.15c.33-1-.06-1.4-.06-1.94l60.51-20.13s.9-.34,1.53.05c.67.41,1.25,1.77.09,2.51ZM73.33,62.13c1.24,1.58,3.26.3,2.9-1.28,0,0-1.32-3.79-2.44-6.34-.43-1.11-3.85-.83-3.4.99.12.35.3.86.54,1.46.72,1.84,1.25,2.8,1.16,2.85-.09.05-.7-.91-2.02-2.63-.42-.55-.78-1-1.03-1.31-2.84-.47-2.94,1.79-2.94,1.79.53,1.25,4.13,5.52,4.13,5.52,1.51.69,2.87-.17,3.09-1.06ZM189.33,15.19l-58.59,17.82v1.81s58.39-18.98,59.96-19.34c-.21-.59-1.37-.3-1.37-.3ZM82.75,73.19s-1.19-4.65,4.78-11.33c0,0-4.84,1.91-8.89.41,0,0,0,1.88-3.9,1.36,0,0-1.73.87-3.74.31,0,0-5.76,2.31-8.12-1.36-1.97.72-4.78,1.66-8.88,3.38-2.11.89-6.03,2.5-9.32,3.69,2.18,1.32,5.01,3.42,7.46,6.67,4.79,6.34,5.93,14.15,5.7,14.22-.09.03-.41-1.26-1.49-3.65-3.86-8.54-10.44-15.66-11.56-14.98-.07.05-.18.16-.19.5,0,0,6.3,24.46,13.78,20.15,0,0,17.88-12.3,24.36-19.38ZM67.02,63.26c1.4.35,2.06.48,1.61-.53-.79-1.36-3.72-4.02-3.72-4.02-2.11-.59-1.61,1.49-1.61,1.49.21,1.81,3.73,3.06,3.73,3.06ZM78.09,57.6c1.12-4.18.19-4.15.19-4.15-2.5-.24-2.99.76-2.99.76-.16,1.42,1.27,5.42,1.27,5.42,1.06.65,1.53-2.03,1.53-2.03ZM85.01,54.75c-.94-.3-3.51,1.31-3.81,4.87.59.09,2.72-1.25,3.6-2.16.62-.87.94-2.81.21-2.7ZM97.74,30.59c.55,3.17,3.03,7.52,3.35,8.72,0,0,1.24,1.94,1.54,2.64.01.03.02.06.04.09h.71c-.17-.7-.31-1.29-.31-1.29-.7-2.9-1.73-3.91-3.03-6.63-.71-1.5-.75-2.58-1.15-4.09-.26-.99-.66-1.93-.92-2.9-1.09-1.23-2.34-2.47-2.78-4.02-.51-1.8,1.06-3.88,1.6-5.57.87-2.71.89-5.62,2.64-8.02,1.48-2.04,4.21-2.15,6.28-3.4,1.02-.61,1.49-2.06,2.66-2.46,1.58-.55,3.68-.34,5.33-.31.94.01,3.59.62,4.41.18l1.68-.91c.27-.15,3.56,2.51,3.88,2.77,2.8,2.32,1.48,7.24,1.99,6.86,2.07-1.54,1.18-3.96,1.51-3.62.92.97,2.15,1.96,1.74,3.4-.05.16-.11.32-.18.48,0,.05,0,.09,0,.14-.14.98-.99,2.51-.99,2.56.1-.04.22-.09.36-.15,1.14-.87,1.8-2.38,1.9-3.74.15-2.11-1.26-3.46-2.84-4.78-1.73-1.44-4.3-3.11-6.11-4.38-1.17-.8-1.33-.08-3.58.69-.94.32-2.55-.47-3.57-.47-2.58,0-4.19-.59-6.63.24-1.79.61-1.28,2.94-3.88,3.69-1.4.41-5.09,1.29-6,2.39-1.07,1.3-1.33,2.58-1.61,4.15-.36,2.03.45,3.77-.36,5.73-1.02,2.45-3.42,4.8-1.42,6.76,2.16,2.13,3.39,3.12,3.77,5.27ZM100.37,48.53l3.74-2.01c.32-.45-.53-2.52-.66-3.04l-6.96,3.24c-6.11,11.96-16.4,14.74-16.4,14.74,12.68,1.98,20.28-12.93,20.28-12.93Z"></path></g></svg> 