<?xml version="1.0" encoding="UTF-8"?> <svg xmlns="http://www.w3.org/2000/svg" id="Layer_1" data-name="Layer 1" version="1.1" viewBox="0 0 230 109.2"><defs><style> .cls-1 { fill: #1c3766; } .cls-1, .cls-2 { stroke-width: 0px; } .cls-2 { fill: #fff; } </style></defs><rect class="cls-1" x="0" width="230" height="109.2"></rect><path class="cls-2" d="M145.2,78.2h-11.5c-3.6-8.3-3.5-22.8-9.7-23.6v12.2c0,2.5.5,9.9,1.3,11.4h-11.8c.9-1.7,1.4-8.9,1.4-11.4v-24.4c0-2.3-.5-9.7-1.4-11.3h11.8c-.9,1.6-1.3,8.9-1.3,11.3v10.5c6.4-8.9,7.7-14.7,7.5-21.8h11.8c-2.5,2.9-5,13.4-10.4,21.7,5.7,2.8,6.4,16,12.3,25.4ZM101.7,70.9s0,0,0,0c0,0,0,0,0,0-4.3,0-6.5-5.5-6.5-16.3,0-10.9,2.2-16.4,6.5-16.4s0,0,0,0c0,0,0,0,0,0s0,0,0,0c.4,1.6.8,3.7.8,6.3h6.6s1.5-11.9,1.5-11.9c-2.1-1-4.1-2.3-8.6-2.3-10.5,0-15.4,7.6-16.5,19.3-.2,1.7-.8,4.4-1.6,5,.8.5,1.4,3,1.6,4.7,1,11.8,5.9,19.5,16.5,19.5,3.7,0,7-1.2,9.4-2.5l-3.2-9.3c-2.2,3.1-3.9,3.9-6.5,3.9ZM54.6,54.6c-.8.6-1.4,3.2-1.6,4.9-1,12.3-6.1,19.3-15.1,19.3-9.1,0-14.1-7-15.1-19.3-.2-1.7-.8-4.4-1.6-5,.8-.6,1.5-3.4,1.6-5.1h0c1.1-12.2,6.1-19.1,15.1-19.1,9,0,14,6.9,15.1,19.1h0c.2,1.7.8,4.5,1.6,5.1ZM43.5,54.6c0-10.4-1.9-16.4-5.5-16.4s0,0,0,0c0,0,0,0,0,0-3.7,0-5.5,6-5.5,16.4,0,10.4,1.9,16.3,5.5,16.3s0,0,0,0c0,0,0,0,0,0,3.7,0,5.5-6,5.5-16.3ZM175.3,54.6c-.8.6-1.4,3.2-1.6,4.9-1,12.3-6.1,19.3-15.1,19.3-9.1,0-14.1-7-15.1-19.3-.2-1.7-.8-4.4-1.6-5,.8-.6,1.5-3.4,1.6-5.1h0c1.1-12.2,6.1-19.1,15.1-19.1,9,0,14,6.9,15.1,19.1h0c.2,1.7.8,4.5,1.6,5.1ZM164.2,54.6c0-10.4-1.9-16.4-5.5-16.4s0,0,0,0c0,0,0,0,0,0-3.7,0-5.5,6-5.5,16.4,0,10.4,1.9,16.3,5.5,16.3s0,0,0,0c0,0,0,0,0,0,3.7,0,5.5-6,5.5-16.3ZM75.3,52.8c5.4-8.3,7.9-18.8,10.4-21.7h-11.8c.2,7.1-1.1,12.9-7.5,21.8v-10.5c0-2.4.5-9.7,1.3-11.3h-11.8c.9,1.7,1.4,9,1.4,11.3v24.4c0,2.4-.5,9.7-1.4,11.4h11.8c-.9-1.5-1.3-8.9-1.3-11.4v-12.2c6.1.8,6,15.2,9.7,23.6h11.5c-5.9-9.4-6.6-22.5-12.3-25.4ZM189.4,70.9h-2.3v-14.8h1.4c2.3,0,5.3.3,7.9.9l1.1-8.8c-2.7.4-6.1.7-9.1.7h-1.2v-10.7h2.5c5.4,0,8.2,1.1,10.8,2.6l-.7-9.7h-23.1c.9,1.7,1.4,9,1.4,11.3v24.4c0,2.4-.5,9.7-1.4,11.4h23.7s1.4-11,1.4-11c-3.6,2.6-8.9,3.8-12.2,3.8ZM208.9,34.2c0-1.7-1.4-3.1-3.1-3.1s-3.1,1.4-3.1,3.1,1.4,3.1,3.1,3.1,3.1-1.4,3.1-3.1ZM208.4,34.2c0,1.4-1.2,2.6-2.6,2.6s-2.6-1.2-2.6-2.6,1.2-2.6,2.6-2.6,2.6,1.2,2.6,2.6ZM204.8,35.4h.5s0-1,0-1h.5c.1,0,.2,0,.3,0,0,0,.1,0,.1.1,0,0,0,.2,0,.3,0,.2,0,.3,0,.3,0,0,0,.1,0,.2h.5c0,0,0-.1,0-.2,0,0,0-.2,0-.3,0-.2,0-.3,0-.4s-.1-.2-.2-.2c.1,0,.3-.1.3-.3s.1-.3.1-.4c0-.3,0-.5-.3-.6-.2-.1-.4-.2-.8-.2h-1.1s0,1.3,0,1.3v1.3ZM205.3,34v-.8h.5c.2,0,.3,0,.4.1s.1.2.1.3,0,.2-.1.3c0,0-.2.1-.4.1h-.5Z"></path></svg> 