<?xml version="1.0" encoding="UTF-8"?> <svg xmlns="http://www.w3.org/2000/svg" viewBox="0 0 237.5 169.99"><defs><style> .cls-1 { mix-blend-mode: multiply; } .cls-1, .cls-2 { fill: #b1b3b6; } .cls-1, .cls-2, .cls-3, .cls-4, .cls-5, .cls-6, .cls-7 { stroke-width: 0px; } .cls-3 { fill: #f1bf43; } .cls-3, .cls-5 { fill-rule: evenodd; } .cls-4 { fill: #af5d28; } .cls-8 { isolation: isolate; } .cls-5 { fill: #04314d; } .cls-6 { fill: #fff; } .cls-7 { fill: #006c32; } </style></defs><g class="cls-8"><g id="Layer_1" data-name="Layer 1"><g><g><path class="cls-6" d="M37,76.25c-.23,0-.44-.11-.57-.29-2.94-4.02-3.61-6.52.49-9.83.13-.11.53-.47,1.04-.94,2.01-1.83,3.12-2.81,3.56-3.05.3-.16,1.1-1.09,1.65-1.86.7-.76,2.9-3.03,4.1-3.23.35-.15,1.94-1.65,3.21-2.87,2.4-2.28,5.38-5.11,7.34-6.02.26-.12.57-.18.95-.18.71,0,1.54.22,2.2.39.26.07.62.16.73.17.95-.21,2.34-1.27,3.47-2.12.86-.65,1.54-1.17,2.09-1.38.56-.21.83-.54,1.28-1.07.29-.35.63-.75,1.11-1.19,1.09-.99,1.69-1.42,2.6-2.08l.39-.29c.43-.32.81-.52,1.17-.71.63-.34,1.22-.65,2.1-1.61,1.43-1.55,5.18-2.51,6.23-2.76.65-.77,3.15-3.69,3.69-4.22.63-.63,1.81-1.73,2.57-2.02.59-.23,3.93-.9,5.01-1.12,1.52-1.5,4.06-3.85,5.2-3.93.4-.07,1.74-1.34,3.26-3.36.31-.4.81-.56,1.34-.73.3-.09.61-.19.84-.32.43-.24,1.35-.55,2.82-1.02.81-.26,1.64-.53,2.17-.73.6-.23,1.05-.53,1.58-.88.53-.35,1.13-.75,1.96-1.12,1.01-.45,1.43-.93,1.76-1.31.16-.19.31-.34.46-.47.08-.07.19-.16.31-.26.85-.74,1.54-1.31,2.21-1.33.33,0,1.02-.2,1.38-.33.07-.03.15-.04.23-.04.1,0,.2.02.3.06l2.45,1.13c.07.03.14.08.2.14.01.01,1.09,1.06,1.77,1.62.33.28.61.58.85.85.16.18.38.42.47.47.39.03.7.41,1,.77.2.24.43.51.67.65.45.26,1.71.64,2.41.82.65.16,2.27.6,2.82,1.26.38.46,1.66,1.89,2.05,2.33.76.3,2.57,1.08,3.07,1.95.22.39,1.72,1.52,3,2.36,1.54.61,2.34.93,3.9,1.54.26.06,1.52.33,2.28.33.21,0,.28-.02.28-.02.74-.23,2.65-.58,2.73-.6,0,0,0,0,0,0-.01,0,.89-.26,1.84-.26.7,0,1.28.14,1.72.41.82.5,2.86,2.41,4.88,4.32.42.4.76.72.96.9.37.34,1,.96,1.65,1.6.74.73,1.76,1.73,1.98,1.89.22.16.61.53,1.29,1.18.61.59,1.64,1.58,1.9,1.73.16.08.83.19,1.32.26.98.15,1.99.31,2.62.65.98.52,3.11,2.81,3.54,3.28,1.01.7,2.7,1.83,3.13,2.02.6.26,3.81,2.44,4.15,2.85,0,0,0,0,0,0,.03,0,.22.09.57.09.23,0,.49-.04.76-.12.17-.05.34-.08.51-.08.75,0,1.23.49,1.7.97.47.48,1,1.02,1.98,1.34,1.79.57,2.74,2.06,3.43,3.15.28.45.55.87.77,1.05.19.15.34.29.48.41.55.48.78.68,1.61.96.83.28,1.29,1.07,1.78,1.9.44.74.89,1.51,1.57,1.89.72.39,1.21.77,1.61,1.06.55.41.81.6,1.24.64.85.08,2.01,1.27,3.8,3.22.59.64,1.4,1.52,1.64,1.66.68.21,3.31,2.77,4.82,4.27.1.1.17.23.2.38.32,1.75-.94,3.91-1.65,4.62-.13.13-.31.21-.5.21H37Z"></path><path class="cls-4" d="M118.94,12.85c.98.45,1.47.68,2.45,1.13,0,0,1.1,1.07,1.81,1.66.71.59,1.2,1.4,1.6,1.45.4.05.79.96,1.49,1.36.69.4,2.58.89,2.58.89,0,0,1.99.48,2.45,1.03.46.55,2.18,2.47,2.18,2.47,0,0,2.41.91,2.87,1.7.45.79,3.29,2.64,3.29,2.64,1.6.64,2.41.95,4.02,1.58,0,0,1.55.36,2.49.36.2,0,.37-.02.49-.05.71-.22,2.65-.58,2.65-.58,0,0,.84-.25,1.72-.25.48,0,.98.07,1.35.3,1.06.65,4.85,4.34,5.73,5.14.88.8,3.23,3.2,3.69,3.54.46.34,2.7,2.65,3.27,2.96.57.31,3,.41,3.95.92.95.51,3.41,3.19,3.41,3.19,0,0,2.64,1.83,3.31,2.13.67.29,3.75,2.47,3.87,2.63.09.12.47.36,1.13.36.27,0,.59-.04.96-.15.11-.03.21-.05.31-.05,1,0,1.36,1.6,3.47,2.27,2.3.73,3.02,3.3,3.96,4.07.93.77,1.13,1.09,2.32,1.49,1.19.4,1.58,2.84,3.24,3.74,1.65.91,2.03,1.69,3.12,1.79,1.09.1,4.54,4.6,5.23,4.82.69.22,4.6,4.12,4.6,4.12.27,1.47-.86,3.4-1.46,4H37c-2.92-4-3.18-6,.36-8.86.45-.36,3.84-3.56,4.49-3.91.65-.34,1.89-2.07,1.89-2.07,0,0,2.58-2.77,3.64-2.95,1.06-.18,7.53-7.45,10.74-8.95.18-.08.4-.12.65-.12,1.03,0,2.49.56,2.92.56.02,0,.05,0,.06,0,1.95-.41,4.58-3.09,5.76-3.54,1.18-.45,1.42-1.31,2.62-2.4,1.2-1.09,1.79-1.49,2.93-2.32,1.14-.83,1.91-.82,3.38-2.41,1.47-1.59,6.1-2.6,6.1-2.6,0,0,3.21-3.77,3.8-4.35.59-.59,1.7-1.63,2.32-1.86.62-.23,5.11-1.13,5.11-1.13,0,0,3.81-3.8,4.89-3.87,1.08-.07,3.49-3.26,3.78-3.64.29-.39,1.28-.47,1.96-.86.69-.39,3.59-1.2,4.9-1.71,1.31-.51,2-1.31,3.57-2.01,1.58-.7,1.91-1.49,2.38-1.88.47-.39,1.51-1.42,2.08-1.43.57-.01,1.59-.37,1.59-.37M118.94,11.43c-.16,0-.31.03-.46.08-.43.15-.98.28-1.16.29-.9.02-1.71.67-2.66,1.51-.11.1-.21.18-.29.25-.22.18-.38.37-.54.55-.32.36-.65.74-1.52,1.13-.88.39-1.51.81-2.06,1.17-.51.34-.92.61-1.44.81-.51.2-1.33.46-2.13.72-1.51.48-2.46.8-2.96,1.08-.17.09-.44.18-.7.26-.59.18-1.25.39-1.69.97-1.26,1.67-2.42,2.86-2.87,3.1-.5.06-1.79.44-5.37,3.97-1.54.31-4.32.88-4.91,1.11-.68.26-1.62.99-2.82,2.18-.52.52-2.73,3.09-3.58,4.08-1.42.34-4.89,1.32-6.37,2.92-.8.87-1.3,1.13-1.92,1.47-.37.2-.78.42-1.25.76l-.4.29c-.93.67-1.54,1.12-2.66,2.13-.52.47-.89.91-1.18,1.26-.45.53-.62.72-.99.87-.65.25-1.36.79-2.27,1.48-.95.72-2.22,1.69-3.1,1.96-.14-.03-.33-.08-.49-.12-.7-.18-1.58-.41-2.38-.41-.48,0-.89.08-1.25.25-2.06.96-4.97,3.72-7.53,6.15-1.14,1.08-2.55,2.42-3.03,2.72-1.26.34-2.99,1.98-4.26,3.34-.04.04-.08.09-.11.14-.51.71-1.2,1.5-1.43,1.66-.49.26-1.54,1.18-3.69,3.14-.42.38-.9.82-1,.9-4.49,3.63-3.68,6.6-.62,10.8.27.37.69.58,1.14.58h169.46c.38,0,.74-.15,1-.42.83-.83,2.22-3.22,1.85-5.25-.05-.28-.19-.55-.39-.75-3.5-3.49-4.55-4.2-4.98-4.39-.27-.22-.95-.96-1.46-1.51-2.14-2.32-3.19-3.35-4.26-3.44-.22-.02-.36-.11-.87-.5-.41-.31-.93-.7-1.69-1.12-.52-.28-.92-.97-1.3-1.63-.51-.87-1.09-1.86-2.16-2.22-.7-.24-.86-.37-1.38-.82-.15-.13-.31-.26-.5-.42-.13-.11-.42-.56-.62-.88-.71-1.12-1.77-2.8-3.81-3.45-.81-.26-1.24-.69-1.69-1.16-.51-.53-1.15-1.18-2.21-1.18-.23,0-.47.04-.71.1-.21.06-.4.09-.56.09-.12,0-.19-.02-.23-.03-.9-.79-3.68-2.62-4.2-2.85-.32-.14-1.76-1.08-2.95-1.91-.72-.79-2.65-2.83-3.68-3.37-.74-.4-1.81-.56-2.85-.73-.37-.06-.91-.14-1.12-.2-.28-.21-1.22-1.11-1.73-1.6-.72-.69-1.1-1.06-1.36-1.24-.22-.17-1.23-1.16-1.9-1.82-.66-.65-1.28-1.26-1.67-1.62-.19-.18-.53-.5-.95-.89-2.13-2.02-4.12-3.88-4.99-4.41-.56-.34-1.26-.51-2.09-.51-.92,0-1.77.21-2.04.28-.38.07-1.96.37-2.7.59-.03,0-.07,0-.11,0-.53,0-1.51-.18-2.07-.3-1.5-.59-2.3-.9-3.78-1.49-1.24-.82-2.5-1.79-2.73-2.11-.54-.94-2.15-1.72-3.25-2.16-.48-.54-1.58-1.78-1.92-2.18-.63-.75-2.09-1.23-3.21-1.5-.79-.21-1.88-.56-2.2-.74-.13-.07-.32-.31-.47-.49-.28-.34-.65-.79-1.22-.97-.08-.08-.18-.2-.27-.29-.25-.27-.55-.61-.93-.92-.66-.54-1.71-1.57-1.72-1.58-.12-.11-.25-.2-.4-.27l-1.7-.78-.75-.35c-.19-.09-.39-.13-.59-.13h0Z"></path></g><path class="cls-3" d="M174.47,52.73c-.58-.38-1.15-.79-1.74-1.24-1.23-1.56-1.69-3.9-5.24-4.05-.13,0-.25-.02-.38-.03-.6-.52-1.18-1.01-1.78-1.36-1.05-.62-1.16.25-1.46.7-.74-.26-1.39-.58-1.96-.91-1.34-1.17-2.56-2.26-3.73-3.1l-4.74-4.23-4.74,1.33c-1.13-1.48-1.27-3.76-3.89-4.95-1.94.21-5.26-2.42-7.5-3.46-.23-.18-.48-.36-.77-.55-4.09-2.69-4.87-3.99-4.87-3.99,0,0-3.67-2.67-7.77-4.95-2.25-1.12-3.08-.89-3.08-.89,0,0-.39,3.69,1.63,5.45,2.02,1.76,2.97-.72,6.23,1.52,3.27,2.24.97,3.01,3.79,5.64,1.17,1.09-9.22-3.8-6.81-.6,1.5,4.26,8.78,7.45,8.78,7.45,0,0,14.55,6.97,7,6.65,0,.01,0,.02,0,.04-1.64-.41-3.35-.58-4.15.35,0,0,6.02,3.91,6.44,6.36,2.08-.99,4.04,1.67,8.77,3.66,0,0,.2-1.26,2.98-1.29,2.78.21,3.93,1.35,6,2.09.29-.59-.1-1.21-.82-1.82,1.21-2.35-4.33-6.67-4.33-6.67,0,0-.07-.07-.17-.19,1.78.54,3.18-.01,4.26.64,2.29,1.38,3.24.92,4.62.81,1.63.36,3.09.49,3.09.49,0,0-1.04,3.24,5.09,6.01,2.23,1.01,5.34.98,11.69,4.35-.45-2.53-7.49-8.24-10.46-9.31Z"></path><path class="cls-1" d="M115.12,22.59c-1.82-2.09-8.9,5.83-12.79,5.83-3.65,1.98-3.31,5.15-4.95,7.2-1.45,1.51-4.08,2.42-7.01,1.96-3.64.32-6.52,4.37-10.77,8.58-2.12,2.1-1.26-1.79-3.51-.25-2.25,1.54-4.64,3.96-8.01,5.64-3.25,3.19-5.51,4.66-9.51,7.36.5.98,8.22-2.74,9.76-3.43,2-1.72,3-2.94,7.51-3.43,2.35-.26,3.67.62,7.01-1.72,1.58-1.1,3.91-.3,6.71-1.82,3.12-1.69,4.29-2.94,5.81-3.33.25,1.57,1,1.96-2.25,4.41-3.17,2.39-1.11,3.12-3.26,4.41-3.1,1.87-7.82,4.18-6.51,6.13,2.75-1.23,3.71-2.54,7.51-3.19,3.84-.34,4.26.98,4.26.98,6.26-3.19,8.26-6.87,11.27-5.89.25-3.19,7.26-8.83,7.26-8.83-2.75-2.45-10.51,3.31-10.27,2.35.25-.95,8.13-9.93,9.06-11.15.93-1.23,1.22-3.61.39-5.62-.83-2.01-.08-4.27,2.29-6.21Z"></path></g><g><g><path class="cls-3" d="M110.86,68.32l2.08-5.49H0v107.16s98.35-20.63,237.5-24.44v-77.22h-126.64Z"></path><path class="cls-5" d="M237.5,72.01H106.17l2.08-5.49H0v95.52s114.78-17.89,237.5-19.41v-70.62Z"></path></g><g><path class="cls-6" d="M221.75,125.34c-2.13,0-3.86,1.73-3.86,3.86s1.73,3.86,3.86,3.86,3.85-1.73,3.85-3.86-1.73-3.86-3.85-3.86M221.75,132.43c-1.78,0-3.23-1.44-3.23-3.23,0-1.78,1.45-3.22,3.23-3.23,1.78,0,3.22,1.44,3.23,3.23,0,1.78-1.45,3.23-3.23,3.23M222.44,129.28v-.02c.51-.16.92-.56.92-1.16,0-.35-.14-.65-.38-.86-.3-.26-.74-.37-1.41-.37-.44,0-.89.03-1.21.09v4.46h.63v-1.96h.59c.57.02.83.26.97.88.14.57.25.95.33,1.08h.65c-.1-.17-.22-.61-.38-1.24-.12-.47-.34-.79-.71-.91M221.63,129.03h-.64v-1.65c.1-.02.32-.05.62-.05.67,0,1.12.26,1.12.84,0,.52-.43.86-1.1.86M83.29,88c1.99-5.62,3.7-9.45,7.13-12.24l-15.92.27c.73,1.92.96,3.12.52,5.18-.16.75-.61,2.5-2.11,6.91l-12.39,34.36-9.89.84,12.38-35.06c1.92-5.24,3.05-8.65,7.19-12.15l-8.77.13-7.15.14c.7,1.29.89,3.04.45,5.1-.41,2.31-1.48,5.1-2.12,6.98l-13.26,35.82-10.08.86,13.44-36.54c1.61-4.53,3.21-9,7.03-12.18l-15.92.27c.71,1.99,1.01,2.89.52,5.19-.12.6-.47,2.23-2.11,6.91l-13.31,35.29c-2.31,6.33-3.61,9.01-7.21,12.23l60.34-5.1c-.73-1.91-2.21-5.4.09-12.33,2.3-6.94,11.16-30.86,11.16-30.86ZM178.96,120.6c-.44.15-.94.21-1.34.21-1.63.05-1.92-1.23-1.58-2.78.28-1.34.82-2.7,1.22-3.77l7.54-20.64,2.86-7.92-14.62.23s-5.45-.16-10.74,2.53c-1.02-.83-3.17-2.11-6.63-2.12-8.71,0-12.88,5.95-15.67,9.37-1.08,1.33-3.2,3.92-4.93,6.02l-2.02-10.28c-.7-2.65.27-4.88.27-4.88l-9.95.15h.01s-17.77.29-17.77.29c.91,1.81.79,3.46.58,4.45-.42,1.92-1.37,4.43-2.3,6.87l-4.61,12.73c-.78,2.09-1.89,4.95-2.98,6.66-1.08,1.64-2.71,2.78-4.57,2.8-2.12.05-1.97-1.77-1.73-2.88.27-1.26.68-2.41,1.73-5.37l9.28-25.19-13.72.22c.96,1.81.84,3.45.61,4.51-.4,1.85-1.35,4.36-2.28,6.79,0,0-7.25,20.17-7.63,21.39-1.7,5.41-.21,11.44,5.64,11.35,5.2-.06,9.57-4.9,11.34-7.1-.84,6.85,3.86,6.84,5.15,6.87,1.31-.05,3.05-.25,5.92-1.92l4.37-5.82h.09s-1.03,4.95-1.03,4.95c1.17,1.31,2.66,1.61,3.72,1.5,5.28-.55,12.58-8.38,15.51-11.78.21.69.38,1.28.55,1.74,9.34,26.04,26.61,24.15,26.61,24.15,0,0-8.36-3.98-13.76-17.84-2.63-6.76-5.27-17.96-5.27-17.96l5.43-6.74c5.7-6.9,7.97-6.55,9.21-6.57.95-.02,1.92.13,2.89.81-4.57,6.02-7.4,13.09-8.62,19-2.4,11.47,2.19,15.14,7.72,14.99,1.69.02,2.55-.28,3.99-.84,2.38-.93,4.42-2.6,6.02-4.25.34,4.32,3.68,4.93,5.27,4.84,1.7.02,3.56-.38,5.83-1.87l6.15-7.56c-.55.28-1.16.47-1.76.65ZM126.18,112.27c-5.75,6.58-9.92,9.73-15.49,9.69-2.68-.02-3.31-1.59-3.06-2.77.29-1.33,1.3-4.14,1.54-4.86,0,0,7.35-19.82,8.42-22.77.45-1.25,1.55-2.3,2.67-3.1.82,1.77,1.23,3.71,2.09,6.89,0,0,2.4,8.89,4.46,16.19-.21.24-.42.48-.63.72ZM165.96,114.43c-1.26,3.55-1.93,5.32-2.24,6.75-.76.2-1.57.36-2.38.36-2.83,0-4.87-2.19-3.73-7.82,2.08-9.61,8.44-21,13.07-21.1,1.29.03,2.23.9,2.78,1.4l-7.5,20.41ZM213.22,117.31c.22-1.03.88-2.91,1.09-3.56l10.37-28.66-13.82.22c1.02,1.92.91,3.53.67,4.61-.43,2-1.33,4.29-2.28,6.8l-1.49,4.25-8.04.12,5.7-15.7-13.8.22c1.08,1.89.87,3.59.65,4.61-.24,1.11-.72,2.94-2.21,6.81l-6.53,17.83c-1.33,3.52-2.73,7.71-5.1,11.18-.71,1.02-1.38,1.89-2.21,2.72l1.61.02,14.07-.26c-.25-.74-.64-2.28-.08-4.86.49-2.29,2.16-6.98,2.92-8.99l1.97-5.32,7.96-.14-1.66,4.69c-1.24,3.45-1.87,5.25-2.32,7.33-.42,1.92-1.42,8.42,4.52,8.28.89.02,2.86-.13,5.91-1.85l6.17-8.27c-.73.4-2.04.84-2.87.91-1.21,0-1.59-1.24-1.21-3.01Z"></path><path class="cls-2" d="M89,120.81c-.61-.84-.77-2-.44-3.47.27-1.29.68-2.44,1.66-5.22l.12-.33,8.54-23.19-1.21.02-8.24,22.37-.12.33c-.98,2.77-1.38,3.92-1.66,5.22-.34,1.52-.17,2.72.5,3.57.19.24.47.5.86.71ZM41.33,88.08c1.24-3.5,2.52-7.09,4.89-10.13l-1.5.02c-1.99,2.85-3.16,6.12-4.29,9.3l-14.25,38.72,1.24-.1,13.91-37.82ZM81.92,87.49c1.36-3.84,2.73-7.34,4.96-10.19l-1.51.03c-1.88,2.69-3.13,5.89-4.36,9.36-.09.24-8.9,24.03-11.18,30.91-1.87,5.62-1.39,9.2-.72,11.49l-53.01,4.48c-.22.32-.45.63-.69.93l54.61-4.62c-.67-2.29-1.15-5.87.72-11.49,2.28-6.88,11.09-30.67,11.18-30.91ZM61.86,87.11c1.37-3.74,2.45-6.69,4.73-9.47l-1.54.03c-1.86,2.54-2.87,5.27-4.1,8.64l-13.38,37.88,1.23-.1,13.06-36.97ZM212.25,120.69c-.62-.87-.79-2.14-.45-3.7.22-1,.76-2.61,1.05-3.47l.08-.25,9.65-26.67-1.21.02-9.36,25.85-.09.25c-.29.86-.84,2.46-1.05,3.47-.35,1.62-.17,2.93.51,3.8.23.3.52.53.85.69ZM106.88,121.89s0,0,0,0c-.65-.84-.9-1.93-.66-3.01.25-1.14.94-3.14,1.35-4.34.1-.29.18-.52.23-.66.09-.25,7.38-19.9,8.43-22.81.35-.96.99-1.88,1.92-2.75l-1.68.03c-.52.62-.91,1.27-1.15,1.93-1.06,2.91-8.34,22.56-8.43,22.81-.05.15-.13.38-.22.66-.41,1.2-1.11,3.21-1.35,4.34-.24,1.08,0,2.17.66,3.01.21.27.52.55.92.81ZM203.33,86.92l-1.21.02-5.4,14.88,1.21-.02,5.4-14.88ZM174.21,120.43c.19.24.47.49.85.69-.6-.83-.76-1.97-.45-3.4.27-1.27.74-2.54,1.12-3.56l.15-.41,9.67-26.53-1.21.02-9.37,25.72-.15.41c-.38,1.02-.86,2.29-1.13,3.56-.32,1.49-.15,2.68.51,3.51ZM92.92,122.53c-1.96,2.43-5.9,6.51-10.24,6.55h-.1c-1.01,0-1.84-.25-2.54-.69.8.98,1.95,1.49,3.45,1.49h.1c4.34-.05,8.27-4.13,10.23-6.56l2.01-2.49.06-.47c-.7.6-1.48,1.05-2.29,1.32l-.68.84ZM205.86,106.94l-11.06.19-2.31,6.25c-.81,2.15-2.47,6.84-2.98,9.19-.29,1.34-.38,2.59-.28,3.74l-9.32.17c-.09.14-.17.29-.27.43-.09.13-.18.26-.28.39l10.78-.2c-.11-1.15-.02-2.4.28-3.74.51-2.35,2.16-7.04,2.97-9.19l2.31-6.25,9.86-.17.29-.82ZM172.69,125.59c-1.62,1.03-3.12,1.51-4.71,1.51h-.22c-.55.03-1.36-.03-2.09-.45.85,1.14,2.2,1.29,3,1.25h.21c1.58,0,3.09-.48,4.71-1.51l3.36-4.14c-.5-.07-.89-.24-1.2-.44l-3.08,3.79ZM170.68,91.15h.03c1.35.03,2.39.67,3.09,1.23l-.3-.27c-.61-.56-1.89-1.72-3.7-1.76h-.06c-6,.13-12.47,13.05-14.47,22.28-.7,3.44-.36,6.04,1,7.74.32.39.68.73,1.09.99-.06-.07-.13-.13-.18-.2-1.36-1.69-1.7-4.29-1-7.73,2-9.23,8.47-22.15,14.48-22.28h.03ZM209.25,125.75c-2.3,1.25-3.88,1.52-4.81,1.52h-.31c-.68,0-1.22-.12-1.67-.33.04.06.07.14.12.2.5.63,1.3.94,2.46.94h.15s.16,0,.16,0c.93,0,2.51-.27,4.81-1.52l3.6-4.82c-.41-.1-.78-.29-1.09-.56l-3.42,4.58ZM156.02,126.61c-1.28.5-1.96.74-3.3.74h-.48c-1.58,0-2.88-.36-3.9-1.05,1.1,1.23,2.72,1.86,4.82,1.86h.28s.2,0,.2,0c1.35,0,2.03-.24,3.3-.74,1.84-.72,3.69-2.03,5.5-3.91l.63-.65c-.65.12-1.27.17-1.85.15-1.71,1.7-3.44,2.93-5.18,3.6ZM104.14,127.27c-2.44,1.37-3.86,1.54-4.97,1.58-.51-.01-1.43-.03-2.22-.43.05.07.1.15.15.21.84.98,2.28,1.01,2.98,1.02,1.11-.04,2.53-.21,4.97-1.58l3.69-4.92c-.44-.15-.8-.34-1.1-.55l-3.5,4.67ZM131.43,88.09l-1.4.02c-.05.85,0,1.83.27,2.85l2.72,13.62.92-1.05-2.32-11.77c-.36-1.37-.33-2.65-.18-3.66ZM126.68,116.28c-5.8,6.72-11.24,10.94-14.56,11.28-.08,0-.17.01-.26.01-.19,0-.45-.02-.75-.1l-.07.33c.66.49,1.33.57,1.72.57.09,0,.18,0,.26-.01,3.32-.34,8.76-4.56,14.56-11.28l1.23-1.42-.42-1.37-1.72,1.99ZM135.4,108.48l-.16-.71,5.89-7.31c5.41-6.54,8.07-7.1,10.14-7.11h.38c1.38,0,2.5.34,3.55,1.07l.27.19.08-.1-1.26-.88c-1.04-.73-2.17-1.07-3.55-1.07h-.38c-2.07.02-4.73.58-10.14,7.12l-6.29,7.76.17.71c.11.46,2.75,11.48,5.39,18.26,2.96,7.61,7.46,12.69,10.09,14.65.06.08.17.02.11-.05-2.84-2.87-6.26-7.42-8.96-14.35-2.64-6.78-5.22-17.7-5.33-18.16Z"></path></g></g><path class="cls-7" d="M55.53,28.2l4.3,3.45-.74.92-3.48-2.79-.96,1.2,2.03,1.98c.81.79.97,1.46.38,2.19-.11.14-.22.27-.39.44l-.69-.56c.07-.08.12-.13.2-.22.27-.34.19-.58-.19-.96l-2.78-2.75,2.33-2.9ZM65.02,24.8l.74.77-2.49,2.4-3.83-3.97,2.44-2.35.74.77-1.59,1.54.78.81,1.5-1.44.73.75-1.5,1.44.84.87,1.64-1.59ZM66.09,18.04l2.67-2.05.65.84-1.73,1.33,2.71,3.53-.94.72-3.36-4.37ZM78.28,15.08l.55.91-2.95,1.8-2.87-4.71,2.89-1.76.55.91-1.89,1.15.59.96,1.77-1.08.55.89-1.78,1.08.63,1.04,1.95-1.19ZM85.02,6.75l2.29,5.01-1.07.49-.96-2.11-2.06.94.96,2.11-1.07.49-2.29-5.01,1.07-.49.89,1.94,2.06-.94-.89-1.94,1.07-.49ZM96.53,7.47l.66,2.1-1.04.33-.36-1.13-3.11.98.36,1.13-1.04.33-.66-2.1.48-.15c.11-.27.12-.58.04-1l-.66-3.52,3.45-1.08,1.35,4.3.54-.17ZM93,7.65c.07.32.09.62.03.96l1.86-.58-1.06-3.36-1.36.43.52,2.57ZM106.39,6.31v.08s-1.24.23-1.24.23l-.57-.82-2.28.42-.24.96-1.25.23v-.08s1.55-5.86,1.55-5.86l.46-.09,3.56,4.91ZM102.57,5.12l1.36-.25-1-1.56-.37,1.81ZM120.74,3.73c.01.96-.63,1.78-1.93,1.8l-2.4.04-.08-5.51,3.86-.06.02,1.04-2.7.04.02,1.01,1.24-.02c1.31-.02,1.96.71,1.98,1.66ZM119.54,3.76c0-.39-.29-.71-.82-.7l-1.19.02.02,1.44,1.19-.02c.54,0,.81-.36.8-.74ZM130.42,6.28v.08s-1.28-.14-1.28-.14l-.31-.95-2.31-.26-.51.85-1.26-.14v-.08s3.2-5.16,3.2-5.16l.47.05,1.98,5.73ZM127.1,4.03l1.38.15-.5-1.78-.88,1.63ZM142.73,3.4l-1.33,5.35-6.67-1.66,1.33-5.35,1.15.28-1.07,4.31,1.61.4,1.07-4.31,1.15.29-1.07,4.31,1.61.4,1.07-4.31,1.15.28ZM150.37,11.98l-.03.07-1.22-.48-.32-2.58c-.14-.04-.27-.08-.42-.14l-.27-.11-.83,2.1-1.1-.44,2.03-5.12,1.1.44-.81,2.04.24.1c1.13.45,1.67-.25,2.16-1.5l1.1.44c-.47,1.21-1.11,2.05-2.03,2.26l.4,2.94ZM161.21,11.35l-2.65,4.86-1.04-.57.92-1.69.65-1.11-4.28,1.34-.34-.19,2.65-4.86,1.04.57-.89,1.64-.65,1.12,4.24-1.31.35.19ZM168.49,18.57c-.67.94-1.79,1.08-2.77.38l-.95-.68-.97,1.36-.96-.69,3.22-4.48,1.91,1.37c.99.71,1.19,1.81.52,2.74ZM167.51,17.86c.33-.45.25-.92-.2-1.24l-.89-.64-1.05,1.46.89.64c.45.33.93.24,1.25-.22ZM177.12,23.53l-3.78,4.05-.86-.81,1.31-1.4.9-.91-4.48.23-.28-.26,3.77-4.04.86.81-1.27,1.36-.9.92,4.43-.22.29.27ZM184.02,31.37l-4.29,3.49-.75-.92,1.49-1.21,1.02-.78-4.47-.39-.24-.3,4.29-3.49.75.92-1.45,1.18-1.02.79,4.42.39.25.31Z"></path></g></g></svg> 