<?xml version="1.0" encoding="UTF-8"?> <svg xmlns="http://www.w3.org/2000/svg" width="64" height="100" viewBox="0 0 64 100" fill="none"><path d="M53.9923 24.8373C57.5402 24.5617 60.4805 26.9919 61.2032 30.2321C61.4964 31.5479 61.4167 32.8438 60.984 34.1208C60.9331 34.2713 60.9309 34.4418 60.9265 34.6033C60.9077 35.3392 60.9055 36.0763 60.8789 36.8122C60.818 38.5242 60.7406 40.2361 60.6863 41.9492C60.6808 42.1185 60.7516 42.3089 60.8402 42.4582C61.264 43.1676 61.7509 43.8415 62.1294 44.573C62.6407 45.5635 62.8321 46.6557 62.9472 47.7579C63.0789 49.0173 63.0712 50.2777 62.945 51.5371C62.7513 53.4715 62.1338 55.2288 60.7926 56.6841C60.6432 56.8467 60.5049 57.0194 60.3643 57.1898C60.164 57.4322 60.0733 57.7055 60.0611 58.0253C59.9449 61.0907 59.8176 64.1561 59.6981 67.2215C59.614 69.3761 59.5432 71.5307 59.4591 73.6842C59.3584 76.2992 59.2477 78.9131 59.1459 81.5281C59.0817 83.1759 59.0264 84.8248 58.9633 86.4725C58.8792 88.6548 58.7929 90.836 58.7033 93.0183C58.6667 93.9014 58.6546 94.7878 58.5694 95.6665C58.4498 96.9126 58.0846 98.0657 57.0643 98.9034C56.3804 99.4645 55.5659 99.7113 54.7127 99.8463C53.4689 100.042 52.215 99.999 50.9623 99.989C48.7878 99.9702 46.6121 99.968 44.4376 99.9591C41.8481 99.9492 39.2585 99.9403 36.6679 99.9304C32.8887 99.9171 29.1107 99.9038 25.3315 99.8894C20.9359 99.8717 16.5393 99.8529 12.1437 99.8341C9.04729 99.8208 5.9509 99.8042 2.8546 99.792C1.6915 99.7876 0.958895 99.0583 0.958895 97.8953C0.958895 81.3322 0.953394 64.7692 0.964394 48.2061C0.965494 45.9032 1.54979 43.7154 2.48159 41.6172C3.70119 38.8705 5.42419 36.4636 7.47039 34.2802C7.75699 33.9748 7.86649 33.6317 7.90529 33.2388C8.01929 32.0846 8.1354 30.9315 8.2539 29.7773C8.3911 28.4405 8.53159 27.1048 8.66999 25.7679C8.77179 24.7797 8.87139 23.7904 8.97319 22.8021C9.09049 21.6579 9.20999 20.5136 9.32729 19.3694C9.44899 18.1886 9.56969 17.0078 9.69249 15.827C9.81089 14.6827 9.9293 13.5385 10.0477 12.3942C10.1307 11.5974 10.2148 10.8018 10.2956 10.005C10.3321 9.64644 10.2358 9.32662 9.97139 9.07541C9.42799 8.55972 9.26859 7.9389 9.41689 7.21294C9.80539 5.3051 10.1783 3.39393 10.5656 1.48609C10.7626 0.511144 11.3956 0.00319695 12.3949 0.000983679C13.8236 -0.0012296 15.2522 0.000983679 16.6809 0.000983679C18.6906 0.000983679 20.6991 0.000983679 22.7088 0.000983679C23.7999 0.000983679 24.4063 0.481265 24.6343 1.54585C25.0526 3.49464 25.4665 5.44343 25.8704 7.39554C25.98 7.92672 25.9069 8.48115 25.4964 8.83085C24.8601 9.3731 24.8767 10.0149 24.9641 10.7365C25.1301 12.1065 25.2551 13.482 25.3979 14.8543C25.5373 16.1911 25.679 17.5268 25.8173 18.8636C25.9556 20.2004 26.0895 21.5373 26.2268 22.8741C26.2522 23.1275 26.2832 23.3798 26.312 23.6321C26.8387 23.4927 27.3411 23.3555 27.8447 23.2293C28.0129 23.1873 28.1888 23.1485 28.3615 23.1496C28.595 23.1518 28.6636 23.0345 28.7189 22.8309C29.5644 19.7456 31.4667 17.6175 34.5653 16.7499C37.4957 15.9299 40.1106 16.6703 42.3361 18.7474C42.4833 18.8846 42.5807 18.9201 42.7776 18.8393C47.5085 16.8927 52.6854 19.5674 53.9281 24.5927C53.948 24.6713 53.9702 24.7498 53.9934 24.8395L53.9923 24.8373ZM27.7761 34.299C27.8745 34.4185 27.9288 34.4893 27.9885 34.5546C29.5854 36.2898 30.9787 38.1722 32.0809 40.2605C33.4907 42.9319 34.2521 45.7593 34.2488 48.8037C34.2322 64.2513 34.241 79.6988 34.241 95.1464C34.241 95.9642 34.5952 96.3161 35.4174 96.315C41.3622 96.3106 47.3071 96.3061 53.2531 96.2995C53.5009 96.2995 53.7511 96.2796 53.9967 96.2464C54.6043 96.1645 54.8942 95.8967 54.996 95.2814C55.058 94.9018 55.0768 94.5134 55.0923 94.1272C55.1576 92.5159 55.2129 90.9046 55.276 89.2934C55.3612 87.0834 55.452 84.8746 55.5372 82.6657C55.6002 81.0456 55.6567 79.4244 55.7187 77.8043C55.805 75.5578 55.8946 73.3124 55.9809 71.0659C56.0418 69.4823 56.1004 67.8987 56.1613 66.3151C56.2476 64.0687 56.3328 61.8222 56.4247 59.5768C56.4568 58.7856 56.469 57.991 56.5564 57.2053C56.6781 56.1241 57.2303 55.2377 57.9441 54.4398C58.3934 53.9374 58.8139 53.4151 59.0297 52.761C59.5897 51.0657 59.5399 49.3349 59.323 47.5975C59.1869 46.5063 58.68 45.5812 58.0149 44.7235C57.3853 43.9124 57.061 42.9861 57.0942 41.9525C57.1296 40.8481 57.1861 39.7437 57.2292 38.6392C57.2768 37.433 57.3244 36.2268 57.362 35.0205C57.3764 34.5723 57.3244 34.4927 56.8939 34.4274C56.4225 34.3566 55.9433 34.3034 55.4674 34.3034C46.3609 34.2968 37.2544 34.2979 28.1479 34.2979H27.7772L27.7761 34.299ZM4.3873 67.31C4.4459 67.3288 4.4636 67.3399 4.4813 67.3399C5.6798 67.3421 6.8772 67.3465 8.0757 67.3366C8.1487 67.3366 8.2539 67.2325 8.2882 67.1529C8.6578 66.303 8.96869 65.4254 9.38709 64.601C10.3034 62.7927 11.5461 61.2412 13.2459 60.1003C15.2146 58.7789 17.3571 58.3518 19.6622 58.9903C21.5866 59.5226 23.0828 60.7023 24.3289 62.2228C25.5152 63.6692 26.354 65.3081 26.9394 67.0787C27.0103 67.2934 27.1099 67.3532 27.329 67.351C28.3792 67.3388 29.4305 67.3454 30.4807 67.3454H30.7894C30.7894 67.2126 30.7894 67.1042 30.7894 66.9968C30.7894 60.8129 30.7939 54.629 30.7828 48.4452C30.7817 47.7945 30.7252 47.1371 30.6212 46.4942C30.3335 44.7147 29.6662 43.0669 28.7853 41.501C27.6444 39.4725 26.2079 37.6709 24.5646 36.0287C24.247 35.7111 24.05 35.3426 24.0024 34.8911C23.9106 34.0312 23.8099 33.1725 23.7136 32.3126C23.5742 31.0687 23.4336 29.826 23.2964 28.5821C23.1592 27.3482 23.0275 26.1132 22.8902 24.8782C22.7508 23.6255 22.6081 22.3728 22.4675 21.1201C22.3259 19.8485 22.1853 18.577 22.0448 17.3066C21.9076 16.0627 21.7714 14.8189 21.6342 13.575C21.559 12.8922 21.4815 12.2094 21.4018 11.5023C18.8355 12.3732 16.2892 12.33 13.7251 11.5222C13.6697 12.0003 13.6144 12.4462 13.5668 12.8933C13.3931 14.5035 13.226 16.1136 13.05 17.7227C12.8376 19.6704 12.6173 21.618 12.406 23.5657C12.2311 25.1759 12.0651 26.786 11.8914 28.3962C11.6734 30.418 11.4377 32.4376 11.2374 34.4606C11.1676 35.1721 10.9065 35.7354 10.3952 36.2533C8.46739 38.2032 6.85289 40.3855 5.69969 42.8887C4.91509 44.593 4.3961 46.3702 4.3917 48.2581C4.3773 54.5062 4.38619 60.7554 4.38619 67.0035V67.31H4.3873ZM4.39389 77.0927C4.54879 77.0927 4.65729 77.0927 4.76679 77.0927C6.25969 77.0927 7.75259 77.0894 9.24539 77.0938C10.1219 77.096 10.6331 77.5243 10.8943 78.3554C11.171 79.2374 11.4543 80.1249 11.8272 80.9692C12.479 82.4433 13.3931 83.7425 14.7133 84.7064C16.1685 85.7687 17.7422 86.0775 19.4431 85.3537C20.4379 84.9299 21.2369 84.2416 21.923 83.4171C23.147 81.9475 23.884 80.2377 24.3776 78.4096C24.6255 77.4911 25.1411 77.0927 26.0862 77.0927C27.5426 77.0916 28.9978 77.0927 30.4541 77.0927H30.7629V70.496C30.6345 70.496 30.5338 70.496 30.4331 70.496C28.9679 70.496 27.5027 70.4993 26.0375 70.4949C25.1323 70.4916 24.6221 70.0888 24.3886 69.2167C24.0766 68.0503 23.6627 66.9238 23.0739 65.867C22.3757 64.6142 21.5114 63.5021 20.2974 62.7031C19.1642 61.9572 17.9347 61.6485 16.5935 61.9793C15.2511 62.3113 14.2242 63.1336 13.3566 64.1683C12.1293 65.6335 11.3834 67.341 10.902 69.1747C10.6619 70.0899 10.144 70.4949 9.19669 70.496C7.71269 70.4971 6.22979 70.5027 4.74579 70.4905C4.47909 70.4883 4.38389 70.5392 4.38619 70.8347C4.40049 72.8155 4.39389 74.7964 4.39389 76.7773V77.0927ZM30.7761 80.2566C30.7186 80.2455 30.6843 80.2322 30.6489 80.2322C29.5057 80.2311 28.3637 80.2267 27.2205 80.2389C27.1397 80.2389 27.0213 80.3462 26.9859 80.4303C26.7259 81.0478 26.5101 81.6841 26.2301 82.2917C25.3226 84.2593 24.1009 85.9934 22.3303 87.2826C20.4025 88.6869 18.2711 89.2292 15.9151 88.6792C13.9353 88.2166 12.3905 87.0668 11.0935 85.5496C9.81529 84.0545 8.93999 82.3326 8.31249 80.479C8.25049 80.2953 8.17309 80.2223 7.96949 80.2245C6.89159 80.2355 5.8126 80.2411 4.7348 80.2223C4.447 80.2178 4.38619 80.3019 4.38619 80.5775C4.39499 85.3969 4.39169 90.2163 4.39279 95.0368C4.39279 95.8524 4.79559 96.2519 5.61669 96.2519C13.5978 96.2519 21.5778 96.2519 29.5588 96.2519C30.3944 96.2519 30.7872 95.8579 30.7883 95.0158C30.7883 90.1964 30.7883 85.377 30.7883 80.5565C30.7883 80.458 30.7806 80.3595 30.7761 80.2566ZM57.6276 30.7888C57.6188 30.7533 57.6121 30.7179 57.601 30.6858C56.9891 28.8422 54.9529 27.9879 53.1811 28.8311C51.8731 29.453 50.4699 28.4803 50.5617 27.035C50.5883 26.6256 50.5739 26.2028 50.5031 25.7989C49.9022 22.3695 46.0234 20.6973 43.1926 22.7723C42.9315 22.9637 42.5829 23.091 42.2597 23.133C41.5061 23.2293 40.9605 22.8553 40.5533 22.2389C38.5591 19.2166 34.1713 19.4822 32.5567 22.7236C32.414 23.0113 32.3166 23.3223 32.1993 23.6177C32.2834 23.6598 32.3144 23.6786 32.3487 23.693C33.6822 24.2264 34.8132 25.0409 35.725 26.1508C36.3492 26.91 36.254 28.1107 35.5314 28.7216C34.7268 29.401 33.6634 29.2959 32.9518 28.4869C32.7283 28.2324 32.4782 27.9945 32.2115 27.7853C30.6666 26.5691 28.4909 26.4585 26.9195 27.4943C26.7568 27.6016 26.7037 27.7145 26.7303 27.9015C26.7745 28.2114 26.8 28.5235 26.8332 28.8344C26.8952 29.4176 26.9571 30.0019 27.0213 30.6139H27.3865C35.1286 30.6139 42.8706 30.6006 50.6137 30.6216C52.9476 30.6283 55.2882 30.4634 57.6265 30.791L57.6276 30.7888ZM17.5939 3.55108C16.5713 3.55108 15.5488 3.54665 14.5263 3.55218C13.9342 3.5555 13.5502 3.93065 13.4982 4.51496C13.4385 5.20218 13.3698 5.8894 13.2946 6.57441C13.2426 7.04363 13.2116 7.52059 13.6211 7.84705C13.9154 8.08165 14.2496 8.29081 14.5993 8.42471C15.9428 8.93598 17.3405 9.03447 18.757 8.85962C19.6854 8.74453 20.5785 8.49664 21.362 7.95439C21.7194 7.7065 21.9219 7.35791 21.8876 6.9219C21.8235 6.1063 21.7316 5.29182 21.6453 4.47844C21.5789 3.84655 21.2502 3.55329 20.6061 3.55108C19.6024 3.54886 18.5976 3.55108 17.5939 3.55108Z" fill="#163B2C"></path></svg> 