<?xml version="1.0" encoding="UTF-8"?> <svg xmlns="http://www.w3.org/2000/svg" width="60" height="59" viewBox="0 0 60 59" fill="none"><path fill-rule="evenodd" clip-rule="evenodd" d="M59.2911 26.6898C59.0885 26.4366 58.9366 26.234 58.7846 25.9808C58.3288 25.2718 58.3288 24.4109 58.1262 23.6006C57.9743 23.0941 57.873 22.537 57.873 21.98C57.9237 21.4229 58.1769 20.9671 58.2782 20.41C58.3795 19.701 57.9743 18.7894 57.3666 18.3843C56.9108 18.0804 56.4044 17.9285 56.1511 17.4727C55.8473 16.9662 55.5941 16.4598 55.3408 15.9534C55.1889 15.6495 54.9863 15.3456 54.8344 15.0418C54.6318 14.7379 54.4292 14.434 54.3786 14.1302C54.2267 13.5225 54.5812 12.8641 54.4293 12.2564C54.2267 11.6486 53.7202 11.0916 53.1125 10.889C52.5554 10.737 51.9984 10.6864 51.4919 10.3319C50.9348 9.97739 50.5297 9.42031 50.0232 9.01516C49.6181 8.66065 49.2129 8.30615 48.9091 7.901C48.5546 7.39456 48.5039 6.88812 48.352 6.2804C48.1494 5.57138 47.4404 5.11559 46.7314 5.06494C46.225 5.0143 45.6679 5.11559 45.1108 5.06494C44.5537 4.96366 44.0473 4.65979 43.5408 4.40658C43.0344 4.15336 42.4773 3.90014 41.9709 3.64692C41.4644 3.34306 41.1099 2.98855 40.8061 2.43147C40.6541 2.17825 40.5022 1.87439 40.249 1.67181C39.7426 1.26666 38.9829 1.11473 38.3752 1.31731C37.7674 1.51988 37.3117 1.87439 36.6533 1.82374C35.9949 1.7731 35.4885 1.67181 34.8808 1.51988C34.273 1.41859 33.564 1.31731 33.0069 1.06409C32.5005 0.861512 32.1966 0.30443 31.6902 0.152499C31.0318 -0.050076 30.0696 -0.050076 29.5125 0.30443C29.1074 0.557649 28.8035 0.861512 28.3477 1.06409C27.5881 1.36795 26.8284 1.51988 26.1194 1.51988C25.2584 1.57052 24.3468 1.62117 23.4859 1.26666C23.182 1.16537 22.9795 0.912156 22.6756 0.861512C22.3211 0.760224 21.9159 0.861512 21.5614 0.962799C20.8018 1.21602 20.6499 1.7731 20.2447 2.33018C19.8902 2.83662 19.3838 2.98855 18.8773 3.19113C18.219 3.49499 17.6112 3.74821 16.9529 4.05207C16.4464 4.30529 15.8893 4.40658 15.3323 4.35593C14.8258 4.35593 14.2687 4.25464 13.7623 4.50786C13.5091 4.65979 13.2559 4.81173 13.1039 5.0143C12.7494 5.41945 12.7494 5.97653 12.5469 6.48297C12.1417 7.49585 10.9769 8.15421 10.1666 8.86323C9.60951 9.36967 9.10308 9.8761 8.29278 9.8761C7.48247 9.8761 6.92539 10.2813 6.57089 10.9903C6.16574 11.6993 6.57089 12.5096 6.26702 13.2186C5.91252 14.1302 5.2035 14.9405 4.74771 15.7508C4.49449 16.2066 4.19063 16.6117 3.78548 16.8649C3.48162 17.0169 3.12711 17.1182 2.87389 17.3714C2.51938 17.7765 2.26617 18.283 2.16488 18.7894C2.01295 19.3465 2.21552 19.8023 2.36745 20.3594C2.51938 20.8152 2.4181 21.271 2.26617 21.7267C2.11423 22.2332 2.01295 22.7396 1.86102 23.2967C1.75973 23.8031 1.55715 24.2589 1.30393 24.7147C1.10136 25.1199 0.594921 25.4237 0.341702 25.8289C0.189771 26.1328 0.0884836 26.4873 0.0884836 26.8418C0.0378398 27.6521 0.544278 28.0572 0.898784 28.7156C1.25329 29.4246 1.30393 30.2349 1.35458 31.0452C1.40522 32.0074 1.6078 33.0203 1.05072 33.8813C0.797496 34.1851 0.594921 34.4383 0.544278 34.8435C0.493634 35.2486 0.594921 35.6538 0.746853 36.0083C0.84814 36.2109 0.949428 36.4134 1.10136 36.5654C1.30393 36.7679 1.6078 36.9199 1.86102 37.1225C2.11423 37.325 2.36745 37.5782 2.51938 37.8821C2.7726 38.2873 3.02582 38.7431 3.17775 39.1482C3.38033 39.6546 3.48162 40.1611 3.63355 40.6675C3.78548 41.1233 3.78548 41.6297 3.63355 42.1362C3.53226 42.592 3.43097 42.9465 3.5829 43.4023C3.63355 43.6555 3.78548 43.8581 3.88677 44.0606C4.34256 44.7697 4.95029 44.7697 5.6593 45.1242C6.57089 45.5293 7.02668 46.4916 7.63441 47.2512C7.88762 47.6057 8.29278 47.9602 8.44471 48.3147C8.44471 48.3147 8.69792 48.8718 8.59664 49.3782C8.44471 49.8847 9.10308 50.5431 9.40694 50.8469C9.66016 51.1001 9.91338 51.3027 10.2172 51.4546C10.825 51.7079 11.534 51.4546 12.1417 51.8091C12.8507 52.1637 13.4078 52.7207 14.0155 53.1765C14.4207 53.4804 14.8258 53.7843 15.0284 54.1894C15.2816 54.5946 15.3829 55.1516 15.7374 55.4555C15.94 55.6581 16.1932 55.81 16.4464 55.9113C16.8516 56.1139 17.358 56.2152 17.8138 56.2152C18.2696 56.1645 18.7254 55.9619 19.1812 55.9619C19.637 55.9619 20.0421 56.1645 20.4473 56.2658C21.4095 56.5697 22.625 56.8229 23.2833 57.6838C23.7898 58.3422 24.4481 58.8993 25.3091 58.8486C25.5623 58.8486 25.9168 58.798 26.17 58.6461C26.6258 58.4435 26.9803 58.1396 27.4361 57.9877C27.9426 57.8358 28.449 57.8358 28.9554 57.8864C29.5632 57.937 30.1709 57.7851 30.7786 57.8864C31.3357 57.937 31.7915 58.2409 32.2473 58.5448C33.0576 59.1018 34.2224 59.2031 34.982 58.5448C35.4885 58.089 35.7923 57.5319 36.4001 57.228C36.8559 57.0255 37.3623 56.9242 37.8687 56.7722C38.4258 56.6203 38.9829 56.4684 39.54 56.4177C40.249 56.4177 40.958 56.7216 41.667 56.6203C42.2747 56.519 43.0344 56.2152 43.3889 55.6581C43.6928 55.2023 43.7434 54.5946 44.1486 54.24C44.4524 53.9868 44.8069 53.8349 45.1108 53.6323C45.7185 53.2272 46.2756 52.7207 46.9846 52.4169C47.6936 52.113 48.5546 52.3662 49.2636 51.9611C49.7194 51.7079 50.0739 51.3534 50.3271 50.9482C50.631 50.4418 50.5803 49.8847 50.7323 49.3276C50.9348 48.7705 51.4413 48.416 51.8464 47.9602C52.2009 47.6057 52.4541 47.2006 52.8087 46.7954C53.0112 46.5928 53.1632 46.3903 53.4164 46.289C53.9735 45.9345 54.7331 45.9345 55.2396 45.4787C55.6953 45.0735 55.9486 44.4658 55.9992 43.8581C55.9992 43.1997 55.746 42.5413 55.9486 41.883C56.1005 41.3259 56.4044 40.8194 56.6069 40.313C56.8095 39.8066 56.9108 39.3001 57.2653 38.8443C57.6705 38.2873 58.4808 38.1353 58.8859 37.5782C59.1391 37.1731 59.2911 36.7173 59.2911 36.2615C59.2911 35.7551 58.9872 35.3499 58.7846 34.8941C58.4301 34.2358 58.5314 33.5267 58.6327 32.8177C58.734 32.1087 58.734 31.3997 58.8353 30.6907C58.8859 30.1843 59.2911 29.7791 59.6456 29.4246C60.1014 28.9688 60.2533 28.3104 60.1014 27.7027C59.7975 27.3482 59.5443 27.0443 59.2911 26.6898ZM52.9606 29.5259C52.9606 35.7551 50.3778 41.4272 46.225 45.5293C42.0722 49.6315 36.3494 52.1637 30.019 52.1637C23.6885 52.1637 17.9657 49.6315 13.8129 45.5293C9.66016 41.4272 7.07732 35.7551 7.07732 29.5259C7.07732 23.2967 9.66016 17.6246 13.8129 13.5225C17.9657 9.42031 23.6885 6.88812 30.019 6.88812C36.3494 6.88812 42.0722 9.42031 46.225 13.5225C50.3778 17.574 52.9606 23.2461 52.9606 29.5259ZM47.7443 11.9525C52.3022 16.4598 55.0876 22.689 55.0876 29.5259C55.0876 36.3628 52.2516 42.592 47.7443 47.0486C43.1863 51.5559 36.9065 54.3413 30.019 54.3413C23.1314 54.3413 16.8516 51.5559 12.2936 47.0486C7.78634 42.5413 4.95029 36.3628 4.95029 29.5259C4.95029 22.689 7.78634 16.4598 12.2936 11.9525C16.8516 7.4452 23.1314 4.65979 30.019 4.65979C36.9571 4.65979 43.237 7.4452 47.7443 11.9525ZM21.055 44.4152L20.3966 47.3525L19.5863 46.8461L19.6876 46.4409L18.8773 45.9345L18.5735 46.1877L17.8138 45.7319L20.2447 43.8581L21.055 44.4152ZM19.8902 45.8838L19.3838 45.58L20.1941 44.8709L19.8902 45.8838ZM24.752 46.0864L23.6885 48.7199L22.8275 48.3654L23.6378 46.3396L22.8275 46.0358L22.0172 48.0615L21.1563 47.707L22.2198 45.0735L24.752 46.0864ZM25.6129 49.2263L24.7014 49.0237L25.3091 46.2383L26.6765 46.4916C27.4868 46.6435 27.7906 47.0993 27.6893 47.707C27.5374 48.3147 27.1323 48.6186 26.322 48.416L25.8662 48.3147L25.6129 49.2263ZM25.9168 47.6564L26.0687 47.0486L26.322 47.0993C26.5245 47.1499 26.7778 47.2512 26.7271 47.5044C26.6765 47.7576 26.5245 47.8083 26.2713 47.7576L25.9168 47.6564ZM30.6267 46.8461L30.576 47.5044L29.158 47.4538V47.8589L30.3228 47.9096V48.5679L29.158 48.5173V48.9731L30.6267 49.0237V49.6821L28.1451 49.6315L28.2464 46.7954L30.6267 46.8461ZM32.2473 48.9225L32.855 48.8212L32.5005 46.6435L33.4121 46.4916L33.7666 48.6692L34.3743 48.5679L34.0198 46.3903L34.8808 46.2383L35.2353 48.416L35.4885 48.3654L35.6911 49.6821L34.7795 49.834L34.6782 49.1757L31.4876 49.7327L30.9812 46.8967L31.8928 46.7448L32.2473 48.9225ZM37.6155 45.1748L37.8687 45.7825L36.552 46.289L36.7039 46.6435L37.8181 46.2383L38.0713 46.8461L36.9572 47.3019L37.1091 47.707L38.4765 47.1499L38.7297 47.7576L36.5014 48.6186L35.4378 45.9345L37.6155 45.1748ZM39.3881 45.3267L40.1477 44.8709L39.6413 44.01L40.4516 43.5036L41.9709 45.9345L41.1606 46.4409L40.5022 45.428L39.7426 45.8838L40.3503 46.8967L39.54 47.4031L38.0207 44.9722L38.831 44.4658L39.3881 45.3267ZM42.1228 42.0855L44.8069 43.5036L44.0979 44.1113L43.7434 43.9087L43.085 44.5671L43.237 44.9216L42.528 45.5293L41.3632 42.7439L42.1228 42.0855ZM43.237 43.6049L42.7812 44.01L42.3254 43.0478L43.237 43.6049ZM17.358 43.0478L17.4087 43.0984C17.6112 43.301 17.7632 43.3516 17.9657 43.1997C18.067 43.0478 18.0164 42.8958 17.8138 42.7439C17.6619 42.592 17.4593 42.5413 17.3074 42.6933L16.6996 42.1868C17.2061 41.731 17.8138 41.883 18.2696 42.2881C18.8267 42.7439 18.9786 43.3516 18.6241 43.7061C18.4215 43.9087 18.1177 44.01 17.8644 43.9087C18.0164 44.1619 18.067 44.4658 17.8138 44.719C17.4593 45.1242 16.9022 45.0735 16.2438 44.4658C15.6361 43.9087 15.4842 43.3516 15.94 42.7439L16.5477 43.301C16.3958 43.5542 16.3958 43.7061 16.649 43.9594C16.9022 44.1619 17.1048 44.1619 17.2061 44.0606C17.4087 43.8581 17.2061 43.6555 17.0035 43.4529L16.9529 43.4023L17.358 43.0478ZM14.9271 29.1714C14.9271 27.1456 15.3323 25.2212 16.0919 23.4486C16.8516 21.6255 17.9657 20.0049 19.3838 18.5868C20.7511 17.2194 22.4224 16.1053 24.2962 15.3456C26.0687 14.6366 28.0438 14.2315 30.0696 14.2315C32.0953 14.2315 34.0705 14.6366 35.843 15.3456C37.7168 16.1053 39.3374 17.2194 40.7554 18.5868C42.1228 19.9542 43.237 21.5748 44.0473 23.398C44.7563 25.1705 45.1614 27.095 45.1614 29.1207C45.1614 31.1465 44.7563 33.071 43.9966 34.8435C43.237 36.6667 42.1228 38.2873 40.7554 39.6546C39.3374 41.022 37.7168 42.1362 35.843 42.8958C34.0198 43.7061 32.0953 44.0606 30.019 44.0606C27.9932 44.0606 26.0181 43.6555 24.2456 42.9465C22.4224 42.1868 20.7511 41.0727 19.3331 39.7053C17.9657 38.3379 16.8009 36.7173 16.0413 34.8941C15.3323 33.1216 14.9271 31.1971 14.9271 29.1714ZM15.079 35.2993C14.2687 33.4255 13.8636 31.3491 13.8636 29.1714C13.8636 26.9937 14.3194 24.9173 15.079 23.0435C15.8893 21.0684 17.1048 19.3465 18.5735 17.8272C20.0421 16.3585 21.8653 15.1431 23.8404 14.3328C25.7649 13.5731 27.8413 13.1173 30.019 13.1173C32.1966 13.1173 34.273 13.5731 36.1975 14.3328C38.1726 15.1431 39.9451 16.3585 41.4644 17.8272C42.9331 19.2958 44.1486 21.0684 44.9589 22.9928C45.7692 24.8667 46.1743 26.9431 46.1743 29.1207C46.1743 31.2984 45.7185 33.3748 44.9589 35.2486C44.1486 37.2237 42.9331 38.9456 41.4644 40.4143C39.9958 41.883 38.1726 43.0984 36.1975 43.9087C34.273 44.6684 32.1966 45.1242 30.019 45.1242C27.8413 45.1242 25.7649 44.6684 23.8404 43.9087C21.8653 43.0984 20.0928 41.883 18.5735 40.4143C17.1048 38.9963 15.8893 37.2237 15.079 35.2993ZM18.067 26.1328V22.4358C19.1812 22.3851 21.055 22.4864 21.5108 20.1568H25.461V37.8821H20.2447V26.1328H18.067ZM48.5039 39.1988L46.4275 38.5405L48.0988 39.9585L47.5923 40.8194L44.7056 39.2495L45.0095 38.7431L47.5923 40.1611L45.3134 38.186L45.5159 37.8315L48.4026 38.7431L45.8198 37.325L46.1237 36.8186L49.0104 38.4392L48.5039 39.1988ZM49.922 36.0083L48.7571 35.6031C48.4026 35.4512 47.9468 35.2993 47.6936 35.1473L49.6181 36.7679L49.4155 37.3757L46.3262 36.2615L46.5288 35.7044L47.6936 36.1096C48.1494 36.2615 48.5039 36.4134 48.7571 36.5654L46.8327 34.9448L47.0353 34.337L50.1245 35.4512L49.922 36.0083ZM49.4155 32.919L49.2636 33.7293L50.479 33.9825L50.3778 34.5903L47.1366 33.9319L47.2885 33.3242L48.7571 33.628L48.9091 32.8177L47.4404 32.5139L47.5417 31.9061L50.7829 32.5645L50.6816 33.1722L49.4155 32.919ZM47.643 30.8426L47.6936 30.2349L50.479 30.4375L50.5297 29.6778L51.0361 29.7285L50.8842 31.8555L50.3778 31.8049L50.4284 31.0452L47.643 30.8426ZM50.9855 29.0194L50.479 29.0701L50.4284 27.9559L49.6687 28.0066L49.7194 29.0194L49.2129 29.0701L49.1623 28.0572L48.1494 28.1079L48.2507 29.222L47.7443 29.2727L47.643 27.5508L50.9348 27.3482L50.9855 29.0194ZM50.7829 26.3353L47.5417 26.9937L47.4404 26.386L50.1752 25.8289L50.0232 25.1705L48.8078 25.4237C47.7443 25.6263 47.2378 25.5757 47.1366 25.0692C47.0859 24.9173 47.0859 24.816 47.0859 24.7147L47.5417 24.6134C47.5417 24.6641 47.5417 24.7147 47.5417 24.816C47.5923 25.0186 47.6936 25.0692 48.8584 24.816L50.4284 24.5122L50.7829 26.3353ZM48.6559 22.2838C49.0104 22.1825 49.2129 22.2332 49.3142 22.4864C49.4155 22.7396 49.2636 22.9422 48.9091 23.0435L47.643 23.4993C47.3391 23.6006 47.0859 23.5499 46.9846 23.2967C46.8833 23.0435 47.0353 22.8409 47.3391 22.689L48.6559 22.2838ZM49.77 22.3345C49.9726 22.9422 49.8713 23.398 49.061 23.7019L47.9468 24.107C47.1365 24.4109 46.782 24.107 46.5288 23.4993C46.3262 22.8916 46.4275 22.3851 47.1872 22.1319L48.3014 21.7267C49.1117 21.4229 49.5674 21.7267 49.77 22.3345ZM47.1872 19.8529L47.5923 20.5619L48.7065 19.9542L49.0104 20.5113L46.1237 22.0306L45.8198 21.4735L47.1366 20.7645L46.7314 20.0555L45.4147 20.7645L45.1108 20.2581L47.9975 18.7388L48.3014 19.2958L47.1872 19.8529ZM45.6172 17.5233L46.1237 18.1817L47.1366 17.422L47.4911 17.9285L44.8576 19.8529L44.5031 19.3465L45.7185 18.4349L45.2121 17.7765L43.9966 18.7388L43.6421 18.2323L46.2756 16.3079L46.6301 16.8143L45.6172 17.5233ZM45.7185 15.7001L45.364 16.0546L44.6044 15.1937L44.0473 15.7001L44.7563 16.4598L44.4018 16.8143L43.6928 16.1053L42.9331 16.8143L43.7434 17.6246L43.3889 17.9791L42.1735 16.713L44.5031 14.434L45.7185 15.7001ZM39.2361 14.434L41.2112 11.8512L41.7177 12.2057L40.0464 14.434L40.6035 14.8392L42.2747 12.6109L42.7812 12.9654L41.1099 15.1937L41.667 15.5988L43.3383 13.3705L43.8447 13.725L41.8696 16.3585L39.2361 14.434ZM38.4258 12.0031L38.8816 11.1422L39.1348 11.2941C39.4387 11.4461 39.4893 11.6486 39.3374 11.9019C39.1855 12.2057 38.9829 12.2564 38.679 12.1044L38.4258 12.0031ZM37.6155 13.6237L37.0584 13.3705L38.5271 10.4838L39.5906 10.9903C40.0464 11.2435 40.1477 11.7499 39.9451 12.2057C39.6919 12.6615 39.1855 12.9147 38.7297 12.6615L38.2232 12.4083L37.6155 13.6237ZM37.7168 10.1293L37.5649 10.5851L36.5014 10.2306L36.2481 10.9396L37.2104 11.2435L37.0584 11.7499L36.0962 11.3954L35.7417 12.3576L36.8052 12.7122L36.6533 13.1679L34.982 12.6109L36.0456 9.5216L37.7168 10.1293ZM33.6653 10.3319L33.8679 9.47095L34.1717 9.5216C34.425 9.57224 34.5262 9.72417 34.4756 10.028C34.425 10.2813 34.273 10.4332 34.0198 10.3825L33.6653 10.3319ZM33.3614 11.8006L33.564 10.8383L33.9692 10.9396C34.1717 10.9903 34.273 11.1928 34.2224 11.4967C34.1717 11.8512 34.0198 11.9525 33.7666 11.9019L33.3614 11.8006ZM33.3108 8.91387L34.425 9.16709C34.982 9.26838 35.134 9.72417 35.0833 10.0787C35.0327 10.3825 34.7795 10.6864 34.5262 10.6864C34.8301 10.889 34.9314 11.1422 34.8301 11.5473C34.7288 12.1044 34.3743 12.4589 33.9185 12.3576L32.7031 12.1044L33.3108 8.91387ZM30.8799 9.72417C30.8799 9.36967 31.0318 9.16709 31.3357 9.21773C31.5889 9.21773 31.7408 9.47095 31.6902 9.82546L31.6396 11.1422C31.5889 11.4967 31.437 11.6486 31.1838 11.6486C30.8799 11.6486 30.7786 11.4461 30.7786 11.0916L30.8799 9.72417ZM31.3863 8.7113C31.9941 8.76194 32.3992 9.0658 32.3486 9.8761L32.2979 11.0409C32.2473 11.8512 31.7915 12.1044 31.1838 12.0538C30.576 12.0031 30.1202 11.6993 30.1709 10.889L30.2215 9.72417C30.2722 8.91387 30.7786 8.66065 31.3863 8.7113ZM28.9048 9.77482V9.72417C28.8541 9.31902 28.7529 9.16709 28.4996 9.21773C28.2464 9.26838 28.1451 9.36967 28.1451 9.77482L28.2464 11.0409C28.2971 11.4461 28.3984 11.598 28.6516 11.5473C28.9048 11.5473 29.0061 11.3954 28.9554 10.9396V10.737L29.5632 10.6864V10.8383C29.6138 11.3954 29.4112 11.9525 28.6516 12.0031C27.8413 12.0538 27.5881 11.5473 27.5374 10.9903L27.4361 9.82546C27.4361 9.11645 27.7906 8.76194 28.449 8.7113C29.1074 8.66065 29.4619 9.01516 29.5125 9.57224V9.72417L28.9048 9.77482ZM26.6258 8.96452L26.7271 9.47095L25.6129 9.67353L25.7649 10.4332L26.7778 10.2306L26.879 10.737L25.8662 10.9396L26.0687 11.9019L27.1829 11.6993L27.2842 12.1551L25.5623 12.5096L24.9039 9.31902L26.6258 8.96452ZM23.1314 11.1928L23.8911 10.9396L23.4859 9.77482L24.043 9.57224L25.1572 12.6109L24.5494 12.8134L24.043 11.3954L23.2833 11.6486L23.7898 13.0667L23.182 13.2692L22.0679 10.18L22.6756 9.97739L23.1314 11.1928ZM20.4979 13.1679L20.0421 13.4718L19.5357 12.0031L20.4979 13.1679ZM18.928 11.9019L19.637 11.4461L21.9666 13.877L21.3589 14.1808L20.8018 13.5225L20.1941 13.877L20.4473 14.6873L19.8902 15.0418L18.928 11.9019ZM18.3709 15.7001L17.7125 14.8898L18.0164 14.6366C18.219 14.4847 18.3709 14.586 18.6241 14.7885C18.8267 15.0924 18.8267 15.2443 18.6747 15.3963L18.3709 15.7001ZM17.4593 14.5353L16.9022 13.877L17.1554 13.6744C17.358 13.5225 17.5099 13.5225 17.7125 13.7757C17.8644 13.9782 17.9151 14.1808 17.7125 14.3834L17.4593 14.5353ZM16.1426 13.9276L17.0541 13.2186C17.5099 12.8641 17.9151 13.016 18.1683 13.3199C18.3709 13.5731 18.4722 13.9276 18.2696 14.1302C18.5735 14.0289 18.8773 14.1302 19.1305 14.434C19.485 14.8898 19.5357 15.3456 19.1305 15.6495L18.1683 16.4092L16.1426 13.9276ZM14.4207 15.5988L15.3323 16.4092C15.6361 16.6624 15.94 17.0169 16.1426 17.2701L15.0284 14.9911L15.4842 14.4847L17.8644 16.713L17.4593 17.1182L16.5477 16.2572C16.1932 15.9027 15.94 15.7001 15.7374 15.4469L16.8516 17.7259L16.3958 18.2323L14.0155 16.004L14.4207 15.5988ZM13.4584 16.7637L16.1426 18.6375L15.7881 19.1439L13.5091 17.574L13.0026 18.2323L15.2816 19.8023L14.9271 20.3087L12.243 18.4349L13.4584 16.7637ZM12.6988 21.7774L12.4962 22.2838L11.2301 21.4229L12.6988 21.7774ZM10.6224 21.6255L10.9263 20.8658L14.2181 21.4735L13.9649 22.0813L13.1039 21.8787L12.8001 22.537L13.5091 23.0435L13.2559 23.6512L10.6224 21.6255ZM9.40694 25.7782L10.9769 25.3731L9.60951 25.0692L9.76144 24.4615L11.1288 24.7654L9.91337 23.7019L10.0653 23.0435L11.2808 24.1576L13.3065 23.7525L13.1546 24.4109L11.7366 24.6134L11.9898 24.9173L12.952 25.1199L12.7494 25.7782L11.7872 25.525L11.4327 25.677L12.5975 26.4873L12.4456 27.1456L10.825 25.8795L9.25501 26.386L9.40694 25.7782ZM11.0782 28.1079V28.6649L9.55887 28.3104L11.0782 28.1079ZM9.10308 28.6649L9.15372 27.8546L12.4962 27.2976L12.4456 27.9559L11.5846 28.0572L11.534 28.7662L12.3949 29.0194L12.3443 29.6778L9.10308 28.6649ZM9.7108 31.501L9.66016 30.8933L11.9391 30.6907L12.0404 31.6023C11.6353 31.4504 11.2301 31.3997 10.4705 31.4503L9.7108 31.501ZM9.10308 30.3362L11.8885 30.083V29.8804L13.0533 29.7791L13.1039 30.3868L12.4456 30.4375L12.5469 31.7542L13.2052 31.7036L13.2559 32.3113L12.0911 32.4126V32.21C11.5846 32.0581 11.2301 32.0074 10.3185 32.0581L9.30565 32.1594L9.10308 30.3362ZM10.7743 34.6916C10.4198 34.7422 10.2172 34.6916 10.116 34.3877C10.0653 34.1345 10.2172 33.9319 10.5717 33.8306L11.8885 33.5267C12.1923 33.4255 12.4456 33.5267 12.4962 33.78C12.5975 34.0838 12.4456 34.2358 12.0911 34.337L10.7743 34.6916ZM9.66016 34.489C9.50823 33.8812 9.66016 33.4255 10.4705 33.2229L11.6353 32.919C12.4456 32.7164 12.8001 33.0709 12.952 33.6787C13.1039 34.2864 12.952 34.7928 12.1417 34.9954L10.9769 35.2993C10.2172 35.4512 9.81209 35.0967 9.66016 34.489ZM12.1417 37.1225L11.2808 37.477L11.1288 37.2237C11.0275 36.9199 11.1288 36.7173 11.382 36.616C11.6859 36.5147 11.8885 36.5654 12.0404 36.8692L12.1417 37.1225ZM13.8636 36.4134L14.1168 36.9705L11.0782 38.186L10.6224 37.1225C10.4198 36.616 10.7237 36.1602 11.1795 35.9576C11.6859 35.7551 12.243 35.907 12.4456 36.3628L12.6481 36.8692L13.8636 36.4134ZM11.4833 39.0469L14.3194 37.4263L14.6232 37.9328L12.243 39.3508L12.6481 40.0598L15.0284 38.6418L15.3323 39.1988L12.4962 40.8194L11.4833 39.0469ZM35.3872 34.5396C35.2353 34.5396 35.0327 34.5903 34.7288 34.5903H34.6782C34.0198 34.5903 33.4121 34.3877 32.9563 34.0332C32.5005 33.6787 32.2473 33.1216 32.2473 32.4632C32.2473 31.7036 32.4499 31.0958 32.9057 30.7413C33.3108 30.3868 33.9185 30.1843 34.6782 30.1843H34.7288C35.4378 30.1843 35.9949 30.3868 36.4507 30.792C36.8559 31.1971 37.1091 31.7542 37.1091 32.4632C37.1091 33.6787 36.5014 34.3877 35.3872 34.5396ZM33.1082 24.1576C33.5134 23.8031 34.0705 23.6512 34.7288 23.6512C34.7288 23.6512 34.7288 23.6512 34.7795 23.6512C35.3872 23.6512 35.8936 23.8031 36.2988 24.1576C36.7039 24.5122 36.9065 24.9679 36.9065 25.525C36.9065 26.1328 36.7039 26.5885 36.2988 26.8924C35.8936 27.1963 35.3872 27.3482 34.7288 27.3482C34.0705 27.3482 33.5134 27.1963 33.1082 26.8924C32.7031 26.5885 32.5005 26.1328 32.5005 25.525C32.4499 24.9679 32.6524 24.5122 33.1082 24.1576ZM41.5151 30.1843C42.0215 30.8426 42.2747 31.7036 42.2747 32.7164C42.2747 34.4383 41.5657 35.7551 40.1983 36.7679C38.7803 37.7808 36.9572 38.2873 34.7288 38.2873H34.6782C32.4499 38.2873 30.6773 37.8315 29.3606 36.9705C27.8413 35.9576 27.0816 34.5903 27.0816 32.7164C27.0816 31.7542 27.3348 30.8933 27.8413 30.2855C28.2971 29.7285 28.9554 29.222 29.9177 28.7662C29.1074 28.3611 28.6009 27.9053 28.2464 27.4495C27.8413 26.8924 27.6387 26.0821 27.6387 25.1199C27.6387 23.5499 28.3477 22.2838 29.8164 21.4229C31.0825 20.6126 32.7031 20.2581 34.6782 20.2074H34.8808C36.8559 20.2074 38.4765 20.6632 39.7426 21.5748C41.0087 22.4864 41.667 23.6512 41.667 25.0692C41.667 25.9808 41.5151 26.7405 41.1099 27.2976C40.7554 27.9053 40.1477 28.3611 39.3374 28.6649C40.2996 28.9688 41.0087 29.5259 41.5151 30.1843Z" fill="#FAF7F0"></path></svg> 