<?xml version="1.0" encoding="UTF-8"?> <svg xmlns="http://www.w3.org/2000/svg" width="93" height="98" viewBox="0 0 93 98" fill="none"><path d="M91.9782 79.5805L77.9858 57.5397C78.643 53.4785 79.1967 52.5703 81.7885 49.0999C87.4224 41.561 87.4297 38.1866 81.7885 30.6329C78.8792 26.7416 78.5617 26.0623 77.7938 20.9674C76.4056 11.7966 74.2274 9.61102 65.0493 8.22285C59.9618 7.44755 59.2972 7.15219 55.3838 4.22818C47.8375 -1.4057 44.4704 -1.41309 36.9168 4.22818C33.0107 7.14481 32.3535 7.44755 27.2513 8.22285C18.0879 9.61102 15.8949 11.7893 14.5067 20.9674C13.7388 26.0475 13.4435 26.712 10.5121 30.6329C4.87819 38.1718 4.87081 41.5462 10.5121 49.0999C13.1038 52.5703 13.665 53.4859 14.3148 57.5397L0.322351 79.5805C-0.0837592 80.2155 -0.0542291 81.0277 0.388811 81.6332C0.831841 82.2387 1.59976 82.5193 2.32338 82.3199L21.1375 77.3801L24.6669 96.5043C24.7998 97.2427 25.3758 97.8186 26.1142 97.9663C26.823 98.1066 27.5909 97.8038 28.0044 97.1541L40.269 77.8305C44.4335 80.341 47.8596 80.341 52.0315 77.8305L64.2961 97.1541C64.7096 97.8038 65.4775 98.1066 66.1864 97.9663C66.9248 97.826 67.4933 97.2427 67.6336 96.5043L71.1705 77.3801L89.9846 82.3199C90.7156 82.5193 91.4835 82.2387 91.9191 81.6332C92.3622 81.0277 92.3843 80.2155 91.9856 79.5805H91.9782ZM27.4063 91.2765L24.3642 74.7884C24.2682 74.2862 23.9729 73.8506 23.5446 73.5774C23.1163 73.3042 22.5995 73.223 22.1047 73.3559L5.8898 77.6164L15.2673 62.8487C16.9582 69.4351 21.0415 70.5796 27.2513 71.5173C32.5529 72.3221 33.0476 72.6323 37.2638 75.763L27.4137 91.2691L27.4063 91.2765ZM39.095 72.5806C34.7016 69.3095 33.5128 68.7705 27.7903 67.8992C20.244 66.7621 19.2472 65.7579 18.1101 58.219C17.2462 52.4965 16.6998 51.2929 13.4287 46.9143C8.7769 40.6971 8.7769 39.0431 13.4287 32.8185C16.6924 28.4472 17.2388 27.2511 18.1101 21.5138C19.2472 13.9749 20.2514 12.9707 27.7903 11.8336C33.4907 10.9696 34.7016 10.438 39.095 7.15219C45.3196 2.50036 46.9662 2.50036 53.1908 7.15219C57.5768 10.4306 58.7878 10.9623 64.4955 11.8336C72.0418 12.9707 73.0386 13.9749 74.1757 21.5138C75.0396 27.2363 75.586 28.4399 78.8571 32.8185C83.5089 39.0357 83.5089 40.6897 78.8571 46.9143C75.586 51.3003 75.047 52.4965 74.1757 58.219C73.0386 65.7579 72.0344 66.7621 64.4955 67.8992C58.7951 68.7631 57.5842 69.2948 53.1908 72.5806C46.9662 77.225 45.3196 77.2324 39.095 72.5806ZM70.1884 73.3559C69.7011 73.223 69.1768 73.3042 68.7486 73.5774C68.3203 73.8506 68.025 74.2862 67.929 74.7884L64.8868 91.2765L55.0441 75.7704C59.2603 72.6323 59.7477 72.3295 65.0493 71.5247C71.3551 70.5722 75.3645 69.3834 77.0333 62.856L86.4108 77.6238L70.1958 73.3633L70.1884 73.3559Z" fill="#163B2C"></path><path d="M67.0364 34.628C66.4604 34.1333 66.0248 34.089 64.3265 34.3622C64.26 34.281 64.2009 33.8675 64.1714 33.6755C63.9277 31.8664 63.4478 29.762 62.8497 27.9013C62.3919 26.4615 61.2474 24.0026 60.5829 23.028C59.6303 21.625 58.6557 20.5691 58.0945 20.3476C57.8951 20.2664 57.585 20.2073 57.4152 20.2147C57.0534 20.2147 56.9426 20.2516 56.1452 20.6282L55.3182 21.0196L54.8677 20.4067C53.0809 17.9405 50.7328 15.7327 48.429 14.3519C47.4027 13.7465 46.8636 13.4806 46.3172 13.4954C45.9333 13.5102 45.8299 13.5692 45.0177 13.9827C42.7213 15.1715 40.2846 17.2907 38.3279 19.8012C37.9809 20.2516 37.6929 20.6356 37.5969 20.7759L37.4049 21.0565L36.8807 20.7907C36.002 20.3624 35.6697 20.2516 35.2931 20.259C34.5104 20.259 33.8976 20.7464 32.7679 22.1936C30.7373 24.7927 29.2236 28.7431 28.4926 33.3211L28.3154 34.4286L27.9093 34.3696C27.673 34.3327 27.23 34.2884 26.9272 34.281C26.4694 34.2588 26.3439 34.2884 25.9673 34.4656C25.6277 34.628 25.4948 34.7314 25.3102 34.9677C25.0148 35.3516 24.9557 35.551 24.904 36.282C24.7342 38.8663 25.096 42.573 25.7901 45.2903C27.2226 50.9611 30.058 55.0001 34.4661 57.6361C37.0948 59.2089 40.4988 60.3091 43.5778 60.5601C43.9249 60.5897 44.2498 60.6192 44.3605 60.6561C44.3827 60.8703 44.3827 61.5348 44.3753 62.731C44.3753 64.7025 44.3753 64.8428 44.5451 65.2636C44.6928 65.6255 44.774 65.7436 45.0029 65.9282C45.2983 66.1645 45.8004 66.3195 46.1991 66.3195C46.2582 66.3195 46.3099 66.3195 46.3689 66.3121C47.0925 66.2162 47.7423 65.655 47.89 64.9757C47.9122 64.7985 47.9417 63.8016 47.9491 62.7014V62.4282C47.9638 61.3207 47.9638 60.8703 47.9712 60.6783C48.178 60.634 48.5767 60.5823 48.9902 60.5306C53.9448 59.9473 58.2274 57.9979 61.3877 54.9041C61.7347 54.5644 62.0818 54.1952 62.3993 53.826C65.5743 50.1563 67.4868 44.4338 67.6492 38.1206C67.7009 35.8464 67.6271 35.1523 67.0142 34.6354L67.0364 34.628ZM48.5324 54.3577C49.2708 50.8356 50.5334 48.074 52.3942 45.9032C55.7317 41.9971 59.4014 39.4201 63.3075 38.2461C63.7653 38.1058 63.9647 38.0615 64.0385 38.0541C64.1862 38.667 63.8244 41.4581 63.5807 42.7872C63.3075 44.1753 63.1377 44.8325 62.6873 46.1247C61.9489 48.2512 61.1662 49.7132 59.9848 51.1752C59.0839 52.2902 58.1683 53.1467 56.9278 54.018L56.8983 54.0328C56.8097 54.0993 56.6842 54.1731 56.5365 54.2617C55.584 54.8155 53.5387 55.8123 52.756 56.0634C51.8994 56.3439 51.1241 56.5433 50.3267 56.7058C49.7212 56.8239 48.5029 56.9937 48.1558 57.0159C48.1263 56.8165 48.1558 56.2037 48.5324 54.3577ZM44.3014 57.0159C44.1095 57.0233 43.6812 56.9716 43.2603 56.9125C37.9661 56.1446 34.0083 53.7744 31.4904 49.8683C31.0179 49.1447 30.1392 47.2396 29.7995 46.2281C29.0833 44.072 28.655 41.687 28.5074 39.1395C28.4778 38.5931 28.4631 38.2461 28.4631 38.1206C28.6403 38.128 29.0759 38.2313 30.1244 38.6079C33.4915 39.7967 36.7847 42.1448 39.6496 45.3863C41.0747 47.0034 41.6211 47.8599 42.4629 49.7428C43.3711 51.7881 43.8953 53.7374 44.2202 56.248C44.2793 56.7205 44.2941 56.9199 44.2941 57.0159H44.3014ZM59.8223 35.7282C58.1683 36.4666 56.3076 37.5742 54.8382 38.6965C54.4247 39.0066 54.2623 39.1248 54.2032 39.1617C54.0555 38.9476 53.6863 38.1501 53.546 37.8326C52.4458 35.4181 51.3309 33.6164 49.4332 31.1945C49.0271 30.6776 48.8573 30.4561 48.7908 30.3601C48.8868 30.1755 49.3372 29.5848 51.3752 27.8939C52.9701 26.5648 54.7422 25.3391 56.2485 24.5343L56.9574 24.1503L57.0977 24.3054C57.7696 25.1102 58.9215 27.4066 59.4236 28.9351C59.9848 30.6703 60.5312 33.1586 60.7084 34.8569L60.7527 35.2926L59.8076 35.7208L59.8223 35.7282ZM52.025 22.9837C51.294 23.4784 49.9944 24.4678 49.1748 25.1398C48.6875 25.5385 47.8235 26.2916 47.2698 26.8233C46.8563 27.2146 46.5461 27.5026 46.2951 27.6576C45.8594 27.2146 44.1538 25.6714 43.4597 25.0954C42.6401 24.4161 41.215 23.3455 40.676 23.0058C40.5947 22.9541 40.5283 22.9172 40.5209 22.8877C40.5061 22.8212 40.6686 22.5997 40.8975 22.3043L40.9787 22.201C41.9165 20.9457 43.408 19.4246 44.6042 18.4943C45.793 17.5713 46.2286 17.335 46.3837 17.2833L46.5683 17.3941C47.4839 17.9331 48.7908 18.9668 49.8098 19.9784C50.4079 20.5691 51.7222 22.0828 52.0619 22.6145L52.2169 22.8581L52.0176 22.991L52.025 22.9837ZM43.061 31.3865C41.3479 33.5795 40.1886 35.3959 39.1918 37.4634C38.8595 38.1575 38.638 38.6301 38.5568 38.8294L38.387 39.2282L37.907 38.859C36.2826 37.5963 34.2446 36.4075 32.3174 35.5953L31.8227 35.3885L31.9409 34.5394C32.502 30.5004 33.7794 26.8676 35.4482 24.5638L35.7066 24.202L36.0906 24.394C38.3131 25.5237 41.1412 27.6133 43.2899 29.7251C43.5483 29.9836 43.7772 30.2125 43.8584 30.2937C43.7698 30.5152 43.2972 31.1059 43.0683 31.4013L43.061 31.3865ZM41.2888 41.783C41.3257 41.4728 42.0641 39.6933 42.4038 39.0066C42.9502 37.8843 43.5261 36.8949 44.331 35.6913C45.2392 34.34 45.8521 33.513 46.2065 33.166C46.2508 33.1217 46.2877 33.0922 46.3172 33.07C46.7677 33.4835 48.2001 35.551 48.7613 36.4223C49.3668 37.3748 50.6294 39.9001 50.9395 40.7862L51.0429 41.0815C51.225 41.5787 51.1414 42.0094 50.7919 42.3737L50.5999 42.573C48.8425 44.4485 47.5651 46.3536 46.6938 48.3915C46.6052 48.6057 46.3837 49.1078 46.3099 49.2702L46.2434 49.4105L45.7265 48.2512C44.6928 45.9401 43.7034 44.4633 41.7762 42.4106C41.3331 41.938 41.2888 41.8125 41.2888 41.7904V41.783Z" fill="#163B2C"></path></svg> 