<?xml version="1.0" encoding="UTF-8"?> <svg xmlns="http://www.w3.org/2000/svg" id="Layer_1" data-name="Layer 1" viewBox="0 0 208.36 166.05"><defs><style> .cls-1 { fill: #e32726; } .cls-1, .cls-2 { fill-rule: evenodd; } .cls-1, .cls-2, .cls-3 { stroke-width: 0px; } .cls-2, .cls-3 { fill: #4c1f0e; } </style></defs><path class="cls-2" d="M110.92,96.06h0c0,.3-.11.3-.15.3-.27,0-.53.1-.79.28l-.05.12c.21.87.02,1.76-.56,2.63-.61.91-1.14,1.78-1.58,2.62-.22.58-.44,1.11-.66,1.6-.22.49-.44.99-.66,1.47-.23.44-.42.82-.58,1.18-.17.37-.36.72-.57,1.03-.23.35-.35.64-.35.86,0,.18-.1.43-.3.72-.23.18-.38.41-.44.67-.05.23-.18.46-.38.69l-.02.04c-.22.49-.44,1.01-.66,1.54-.22.54-.44,1.05-.64,1.51-.34.43-.57.92-.69,1.47-.1.51-.37.96-.79,1.36-.46.43-.72.91-.78,1.43-.05.47-.24.91-.56,1.31-.45.67-.73,1.29-.84,1.83-.1.51-.43,1.05-.98,1.62-.22.33-.44.73-.66,1.24-.26.29-.31.52-.15.69.06.07,0,.22-.18.42-.55.83-.97,1.65-1.25,2.43-.27.76-.68,1.52-1.23,2.26-.52.85-1.49,1.21-2.96,1.1-1.53-.12-2.91-.19-4.15-.19h-.02c-.97.08-1.88.08-2.68,0-.85-.08-1.8,0-2.8.25-.41.08-1.06.08-1.92,0-1.04-.1-1.42-.24-1.55-.33l-.06-.03c-.55-.17-1.01-.31-1.4-.43-.32-.1-.54-.42-.64-.97-.21-.47-.23-.92-.08-1.34.17-.47.2-.93.08-1.37-.21-.55-.24-1.07-.08-1.54.17-.52.15-1.08-.08-1.66-.22-.96-.19-1.95.08-2.92.28-1,.31-2.02.08-3.02-.1-.3-.1-.57,0-.79.12-.26.18-.56.18-.91s-.11-.85-.34-1.52c-.21-.47-.21-.95,0-1.46.23-.56.23-1.14,0-1.72-.22-1.13-.22-2.24,0-3.29.22-1.07.28-2.2.17-3.36,0-1-.03-2.02-.08-3.03-.05-1.01.03-2.06.24-3.12.12-.43.12-.9,0-1.41-.11-.5-.16-.94-.16-1.33,0-.31.11-.71.32-1.19v-.04c0-.38-.1-.62-.32-.73-.07-.03-.11-.17,0-.51,0-.15.03-.35.08-.59.05-.24.08-.46.08-.64,0-.27-.06-.49-.18-.68-.08-.13-.08-.3.01-.52v-.04s.04-.17.33-.82l.33-.74-.02-.11c-.53-.63-.77-1.1-.72-1.39.06-.33.08-.86.08-1.59.12-.43.09-.87-.09-1.3-.15-.38-.18-.73-.08-1.04.23-.6.32-1.04.25-1.35-.05-.29-.14-.68-.25-1.15,0-.54.1-.64.11-.64l.29-.09h.58c.28,0,.56-.14.81-.43l.02-.12c-.06-.14-.14-.25-.23-.31-.12-.09-.27-.12-.41-.08-.26.06-.55.1-.72-.03-.03-.02-.14-.13-.28-.64v-.8c0-.25.09-.44.28-.58v-.19c-.35-.26-.26-.44-.13-.59.24-.36.25-.83.01-1.39-.21-.51-.26-.97-.16-1.36.11-.59.09-1.15-.09-1.66-.16-.47-.18-.99-.08-1.55.22-1.24.31-2.49.25-3.73-.06-1.26-.08-2.46-.08-3.57,0-.95.05-1.93.16-2.89.11-.96.06-1.94-.16-2.91,0-.34-.03-.65-.08-.94-.05-.28-.08-.58-.08-.91,0-.23.05-.44.15-.63.13-.23.13-.48.01-.75,0-.25-.03-.48-.09-.69-.05-.18-.07-.39-.08-.62.1-.14.22-.27.36-.37.2-.15.3-.33.3-.53l-.11-.13c-.47-.14-.64-.37-.55-.71.11-.41.17-.84.17-1.26,0-.59-.06-1.16-.17-1.69-.11-.52-.11-1.11,0-1.77v-1.6c0-.56.11-1.08.33-1.59.1-.61.39-.95.87-1.06.57-.13,1.18-.27,1.8-.43.66-.08,1.32-.12,1.95-.12h2.15c.19,0,.41.06.65.17.34.15.69.12.96-.08.18-.13.43-.18.76-.15.38.04.75.06,1.1.06,1.23,0,2.74-.04,4.47-.12,1.71-.07,3.06.2,4.01.84.51.3.73.69.68,1.18-.06.54-.03,1.03.08,1.45.11.47.08.93-.08,1.36-.17.46-.26.95-.26,1.47.22,2.2.27,4.42.16,6.59-.11,2.18-.11,4.44,0,6.74.11,1.3.11,2.63,0,3.9-.23.6-.26,1.16-.08,1.67.16.47.19.95.08,1.43-.22,1.08-.25,2.13-.08,3.12.16.98.19,2,.08,3.05-.22,1.08-.14,2.26.25,3.51.38,1.2.3,2.29-.24,3.25-.23.44-.23.93,0,1.45.21.48.32.96.32,1.44,0,.11-.04.37-.24,1.02-.1.32-.06.57.11.76.15.17.42.28.81.33.17,0,.35-.1.73-.63.28-.37.56-.82.84-1.31.28-.49.53-.95.75-1.36.22-.41.33-.7.34-.89.22-.42.36-.86.41-1.31.05-.41.32-.72.83-.95l.08-.16c-.2-.46-.16-.84.14-1.18.34-.38.67-.77.99-1.16.26-.2.32-.45.19-.74-.09-.21-.04-.41.14-.62.45-.5.73-.88.85-1.14v-.04c0-.42.11-.51.12-.52.12-.09.29-.26.52-.52v-.13c-.18-.28-.07-.65.33-1.1l.03-.07c0-.14.05-.33.16-.57.08-.19.19-.28.33-.28.16,0,.27.04.35.13.09.1.2.16.32.17l.26-.07c.18-.09.29-.21.31-.34.02-.17-.1-.35-.36-.55-.4-.3-.51-.47-.52-.55.33-.41.57-.82.73-1.23.16-.39.45-.79.88-1.19v-.16c-.18-.21-.23-.44-.13-.69.11-.27.27-.53.49-.79.22-.41.44-.78.65-1.1.23-.34.3-.73.2-1.15.22-.32.42-.59.62-.81.24-.27.35-.6.36-1.03,1.09-1.56,1.98-3.2,2.64-4.87.65-1.66,1.37-3.3,2.14-4.87.45-.83.87-1.64,1.24-2.41.38-.77.75-1.63,1.08-2.54.32-.88.71-1.75,1.15-2.58.44-.81.99-1.6,1.64-2.32.3-.37.86-.6,1.68-.68.85-.08,1.55-.04,2.06.11h.13c.53-.16,1.07-.24,1.59-.24h1.75c1.06.09,2.13.17,3.19.25,1.09.08,2.2-.03,3.28-.35.48.32,1.01.39,1.6.21.51-.15.94-.15,1.35,0,.58.17,1.08.24,1.5.19.11-.01.44-.05.72.47l.02.03c.31.3.46.65.46,1.03v1.23l.02.06c.1.15.15.31.15.5s.05.37.13.53c-.2.17-.3.29-.3.4l-.11.15-.02.18c.31.31.46.64.46,1.03s-.05.75-.15,1.06c-.23.27-.31.65-.26,1.12.05.44.08.87.08,1.29,0,.66.08,1.42.25,2.24.16.8.13,1.53-.08,2.16-.23.51-.28,1.09-.17,1.73.11.6.16,1.2.16,1.77,0,.41-.05.83-.16,1.27-.11.48-.05.94.18,1.37.21.39.26.75.16,1.1-.11.38-.17.79-.17,1.2,0,.33.03.66.08,1,.05.31.03.62-.08.96-.22,1.81-.22,3.62,0,5.39.22,1.75.16,3.58-.16,5.46-.11.43-.11.88,0,1.35.11.43.05.88-.15,1.34-.14.21-.1.43.1.63.15.15.28.3.38.45,0,.33-.03.61-.08.88-.06.3-.08.57-.08.8-.22,1.16-.25,2.34-.08,3.49.16,1.15.19,2.3.08,3.43-.11.67-.11,1.34,0,2.01.11.64.05,1.29-.17,1.96,0,.23-.08.45-.23.68-.25.38-.08.63.12.77.23.17.28.28.28.34v.55c0,.47.06.61.1.68.01.02.04.12-.09.64-.12.19-.15.42-.09.68.05.23.08.47.08.75.21.64.24,1.22.08,1.73-.17.55-.2,1.16-.09,1.82,0,.65.06,1.26.17,1.81.11.52.05,1.1-.17,1.75-.11.59-.17,1.18-.17,1.75v1.75c.22,1.13.28,2.27.17,3.36-.11,1.11-.11,2.3,0,3.53,0,.65.03,1.34.08,2.11.05.71.08,1.43.09,2.18-.11.32-.21.58-.33.78-.13.24-.07.55.16.9.1.23.15.48.15.76v.78c-.11.5-.22,1.01-.33,1.55-.11.55-.05,1.09.17,1.59.11.41.16.86.16,1.4v1.4c-.1.61-.38,1.04-.83,1.26-.48.24-1.04.4-1.67.47-.66.08-1.34.12-2.04.12h-1.86c-.4-.07-.82-.12-.92.05-.01,0-.14.04-.71-.04-.37-.18-.65-.24-.87-.18-.19.05-.45.16-.77.32-.18.07-.47.06-.87,0-.43-.08-.75-.16-.96-.24h-.08s-.16.06-.16.06c-.03.04-.12.17-.5.17h-.79c-.57-.08-1.28-.1-2.11-.06-.81.04-1.57,0-2.26-.12-.69-.12-1.24-.32-1.66-.59-.4-.26-.6-.7-.6-1.32,0-1.15-.06-2.3-.17-3.4-.11-1.11-.16-2.25-.16-3.39s.05-2.31.16-3.51c.11-1.2.06-2.4-.17-3.55-.22-1.05-.22-2.08,0-3.05.22-.99.28-2.04.17-3.11,0-.69-.03-1.38-.08-2.04-.05-.69-.02-1.37.08-2.03,0-.44-.03-.83-.08-1.19-.05-.35-.02-.74.07-1.12.13-.28.07-.71-.16-1.32-.09-.2-.1-.36-.02-.44.13-.14.2-.35.2-.63,0-.21-.11-.37-.33-.48-.05-.02-.11-.05-.03-.18.22-.24.4-.42.56-.54.17-.13.37-.32.6-.57v-.14c-.02-.05-.13-.21-.32-.22-.08,0-.19.02-.3.13h-.01c0-.18-.03-.36-.09-.56-.05-.2-.08-.38-.08-.53,0-.13.06-.24.2-.34l.15-.28c-.02-.1-.12-.18-.28-.24-.16-.06-.23-.14-.23-.25v-.48c.11-1.16.16-2.34.16-3.52.12.06.31.07.48.07l.18-.13c0-.19-.03-.39-.22-.45-.12-.04-.26,0-.41.11h0l-.02.02c-.01-1.04-.07-2.09-.16-3.14,0-.4.05-.83.16-1.27.12-.48.06-.94-.19-1.39-.17-.2-.15-.38.07-.58.45-.41.24-.68.07-.8l-.13-.04h-.83c-.18,0-.35.12-.66.69-.45.68-.73,1.21-.83,1.61-.21.4-.46.81-.74,1.23-.28.42-.53.84-.75,1.25-.1.23-.31.51-.63.83-.47.47-.27.81,0,1.02.03.07.02.28-.5.91-.48.58-.73.9-.85,1.09-.22.65-.33,1.13-.34,1.47-.21.24-.37.46-.48.67-.11.2-.27.42-.49.67-.12.19-.19.44-.19.74h0ZM47.42,129.93c.54.08,1.17.14,1.87.18.73.04,1.35.06,1.89.06h.02c.85.08,1.63.04,2.32-.12.73-.17,1.57-.21,2.47-.13h.01c.44,0,.98.06,1.59.19.55.11.97.1,1.26-.04.35-.27.99-.33,1.87-.2.79.12,1.42.22,1.86.3.67-.16,1.35-.2,2.02-.12.6.07,1.09-.07,1.48-.44.53-.39.79-.82.79-1.28,0-.49.05-1.06.17-1.74.11-.56.11-1.13,0-1.7l.04-.11.12-.05v-.85c-.22-1.05-.27-2.14-.16-3.22.11-1.07.22-2.14.33-3.21,0-.39-.11-.86-.33-1.37-.23-.56-.23-1.07,0-1.5.21-.47.32-.97.32-1.5v-1.54c-.11-2.4-.16-4.6-.16-6.73v-6.73c.11-1.15.11-2.27,0-3.33-.11-1.07-.11-2.2,0-3.35,0-.65.03-1.3.09-1.92.05-.6.08-1.21.08-1.88-.11-.26-.16-.49-.16-.7,0-.18-.1-.38-.3-.6l-.02-.03c-.12-.28-.09-.58.09-.9.16-.27.23-.52.23-.75.22-1.32.22-2.68,0-4.06-.1-.21-.21-.44-.32-.65-.12-.23-.13-.52,0-.88.11-.25.19-.53.24-.85.04-.25,0-.51-.14-.76-.1.09-.19.24-.26.44-.02.07-.09.29-.34.32-.21.03-.41-.1-.65-.41-.1-.07-.25-.2-.21-.34.01-.04.06-.12.22-.16.1-.02.26-.09.51-.28l.06-.03c.47-.14.72-.31.72-.49v-.99c0-.24-.03-.49-.08-.72-.06-.26-.08-.52-.08-.76,0-.44.09-.78.27-1.05.15-.23.23-.49.23-.8-.33-1.21-.44-2.38-.33-3.47.1-.24.11-.38.03-.47-.13-.15-.19-.32-.19-.5l.03-.07c.2-.23.3-.46.3-.73v-.8c-.11-.73-.11-1.45,0-2.12.11-.65.16-1.29.16-1.96s-.03-1.35-.08-2.03c-.06-.7-.09-1.39-.09-2.05,0-.81-.05-1.43-.16-1.83-.04-.19-.07-.31-.09-.4-.18.17-.45.21-.78.13l-.1-.06c-.15-.23.02-.52.53-.89.18-.13.24-.28.2-.44-.06-.22-.09-.41-.09-.58,0-.27.06-.49.18-.68l.11-.16c.07-.11.15-.22.22-.33.09-.2.09-.42,0-.64-.12-.27-.17-.48-.17-.66-.11-.42-.08-.77.1-1.05.13-.19,0-.48-.39-.84-.4-.3-.18-.53-.07-.61.15-.11.28-.25.38-.4.21-.24.28-.49.23-.79-.06-.33-.09-.69-.09-1.11-.22-.5-.16-.97.15-1.4-.09-.25-.15-.33-.18-.35l-.15-.07c-.08-.09-.08-.23.19-.73.2-.38.2-.78,0-1.2-.25-.51-.46-.92-.66-1.29-.19-.29-.54-.49-1.04-.6-.51-.12-.99-.14-1.39-.06-.37,0-.7.02-1.01.06-.33.04-.67.06-1.02.06-.46-.08-.9-.18-1.39-.32-.37-.1-.67-.02-.95.26l-.22.04c-.41-.15-.96-.21-1.65-.17-.73.04-1.4-.02-1.98-.19-.5-.07-1.06-.07-1.64,0-.6.08-1.19.13-1.77.13-.84,0-1.67.02-2.47.06-.75.04-1.56.07-2.49.07h-1.07c-.4,0-.78-.04-1.13-.13-.5-.07-.91-.07-1.21,0-.35.09-.75.13-1.21.13-1.41-.08-2.77-.1-4.05-.06-1.24.04-2.47,0-3.66-.04-.83-.03-1.69-.05-2.54-.06-.18,0-.39.04-.6.08-.3.06-.61.12-.97.06-1.29-.24-2.54-.18-3.86-.13-1,.04-2.01.08-3.22-.01-.56-.04-1.11-.11-1.64-.19-.49-.07-.86-.06-1.09.04-.12.05-.28.1-.5.14h-.07c-.2-.02-.35-.03-.46-.01-.18.02-.41.05-.67.09-.52.02-.99-.02-1.45-.14-.61-.15-1.16-.15-1.66,0-.28.06-.54.16-.82.31l-.08.02c-.74.07-1.22.42-1.47,1.05-.04.28-.07.57-.07.88-.1.37-.09.71.03,1.03.05.13.08.28.11.42l.02.07c0,.28-.02.53-.08.79-.11.48-.11.92,0,1.31,0,.46-.05.8-.17,1.06-.1.24-.16.51-.16.82,0,.47.06.94.16,1.4.11.45.17.94.17,1.44.11.65.11,1.25,0,1.75-.05.23-.02.46.08.68v.08c-.05.13-.12.31-.21.59,0,.86.11,1.79.33,2.73.22.98.22,1.94,0,2.83-.22,1.03-.27,2.04-.16,2.99.11,1,.16,2.02.16,3.04,0,1.1-.05,2.24-.16,3.4-.11,1.12-.11,2.25,0,3.37.11.65.13,1.27.08,1.84-.05.55-.03,1.16.08,1.79.22.49.19.98-.1,1.41-.25.39-.33.8-.23,1.25.09.21.2.44.3.67l.02.04c.11.26.17.56.17.89,0,.17-.06.39-.17.65-.1.23-.15.45-.15.69,0,.57-.03,1.14-.08,1.7-.05.55.03,1.06.24,1.52.22.68.17,1.36-.17,2.03-.31.62-.31,1.22,0,1.84.22.59.31,1.17.25,1.75-.05.55-.13,1.12-.24,1.7,0,.55.05,1.02.16,1.41.11.42.11.88,0,1.38-.22,1.11-.22,2.2,0,3.23.11,1.23.13,2.41.08,3.54-.05,1.1-.13,2.25-.24,3.51v3.2c0,1.02-.28,2.07-.82,3.13l-.04.05c-.22.16-.43.34-.64.54-.17.16-.17.31,0,.51.15.17.2.32.13.43-.06.11-.2.17-.41.2-.29.04-.52.12-.71.27-1.12.75-2.46,1.17-4.01,1.25-.43.08-.82.12-1.15.12s-.62.04-.93.08c-.25.03-.51.07-.78.08-.21,0-.39-.03-.55-.07-.14-.03-.27-.07-.39-.05-.3.01-.58.04-.88.08-.33.04-.66.07-1.03.09-.47.02-.84.15-1.11.39-.4.35-.58.96-.48,1.65.05.4-.01.7-.09,1.06l-.06.29c-.1.5-.02,1.01.06,1.51.07.45.15.92.09,1.39-.01.12-.07.23-.12.34-.06.12-.12.24-.1.34.02.14.07.19.15.26.06.06.15.13.2.25.21.42.12.56-.15.68-.11.05-.22.1-.29.28-.09.21,0,.56.07.86.05.2.1.39.1.56,0,.44-.07.88-.14,1.31-.03.18-.06.36-.09.55.2.12.4.38.4.38.1.18.03.41-.03.61l-.05.18c-.02.1-.05.2-.08.31-.13.43-.19.76.13.94.29.16,1.47.09,2.25.05.43-.03.81-.05,1.03-.04h.2c1.54.08,3.13.14,4.57-.22.68-.17,1.38-.17,2.06,0,.8.07,1.6.03,2.32-.12.74-.16,1.53-.31,2.44-.48.49-.08,1.15-.19,2.05-.35.36-.33.88-.5,1.56-.5.45-.09.67-.19.77-.26.17-.13.44-.24.8-.34.42-.16.82-.26,1.16-.31.3-.04.6-.13.9-.28.52-.39,1.05-.74,1.53-1.02.48-.28.99-.62,1.52-1.02.53-.32,1.02-.64,1.46-.97.45-.34.95-.66,1.47-.98.51-.31.91-.68,1.16-1.1.27-.45.63-.89,1.08-1.3.85-.88,1.53-1.82,2-2.81.48-.99,1.05-2.02,1.7-3.08.22-1.36.43-2.69.65-3.98.21-1.27.21-2.6,0-3.96-.12-.45-.08-.74.13-.9.09-.06.19-.22.19-.57,0-.22-.05-.45-.15-.69-.11-.24-.17-.49-.17-.74-.22-.5-.22-1.05,0-1.63.21-.54.26-1.09.16-1.64,0-.65-.03-1.28-.08-1.89-.06-.61-.03-1.25.08-1.9.2-.54.11-.93-.27-1.22l-.02-.17c.19-.22.29-.64.29-1.26-.11-.96-.08-1.95.08-2.92.16-.94.08-1.91-.24-2.86-.12-.51-.09-1.03.08-1.58.16-.51.24-1.01.24-1.48-.11-.39-.19-.85-.24-1.32-.06-.49-.03-.95.08-1.37.21-.4.24-.82.09-1.27-.17-.51-.2-.96-.09-1.39v-2.31s-.23.15-.23.15h0c-.1.04-.3.11-.44.02-.06-.04-.11-.11-.05-.24l-.22-.07v-.13c.07-.11.17-.18.3-.21.14-.03.29,0,.45.1l.2.17v-.6c0-.51.03-1.01.08-1.53.05-.5.03-.98-.07-1.44-.11-.11-.17-.29-.17-.54v-1.69l.04-.08c.29-.29.39-.68.29-1.17-.11-.53-.16-1.01-.16-1.41-.11-1.12-.11-2.31,0-3.52,0-.54-.03-1.07-.08-1.55-.06-.48-.08-1-.08-1.58,0-.47-.03-1-.08-1.63-.06-.63.03-1.14.25-1.57.2-.38.23-.82.08-1.31-.17-.53-.25-1.01-.25-1.43.05-.28.09-.54.12-.79l.03-.23.18-.12h.33c.22,0,.44,0,.66,0,1.26.04,2.56.02,3.87-.06h0c.57,0,1.12.04,1.7.12.53.08,1.06.08,1.58,0,.65-.11,1,.1,1.18.31.23.25.4.52.52.77.34.67.45,1.35.34,2.03-.11.65-.11,1.3,0,1.94,0,.34.05.66.16.97.12.37.06.7-.19.97-.31.24-.38.72-.22,1.45.17.8.25,1.4.25,1.81,0,.6-.03,1.13-.08,1.62-.05.49-.08,1.03-.08,1.6,0,.4.05.81.16,1.21.11.42.17.85.17,1.26-.11.49-.19,1.01-.25,1.56-.05.53-.08,1.05-.08,1.53,0,.39.11.9.32,1.51.22.61.12,1.22.04,1.81-.02.13-.04.26-.06.39-.04.31.01.6.07.9.05.27.1.55.08.85-.01.18-.09.42-.16.64-.05.17-.1.33-.13.47-.02.1-.06.23-.11.36-.1.27-.23.64-.08.78.06.06.18.09.36.07l.16.06v.13c-.53.75-.35,1.68-.18,2.59.11.59.23,1.21.13,1.76-.03.2-.09.37-.13.51-.08.26-.15.48-.08.77l.08.22c.09.2.18.42.04.58l-.27.15c-.01.34-.06.69-.1,1.02-.04.33-.08.66-.1.99-.03.7.07,1.4.16,2.07.12.84.24,1.7.12,2.61v3.32c0,1.07-.11,2.2-.33,3.35,0,.3.11.77.33,1.43,0,.39-.03.62-.09.75l-.03.08c-.05.12-.12.27-.2.46,0,.47.06.97.16,1.5.11.53.17,1.1.17,1.69-.11.51-.14.99-.08,1.47.06.51.14,1.05.25,1.6,0,.51-.16,1.01-.48,1.51.21.4.31.77.31,1.11v.99c-.11.5-.08.95.08,1.38.17.47.2,1.01.09,1.6-.11.25-.1.67,0,1.26.12.68.05,1.08-.22,1.28l-.04.02s-.21.16-.07,1.41c.11.94.17,1.54.17,1.8v4.2c0,.48.11.96.32,1.44.2.45.7.75,1.53.9h0ZM182.88,130.01c.07,0,.24,0,.61-.06.37,0,.75.07,1.18.23.6-.15,1.13-.27,1.56-.35.64-.16,1.61-.28,2.85-.36,1.18-.08,1.98-.3,2.37-.67.36-.27.79-.44,1.31-.53.47-.08.92-.2,1.33-.35.85-.24,1.59-.59,2.21-1.06.66-.41,1.29-.76,1.89-1.04.57-.27,1.13-.65,1.65-1.12.43-.41.96-.8,1.56-1.16.56-.34.95-.75,1.15-1.21.22-.56.75-.98,1.58-1.24-.07-.31,0-.56.24-.74.2-.15.4-.33.61-.57.33-.73.68-1.46,1.04-2.16.37-.71.67-1.47.88-2.27.11-.32.19-.66.24-1.01.06-.38.2-.71.43-.96.09-.15.2-.33.3-.52.08-.15.04-.27-.12-.4-.28-.31-.28-.62-.03-.94.2-.26.3-.54.3-.84-.11-.38-.16-.8-.16-1.21v-1.2c.11-.82.16-1.61.16-2.35v-2.35c0-.23-.03-.76-.08-1.74-.05-.9-.08-1.87-.08-2.9s-.05-1.89-.16-2.7c-.11-.8-.25-1.02-.3-1.07-.17.05-.37.09-.51,0-.17-.12-.09-.33,0-.52-.03-.05-.2-.09-.54-.09-.52,0-.89-.04-1.13-.13-.47-.14-.88-.11-1.26.11h-.23c-.19-.15-.45-.24-.79-.28-.38-.04-.72-.06-1.02-.06-1.46,0-3.01.04-4.59.12-1.56.08-3.12.08-4.62,0-.85-.08-1.53-.08-2.05,0-.49.07-1.12.18-2,.34-.18.35-.13.43-.13.44l.15.15c0,.13-.17.22-.73.39-.24.12-.37.27-.37.42,0,.21-.05.43-.16.68,0,.24-.03.48-.08.73-.05.21-.02.44.07.66.23.43.33.73.07.82h0s-.06.09-.06.54c0,.16.03.35.08.58.05.24.08.44.08.6.11.28.07.51-.12.71-.14.14-.2.27-.2.4,0,.47.05.95.16,1.42.11.49.16.99.16,1.47,0,.35-.06.59-.19.74-.08.09-.07.23.02.43v.04c0,.25-.02.49-.07.75-.05.23-.08.46-.08.7,0,.21.07.39.2.52.21.21.19.49-.06.87-.19.21-.24.37-.16.48.12.18.18.41.18.66.11.48.02.99-.26,1.5-.27.48-.51.92-.73,1.32-.21.31-.4.62-.57.91-.16.27-.35.58-.57.91l-.08.06c-.85.32-1.5.6-1.91.83-.88.33-1.52.61-1.94.84h-.23c-.25-.2-.42-.17-.48-.16-1.05.2-2.12.28-3.34.25-.69-.02-1.43-.03-2.06-.14-.3-.05-.58-.14-.85-.23-.23-.07-.46-.14-.68-.19-1.21-.24-2.38-.79-3.47-1.6-1.1-.74-1.67-1.71-1.67-2.87-.11-.46-.24-.94-.4-1.42-.17-.48-.25-1.02-.25-1.6v-1.69c0-.47-.1-1.02-.32-1.66v-.07c.21-.46.26-.96.16-1.51-.11-.58-.05-1.09.17-1.52.2-.22.22-.42.08-.61-.18-.27-.21-.59-.09-.94,0-.16.07-.32.21-.42.03-.02.06-.12-.04-.34-.22-.58-.28-1.17-.17-1.75.1-.56.16-1.08.16-1.55s-.08-.9-.23-1.29c-.17-.43-.15-.9.08-1.41.2-.46.25-.92.15-1.38-.11-.48-.16-.98-.16-1.47v-3.25c0-1.05.05-2.15.16-3.26.11-.49.13-.93.08-1.36-.05-.42-.08-.9-.08-1.4,0-.63-.03-1.21-.08-1.74-.05-.51-.08-1.09-.08-1.76,0-.63-.03-1.23-.08-1.8-.05-.55.02-1.15.22-1.78-.23-.2-.41-.53-.13-1,.19-.33.19-.67,0-1.04-.11-.3-.1-.48,0-.58l.24-.09s.06-.06.06-.31c-.22-.26-.32-.63-.32-1.12-.11-.47-.14-.97-.08-1.46.05-.48.08-.97.08-1.43.11-.49.08-1.02-.08-1.6-.17-.63-.14-1.15.09-1.58.09-.2.09-.36,0-.49-.12-.18-.18-.36-.18-.54v-.04c.22-.47.32-.9.32-1.28-.11-.3-.16-.82-.16-1.57l.1-.12c.22-.08.48-.25.23-.8v-.1s.11-.07.11-.07c.3-.07.36-.49.36-.83-.08.02-.32.09-.49,0-.07-.03-.15-.11-.15-.25l.11-.12c.5-.15.97-.4,1.38-.75.42-.36.86-.7,1.3-1.03.56-.42.98-.66,1.27-.75.27-.08.67-.2,1.21-.36.15-.06.32-.12.49-.18l.14-.05c.17-.06.33-.1.49-.12-.18-.51-.21-.88-.1-1.13.28-.49.21-.62.19-.64l-.1-.02c-.28,0-.75-.09-.75-.74l.05-.1c.22-.17.42-.25.62-.21.16.02.3.1.39.25.07.11.13.14.15.14l.12-.06c.64-.48,1.01-.4,1.22-.24l.04.14c-.22.4-.43.86-.64,1.37-.2.49-.26.89-.18,1.23.22,0,.79-.04,1.19-.08.85-.07,1.23-.1,1.39-.06.58.15,1.08.14,1.66.12.17,0,.34,0,.52,0,.14,0,.14-.02.14-.04,0-.18.14-.32.42-.42.26-.1.49-.11.66-.05.18.07.28.23.32.45.06.42.3.42.39.42l.13.04.11.04s.15-.03.34-.26c.07-.08.23-.28.46-.23.2.04.28.23.28.66,0,.31.03.43.05.47.11.02.3.07.67.26.36.18.57.34.63.49.03.08.13.23.38.51.76.82,1.31,1.68,1.64,2.57.32.89.51,1.81.57,2.74.05.92.05,1.88,0,2.84-.05.93-.08,1.9-.08,2.89v1.75c0,.36.03.68.08.95.04.21.09.29.11.31.59.07.85.16.92.32.04.11-.02.22-.2.33-.34.21-.6.38-.79.53l-.05.02c-.13.05-.51.19-.23.87.21.51.42.88.62,1.11l.02.03c.2.44.44.72.72.83.31.12.84.21,1.56.29,2.76.16,5.55.16,8.27,0,2.69-.16,5.45-.2,8.21-.12.23-.38.59-.7,1.07-.94.42-.21.58-.56.49-1.07-.21-.38-.33-.82-.33-1.28v-1.26c0-.65.08-1.25.25-1.78.16-.51.24-1.09.24-1.72,0-.38-.08-.78-.24-1.17-.16-.41-.25-.83-.25-1.24.32-3.43-.06-6.7-1.12-9.72-.32-.79-.8-1.61-1.43-2.44-.65-.85-.98-1.7-.99-2.51-.2-.36-.5-.64-.89-.82-.47-.22-.77-.55-.89-.99-.19-.35-.49-.63-.89-.82-.44-.2-.88-.47-1.32-.8-.86-.72-1.77-1.36-2.73-1.92-.96-.56-2.04-1.12-3.21-1.68-.76-.32-1.49-.6-2.16-.83-.69-.24-1.42-.48-2.17-.72-.47-.09-.73-.08-.86-.06-.26.05-.62-.01-1.09-.19-1.04-.31-2.08-.49-3.08-.53-1.01-.04-2.08-.1-3.15-.18-.64-.08-1.31-.1-1.98-.06-.35.02-.66-.02-.96-.06-.22-.03-.43-.05-.65-.06l-.33.04c-.16.03-.33.06-.52.03l-.33-.08-.29-.07c-.3-.02-.58.02-.88.07-.18.03-.37.06-.57.07h-.39c-.25,0-.5,0-.69.09-.18.09-.49.17-.94.26h-.11c-.64-.2-.89-.17-.98-.13h-.06c-1.17.09-2.27.23-3.28.43-1.02.2-2.12.42-3.31.66-.73.16-1.43.34-2.08.54-.64.2-1.36.39-2.12.55-.48.15-.84.33-1.03.55-.23.26-.63.51-1.19.76-.34.17-.65.26-.9.26-.17,0-.34.07-.52.2-.21.16-.45.32-.74.49-.26.16-.5.32-.71.47-1.08.57-1.88,1.12-2.4,1.67-.43.33-.78.68-1.03,1.07-.27.41-.68.7-1.21.88-.14.55-.61,1.14-1.41,1.75.18.42.04.78-.42,1.04-.39.22-.64.52-.74.88-.22.41-.41.81-.57,1.22-.15.39-.35.8-.57,1.22-.21.46-.37.92-.48,1.36-.11.44-.22.87-.32,1.27-.11.24-.16.53-.16.88,0,.32.13.54.4.67l.08.12-.11.11c-.47.14-.7.43-.7.9,0,.53-.06.96-.17,1.3,0,.33.08.49.14.56.13.14.19.35.19.62-.11.34-.16.78-.16,1.33.11.95.11,1.94,0,2.9-.11.95-.11,1.92,0,2.87v2.42c0,.72.05,1.49.16,2.28,0,.46-.05.81-.14,1.06.2.18.27.4.22.66-.05.23-.08.42-.08.58,0,.08-.03.27-.08.62-.04.25.01.31.03.32h.52s.15.07.15.07v.13s-.56.84-.56.84c-.16.23-.29.51-.39.81-.09.33-.03.55.16.64.31.14.53.39.65.74l-.03.12-.14.05c-.12,0-.48,0-.55.66-.05.51-.03,1.09.08,1.72.11.64.19,1.25.24,1.81.06.6-.03,1.02-.27,1.29-.06.08-.15.37-.21,1.2-.07.84.09,1.09.19,1.16l.03.03c.24.35.27.72.09,1.07-.15.3-.17.64-.07,1.01,0,.27.03.48.08.66.05.21.09.45.09.69,0,.41-.06.75-.17,1.01-.1.22-.1.52,0,.9.11.24.17.52.17.81v.78c0,.65-.08,1.34-.25,2.07-.16.7-.08,1.36.23,1.98l-.03.13c-.4.37-.49.94-.29,1.7.22.82.27,1.48.16,1.98v1.91c0,.29.07.54.22.71.18.22.27.47.27.73,0,.43-.09.76-.26,1.02-.14.2-.11.44.08.72l.02.04c.11.49.11,1,0,1.49-.21.4-.18.82.07,1.32.27.53.31,1.08.11,1.65.63.63.99,1.14,1.11,1.55.27.4.37.46.39.47.1.04.24.12.55.47.25.46.25.87.01,1.22-.19.28-.14.59.16.95.11.16.42.53.96,1.14.25.28.4.4.48.45v-.07c0-.31.27-.5.75-.5.26,0,.39.08.46.15.12.14.11.34-.05.63-.41.46-.46.83-.18,1.14.32.35.64.73.97,1.15.2.15.37.29.48.42.09.1.23.19.41.25l.17.06v-.07c.04-.09.15-.17.31-.24h.08c.18-.01.31.02.38.1l.02.03h.13s.13.07.13.07c.12.27.12.54,0,.81-.05.12-.08.28.25.45l.1.02.03-.06c.04-.12.12-.2.23-.24.12-.04.26-.03.43.03l.1.14c-.13.48.16.54.28.57.32.07.66.26.55.8.93.6,2.02,1.06,3.25,1.37l.1.06c.51.69,1.45,1.17,2.79,1.44,1.35.27,2.59.49,3.7.66,1.19.24,2.33.42,3.38.54,1.39.16,2.85.25,4.25.34l.36.02c.36.02.75.07,1.17.15.84.15,1.68.08,2.56,0,.51-.05,1.03-.1,1.55-.1.22,0,.56.02.99.06.39.03.53-.06.59-.17-.07-.15-.08-.35.23-.58l.22-.02c.6.27.81.41.87.52h0ZM48.7.34c-.53-.03-1.01-.06-1.43-.07-.42-.02-.63-.06-.63-.12-.26,0-.63,0-1.11.02-.48.02-.85.02-1.11.02-.23,0-.5-.03-.82-.1-.32-.06-.52-.1-.58-.1-.42,0-.77.2-1.06.6-.29.4-.48.85-.58,1.33-.29.29-.48.52-.58.68-.1.16-.15.31-.17.44-.02.13-.04.23-.07.29-.03.03-.08.06-.14.07-.07.02-.11.05-.15.1s-.05.14-.05.27v-.05s0,.1-.1.29c-.77,1.03-1.16,1.73-1.16,2.08-.16.16-.28.31-.36.44-.08.13-.12.23-.12.31s-.07.27-.22.56-.35.65-.6,1.06c-.03.06-.11.13-.24.19-.13.07-.21.11-.24.14-.03.07-.06.17-.07.32-.02.14-.04.25-.07.31,0,.03-.02.07-.07.1-.05.03-.11.1-.19.19-.08.1-.19.23-.31.41-.13.18-.3.44-.51.78-.21.34-.43.75-.65,1.23-.03.06-.06.18-.07.34-.02.16-.06.27-.12.34-.07.06-.14.12-.22.17-.08.05-.14.1-.19.14-.05.05-.07.14-.07.27-.03,0-.14.14-.34.43-.19.29-.41.59-.65.9s-.44.46-.6.46c-.19,0-.37-.07-.53-.22s-.28-.29-.36-.44c-.08-.14-.18-.35-.29-.6-.11-.26-.19-.42-.22-.48-.03-.06-.09-.12-.17-.17-.08-.05-.13-.1-.14-.14-.02-.05-.02-.14-.02-.27,0-.06-.21-.53-.63-1.4-.42-.87-.69-1.39-.82-1.55l-.1-.1c-.1-.06-.2-.14-.31-.24-.11-.1-.22-.2-.31-.32-.1-.11-.19-.26-.27-.44-.08-.18-.12-.35-.12-.51,0-.1-.03-.15-.1-.15-.03,0-.09-.1-.17-.29-.08-.19-.17-.43-.27-.7-.1-.27-.19-.48-.29-.6l-.29-.34c-.23-.23-.34-.35-.34-.39,0-.1,0-.18.02-.24.02-.06.02-.11.02-.14v-.1s-.08-.09-.15-.17c-.07-.08-.14-.19-.24-.32-.1-.13-.25-.33-.46-.6-.21-.27-.43-.59-.65-.94,0-.19-.02-.33-.07-.41s-.11-.14-.19-.17-.21-.19-.39-.46c-.18-.27-.38-.67-.6-1.19l-.44-.29c-.32-.19-.55-.42-.68-.68-.39.1-1.79.16-4.21.19,0,.03.02.08.05.14-.03.03-.13.05-.29.05-.39,0-.74,0-1.06-.02-.32-.02-.56-.02-.73-.02-.77,0-1.3.14-1.57.44-.27.29-.41.89-.41,1.79,0,.42.03,1.06.1,1.93.06.87.1,1.5.1,1.89,0,.36-.03.76-.1,1.21,0,.55.06,1.06.19,1.55.13.48.19.84.19,1.06,0,.29-.05.73-.15,1.31-.1.58-.14,1-.14,1.26.13,0,.19.32.19.97,0,.19,0,.44-.02.75-.02.31-.02.49-.02.56.23.45.34,1.23.34,2.32,0,1.68-.03,4.21-.1,7.59-.07,3.39-.1,5.81-.1,7.26,0,.77.16,1.3.48,1.57.32.27,1.08.41,2.27.41.03,0,.06-.02.1-.07.03-.05.08-.07.14-.07h.05l.34.24c.1,0,.16-.06.19-.19.32,0,.76,0,1.31.02s.97.02,1.26.02c1.16,0,1.74-.4,1.74-1.21,0-.51,0-1.38.02-2.59.02-1.21.02-2.09.02-2.64,0-.97-.02-2.42-.05-4.35-.03-1.93-.05-3.37-.05-4.31,0-.23,0-.57.02-1.04.02-.47.02-.81.02-1.04,0-.03,0-.11-.02-.24-.02-.13-.02-.23-.02-.29,0-.32.13-.48.39-.48.1,0,.28.14.56.41.27.27.41.46.41.56,0,.03,0,.09-.02.17-.02.08-.02.14-.02.17,0-.06.02-.1.05-.1.1,0,.37.48.82,1.45.03,0,.06-.02.1-.05,0,.07-.02.13-.05.19v.1s.06.05.19.05l.39.63c.26.39.54.82.85,1.31.31.48.49.81.56.97,0,.23.06.36.17.39.11.03.17.08.17.14,0,.03,0,.08-.02.14-.02.07-.02.11-.02.15l.82,1.4.14.05c.1.03.16.06.19.1.03.07.06.15.07.27.02.11.04.19.07.22.13.16.34.36.63.58s.45.36.48.39c.29-.06.76-.1,1.4-.1.23,0,.55,0,.97.02.42.02.73.02.92.02,1,0,1.81-.16,2.44-.48.63-.32,1.02-.95,1.19-1.89v-.05s.07-.08.12-.14c.05-.06.1-.15.15-.27s.11-.24.19-.39.17-.29.27-.43c.1-.15.21-.32.34-.51.13-.19.26-.39.39-.58,0-.03.08-.14.24-.32.16-.18.34-.39.53-.65.19-.26.31-.48.34-.68l.73-1.21c.48-.77.81-1.16.97-1.16.39,0,.58.13.58.39,0,.06,0,.14-.02.22-.02.08-.02.14-.02.17,0,.1,0,.25.02.46.02.21.02.36.02.46,0,.19-.02.37-.05.53-.03.16-.06.28-.07.36-.02.08-.02.14-.02.17l.05.1c.06.06.1.16.1.29,0,.87-.02,2.19-.05,3.97s-.05,2.79-.05,3.05c0,.03,0,.11.02.24.02.13.02.24.02.34,0,.58,0,1.38-.02,2.39-.02,1.02-.02,1.77-.02,2.25,0,.64.13,1.13.39,1.45.26.32.82.48,1.69.48.16,0,.43,0,.8-.02s.65-.02.85-.02.49,0,.9.02c.4.02.7.02.9.02,1.1,0,1.77-.19,2.03-.56.26-.37.39-1.39.39-3.07,0-.58-.02-1.5-.07-2.76s-.07-2.18-.07-2.76c0-.29.02-.72.07-1.28.05-.56.07-.96.07-1.19l-.05-.1c-.03-.06-.05-.16-.05-.29,0-2.29.05-5.6.15-9.92.1-4.32.14-7.51.14-9.58,0-.9-.13-1.63-.39-2.18-.23-.16-.6-.26-1.14-.29ZM80.84.24c-.36,0-.66.02-.92.05s-.46.06-.6.07c-.14.02-.28.07-.41.17-.13.1-.23.17-.29.22-.07.05-.15.16-.27.34-.11.18-.22.32-.31.41l-.24.19c-.16.13-.32.3-.48.51-.16.21-.24.38-.24.51,0,.03.02.08.05.14v.1c-.07.06-.19.16-.36.29-.18.13-.28.24-.31.34,0,.03-.16.27-.48.73l-.48.73s-.02-.05-.05-.05c-.1,0-.32.31-.68.92-.36.61-.53.97-.53,1.06,0,.13-.2.44-.6.94-.4.5-.64.83-.7.99,0,.03-.05.07-.15.1-.1.03-.14.06-.14.1,0,.23-.02.34-.05.34h-.05c-.26,0-.71.56-1.35,1.69l-.44.53c-.32.39-.62.78-.9,1.19-.27.4-.41.69-.41.85-.03.19-.39.66-1.06,1.4-.68.74-1.02,1.24-1.02,1.5,0,.06-.06.14-.17.22-.11.08-.17.15-.17.22l-.53.92c-.39.58-.81,1.17-1.26,1.77-.45.6-.81.89-1.06.89-.32,0-.48-.26-.48-.77,0-2.06.02-5.06.07-8.97.05-3.92.07-6.78.07-8.59,0-.68-.23-1.12-.7-1.33-.47-.21-1.2-.32-2.2-.32-2.52,0-4.08.08-4.69.24,0,.1-.03.14-.1.14-.16.48-.24,1.19-.24,2.13,0,.39,0,.95.02,1.69.02.74.02,1.29.02,1.65-.23,5.03-.34,13.46-.34,25.3,0,.06,0,.19.02.39.02.19.02.34.02.43s0,.22-.02.36c-.02.14-.02.25-.02.31,0,.84.52,1.26,1.55,1.26.71,0,1.87-.06,3.48-.19.16,0,.45,0,.87.02s.74.02.97.02c.29,0,.61-.06.97-.19s.55-.19.58-.19c.35,0,.62-.1.8-.32.18-.21.48-.73.9-1.57.23-.23.66-.78,1.31-1.65.64-.87.97-1.4.97-1.6,0-.13.13-.31.39-.56.26-.24.39-.43.39-.56v.05c.06,0,.35-.36.87-1.06.52-.71.92-1.32,1.21-1.84.16-.26.43-.59.8-.99.37-.4.65-.77.85-1.09,0-.26.21-.61.63-1.06s.63-.74.63-.87c.1,0,.22-.08.36-.24.14-.16.29-.36.44-.6.14-.24.28-.48.41-.73.13-.24.23-.44.29-.6l.1-.24s.15-.21.36-.53c.21-.32.41-.61.6-.87.19-.26.41-.54.65-.85.24-.31.46-.55.65-.73.19-.18.34-.27.44-.27.32,0,.48.11.48.34,0,1.32-.06,3.47-.17,6.43-.11,2.97-.17,5.13-.17,6.48,0,.1.02.31.07.65.05.34.07.59.07.75,0,.42-.02,1-.07,1.74s-.07,1.31-.07,1.69c0,.36.09.63.27.82.18.19.37.31.58.34s.51.05.9.05c.23,0,.57,0,1.04-.02s.83-.02,1.09-.02c.19,0,.52.02.97.05.45.03.79.05,1.02.05.9,0,1.48-.23,1.74-.68.26-.45.39-1.22.39-2.32,0-.64-.02-1.61-.05-2.9-.03-1.29-.05-2.18-.05-2.66,0-.06.02-.11.05-.14l.05-.1-.05-.1c-.07-.03-.11-.09-.15-.17s-.05-.19-.05-.32c0-.45.02-.85.07-1.18.05-.34.1-.6.15-.78.05-.18.07-.28.07-.31,0-2.74.09-6.48.27-11.22.18-4.74.27-8.01.27-9.82,0-.39-.07-.73-.19-1.02-.61-.42-2.52-.63-5.71-.63ZM117.8,11.27l.15-.19s-.07-.24-.19-.63c-.07-.58-.16-1.08-.29-1.5-.13-.42-.19-.68-.19-.78,0-.03-.02-.1-.07-.22-.05-.11-.1-.24-.17-.39-.07-.14-.12-.28-.17-.41-.05-.13-.09-.24-.12-.34l-.1-.1-.39-.58c-.29-.35-.44-.61-.44-.77l.05-.1v-.1c-.07-.1-.19-.19-.39-.29l-.29-.19c-.32-.45-.85-1-1.6-1.65-.26-.23-.53-.47-.82-.75-.29-.27-.5-.46-.63-.56s-.36-.21-.7-.34-.8-.27-1.38-.44c-.26-.06-.65-.17-1.16-.32-.52-.14-.9-.25-1.16-.31s-.62-.13-1.09-.19c-.47-.06-.93-.1-1.38-.1-.81,0-1.45.05-1.93.15-.52.1-1.04.19-1.57.29-.53.1-.94.17-1.23.22s-.58.14-.87.27c0,.06-.23.24-.7.53-.47.29-.72.43-.75.43-.61.23-1.19.55-1.74.97-.48.36-1.34,1.26-2.56,2.71-.03.03-.11.08-.24.14-.13.07-.21.13-.24.19-.07.06-.1.18-.1.34s-.02.26-.05.29c-.19.19-.4.49-.63.89-.23.4-.42.81-.58,1.21-.16.4-.31.8-.46,1.19-.15.39-.25.69-.31.92l-.15.34s0,.05.02.05.02.02.02.05c-.71,2.16-1.06,4.39-1.06,6.68,0,1.26.15,2.52.44,3.8.29,1.27.58,2.3.87,3.07s.44,1.18.44,1.21v.05l.05-.05c0,.19.03.35.1.46.06.11.15.22.24.32s.16.16.19.19c.1.19.41.69.94,1.48.53.79,1.22,1.65,2.06,2.59.84.94,1.48,1.4,1.93,1.4.1,0,.16-.02.19-.05.13.26.48.51,1.06.75s.92.43,1.02.56c-.03,0-.05-.02-.05-.05l.29.1c.16.1.39.2.7.32.31.11.65.23,1.04.34s.84.21,1.35.29c.52.08,1.03.12,1.55.12,1.03,0,1.64.05,1.84.14.13-.19.37-.32.73-.39.35-.06.77-.1,1.26-.12.48-.02.84-.06,1.06-.12,0-.03.14-.14.41-.32.27-.18.61-.35,1.02-.53.4-.18.75-.27,1.04-.27h-.05s.1-.1.31-.22.47-.25.77-.41c.31-.16.52-.27.65-.34l1.11-1.11c1-.61,1.99-1.79,2.97-3.53.98-1.74,1.48-3.19,1.48-4.35,0-.74-.56-1.11-1.69-1.11-.23,0-.56,0-.99.02-.44.02-.75.02-.94.02-.16-.03-.42-.06-.77-.1-.36-.03-.63-.06-.82-.1-.13,0-.34,0-.63.02-.29.02-.52.02-.68.02-.07,0-.17,0-.31-.02-.15-.01-.25-.02-.31-.02-.03.13-.14.27-.31.41-.18.14-.28.28-.31.41-.03,0-.15.26-.34.77-.19.61-.48,1.1-.85,1.47-.37.37-.67.57-.9.6-.16.07-.31.18-.44.34-.13.16-.26.27-.39.34-.94.42-1.95.63-3.05.63-.42,0-.9-.05-1.45-.14s-1-.19-1.35-.29c-.36-.1-.55-.18-.58-.24.03-.06.05-.11.05-.14-.26,0-.39-.03-.39-.1l.05-.05c-.16,0-.29-.02-.39-.07s-.19-.15-.29-.32l-.1-.24c-.07-.03-.15-.06-.27-.07-.11-.02-.19-.06-.22-.12-.07-.03-.11-.13-.14-.29-.03-.16-.1-.24-.19-.24l-.14.05c0-.16-.11-.42-.34-.78-.19-.19-.42-.69-.68-1.5s-.45-1.27-.58-1.4l-.05-.1v-.24l.05-.14c-.26-.84-.39-1.61-.39-2.32,0-1.03.11-1.99.34-2.88.23-.89.34-1.44.34-1.67l.68-2.18s0-.08-.02-.15c-.02-.06-.02-.11-.02-.14l.15-.19c.1-.13.23-.3.39-.51.16-.21.32-.41.48-.6.16-.19.31-.36.44-.51.13-.14.23-.22.29-.22s.31-.11.75-.34c.44-.23.98-.44,1.65-.65.66-.21,1.3-.31,1.91-.31.35,0,.7.07,1.04.22s.52.22.56.22c.13,0,.27-.01.44-.05.16-.03.26-.05.29-.05,0,.23.26.39.77.48.13.03.23.1.29.22.06.11.13.17.19.17s.11-.02.15-.05c0,.1.03.19.1.29.06.1.1.16.1.19,0,.1.03.15.1.15.1,0,.29.38.58,1.14.29.76.66,1.14,1.11,1.14.55,0,1.27.02,2.18.07.9.05,1.55.07,1.93.07.06,0,.19-.03.39-.1.19-.06.35-.1.48-.1.1,0,.23,0,.41.02.18.02.3.02.36.02.39,0,.69-.11.92-.34-.03-.1-.02-.19.05-.29ZM146.25.39l-.05.05c-.03.06-.08.1-.15.1h-.14l-.1-.05c-.32.03-.82.05-1.5.05-.42,0-1.06,0-1.91-.02-.85-.02-1.48-.02-1.86-.02-.48,0-1.06.03-1.74.1-.68.07-1.19.1-1.55.1-1.45,0-3.66-.04-6.63-.12-2.97-.08-5.14-.12-6.53-.12-1.55,0-2.9.06-4.06.19-.13.26-.19.55-.19.87,0,.1,0,.24.02.43.02.19.02.32.02.39,0,.29-.04.7-.12,1.23s-.12.91-.12,1.14c0,.06.03.11.1.14,0,.23,0,.56-.02.99-.02.43-.02.75-.02.94,0,1.06.47,1.6,1.4,1.6.13,0,.31,0,.53-.02.23-.02.39-.02.48-.02.84.03,1.65.04,2.44.02.79-.02,1.66,0,2.61.05.95.05,1.73.14,2.35.27.19,1.23.29,1.98.29,2.27,0,.42-.05.63-.14.63,0,.13.04.43.12.92s.12.84.12,1.06c0,.81-.05,1.88-.15,3.22-.1,1.34-.14,2.33-.14,2.98,0,.58,0,1.44.02,2.59.02,1.15.02,1.99.02,2.54,0,.77-.02,1.91-.07,3.41-.05,1.5-.07,2.62-.07,3.36,0,.87.16,1.54.48,2.01.32.47.97.7,1.93.7.19,0,.5,0,.92-.02.42-.02.74-.02.97-.02.16,0,.37,0,.63.02s.45.02.58.02c.06,0,.15,0,.27-.02.11-.02.2-.02.27-.02s.18,0,.34.02c.16.02.29.02.39.02.94,0,1.4-.61,1.4-1.84,0-.48-.04-1.23-.12-2.25-.08-1.02-.12-1.8-.12-2.35,0-1.35.04-3.59.12-6.7s.12-5.28.12-6.51c0-.45-.02-1.15-.07-2.08-.05-.93-.07-1.69-.07-2.27,0-.93.15-1.55.44-1.84.23.03.56.05,1.02.05.74,0,1.93-.04,3.58-.12s2.9-.12,3.77-.12c.29,0,.52-.02.68-.07.16-.05.34-.14.53-.27.19-.13.37-.23.53-.29-.1-.68-.15-1.79-.15-3.34s-.07-2.68-.19-3.39c-.39-.39-.89-.58-1.5-.58ZM173.97.73c-.19,0-.46,0-.8.02-.34.02-.59.03-.75.03-.29,0-.76-.03-1.4-.1-.65-.06-1.11-.1-1.4-.1-1.23,0-3.09.04-5.59.12-2.5.08-4.35.12-5.54.12-.65,0-1.57-.05-2.78-.15-1.21-.1-2.12-.14-2.73-.14-1.03,0-1.7.1-2.01.29-.31.19-.46.77-.46,1.74,0,11.22.13,19.01.39,23.37,0,.03.04.24.12.63.08.39.12.69.12.92,0,.61-.02,1.39-.07,2.32-.05.94-.07,1.6-.07,1.98,0,.9.13,1.61.39,2.13.29.36,1.97.53,5.03.53.84,0,2.11-.03,3.82-.1,1.71-.06,2.97-.1,3.77-.1.52,0,1.26,0,2.23.02.97.02,1.69.02,2.18.02.35,0,.74,0,1.16-.02.42-.02.8-.04,1.14-.07s.65-.06.94-.1.53-.06.73-.1h.24c.13,0,.33.03.6.1.27.06.54.1.8.1,1.52,0,2.35-.47,2.52-1.4,0-.19-.03-.37-.1-.53-.07-.16-.1-.26-.1-.29l.05-1.6c0-1.93-.23-3.27-.68-4.02-.87-.1-1.77-.14-2.71-.14-1.29,0-3.28.03-5.97.1-2.69.07-4.72.1-6.07.1-.77,0-1.47-.06-2.08-.19-.19-.64-.29-1.97-.29-3.97,0-.32.09-.56.27-.73.18-.16.35-.25.53-.27.18-.02.44-.02.8-.02.52,0,1.31,0,2.37.02,1.06.02,1.87.02,2.42.02,2.03,0,3.27-.12,3.7-.36.44-.24.65-.96.65-2.15,0-2.55-.08-4.11-.24-4.69-.16-.58-.71-.87-1.65-.87-.39,0-1.05.05-1.98.15-.94.1-1.87.14-2.81.14-.16,0-.33,0-.51-.02s-.33-.04-.46-.07c-.13-.03-.25-.06-.36-.1-.11-.03-.2-.06-.27-.1h-.1l-.05.05c-.19.13-.39.19-.58.19-.23,0-.53-.03-.92-.1s-.66-.1-.82-.1c0-.03,0-.1.02-.19.02-.1.02-.18.02-.24,0-.29-.05-.73-.14-1.33-.1-.6-.15-1.06-.15-1.38,0-1,.31-1.5.92-1.5.13,0,.33.02.6.07.27.05.48.07.6.07.68,0,1.73-.05,3.17-.14,1.43-.1,2.52-.14,3.27-.14.61,0,1.53.03,2.76.1s2.13.1,2.71.1c1.42,0,2.28-.1,2.59-.31.31-.21.46-.78.46-1.72,0-.19,0-.5-.02-.92-.02-.42-.02-.74-.02-.97s0-.55.02-.97c.02-.42.02-.74.02-.97,0-.68-.07-1.26-.19-1.74-.29-.23-.71-.34-1.26-.34ZM188.99,25.33c.18.02.33.03.46.05.13.02.24.02.34.02h.19l.1.05c.06,0,.1-.02.1-.05v-.1c.52,0,1.23.02,2.13.05.9.03,1.56.05,1.98.05,1,0,1.77-.08,2.32-.24,1.19-.32,2.16-.62,2.9-.89.74-.27,1.22-.48,1.43-.6s.43-.3.65-.51c.23-.21.37-.35.44-.41.06-.03.18-.05.34-.05s.27-.03.34-.1c.03-.03.06-.11.07-.24.02-.13.04-.21.07-.24.1-.1.19-.19.29-.29.1-.1.18-.18.24-.24.06-.06.15-.15.24-.24.68-.68,1.09-1.1,1.23-1.28.14-.18.28-.46.41-.85l.15-.19c.1-.16.2-.33.31-.51.11-.18.17-.32.17-.41.03,0,.14-.25.31-.75.18-.5.35-1.19.53-2.08.18-.89.27-1.72.27-2.49,0-.55,0-1.02-.02-1.43-.02-.4-.04-.78-.07-1.14s-.07-.64-.1-.85c-.03-.21-.1-.46-.19-.75-.1-.29-.17-.51-.22-.65s-.15-.39-.31-.75c-.16-.36-.27-.63-.34-.82-.26-.22-.42-.45-.48-.68-.07-.23-.29-.53-.68-.92-.13-.19-.48-.56-1.04-1.09-.56-.53-.96-.8-1.19-.8-.45-.42-.69-.63-.73-.63v.05c-1.45-.71-2.61-1.19-3.48-1.45-.19-.06-.29-.15-.29-.24l-.19.05s-.07-.01-.1-.05c-1.65-.35-3.48-.53-5.52-.53-.58,0-1.38.07-2.39.19-1.02.13-1.8.19-2.35.19-.23,0-.55,0-.97-.02-.42-.02-.73-.02-.92-.02-.61,0-1.05.02-1.31.05-2.71,0-4.06.34-4.06,1.02,0,.03.02.08.05.14v.1c-.03.23-.05.56-.05,1.02,0,.19,0,.5.02.92.02.42.02.74.02.97,0,.64-.03,1.63-.1,2.95-.07,1.32-.1,2.31-.1,2.95s.03,1.55.1,2.71c.06,1.16.1,1.95.1,2.37,0,.16,0,.38-.02.65-.02.27-.02.46-.02.56s.04.52.12,1.26c.08.74.12,1.37.12,1.89,0,.13,0,.27-.02.41-.02.14-.03.27-.05.39-.02.11-.03.22-.05.32-.02.1-.04.16-.07.19v.05c0,.07.05.11.14.15,0,.77-.02,1.5-.05,2.18l.05.29c.03.23.05.42.05.58,0,.39-.05,1.08-.15,2.08-.1,1-.14,1.69-.14,2.08,0,.19.02.39.05.58.03.19.08.34.14.44l.05.14c0,.13,0,.31.02.56.02.24.02.43.02.56,0,.23-.02.53-.05.92-.03.39-.05.68-.05.87,0,.45.06.85.19,1.21.39.36,2.06.53,5.03.53.94,0,1.73-.06,2.37-.19.23-.39.34-.95.34-1.69,0-.61-.03-1.44-.1-2.49-.07-1.05-.1-1.8-.1-2.25,0-1.39.16-2.24.48-2.56.19,0,.38,0,.56.02ZM188.43,8.18c.22.03.58.05,1.06.05.45,0,1.11-.02,1.98-.07s1.52-.07,1.93-.07c1.61,0,2.56.14,2.85.44.06.03.26.06.58.1s.56.1.73.19c.03.03.08.1.14.19.06.1.11.14.15.14.48.29.82.64,1.02,1.06.19.42.29,1.19.29,2.32,0,.78-.05,1.35-.15,1.72-.1.37-.37.91-.82,1.62-.07.1-.11.18-.15.24s-.07.13-.1.19c-.07.13-.18.19-.34.19-.03,0-.21.08-.53.24-.32.16-.73.33-1.23.51-.5.18-1.01.27-1.52.27-.26,0-.68,0-1.26-.02-.58-.02-1-.02-1.26-.02-.19,0-.47,0-.82.02-.36.02-.63.02-.82.02-.77,0-1.4-.06-1.89-.19-.36-.45-.53-2.44-.53-5.95,0-1.06.06-1.97.19-2.71.1-.23.26-.39.48-.48Z"></path><g><path class="cls-3" d="M134.52,162.03c0-.2-.02-.39-.04-.58-.02-.2-.04-.39-.02-.58.01-.15.03-.3.05-.44.05-.37.1-.78.08-1.27v-.24c-.04-1.37-.09-3.91-2.01-4.19-.25-.04-.47-.01-.65.03-.03,0-.06-.01-.09-.02,0-.11.02-.22.05-.32.07-.29.05-.58-.06-.85-.01-.05,0-.22,0-.34,0-.14,0-.28,0-.4,0-.22-.03-.44-.06-.67-.01-.08-.03-.17-.03-.26-.04-.96-.1-1.87-.16-2.76-.1-1.54-.2-2.99-.19-4.5,0-.64-.04-1.28-.08-1.9l-.03-.53c-.02-.26-.01-.52,0-.79.01-.78.03-1.66-.35-2.57-.22-.52-.71-.86-1.27-.89-.67-.04-1.2-.02-1.67,0-.35.01-.67.03-1.02,0-.25-.02-.5.02-.73.11-.29,0-.57,0-.83,0-.21,0-.42,0-.59,0-.17-.05-.47-.16-.85-.14-.35,0-.63.08-.82.16-.67-.15-1.06-.11-1.6-.03-.2.03-.42.01-.65,0-.56-.02-1.25-.04-1.92.22-.08-.01-.16-.02-.23-.03-.67-.09-1.41-.19-2.21-.07-.37-.08-.75-.09-1.09-.1-.18,0-.35-.01-.51-.03-.38-.05-.75.06-1.05.28-1.25.94-1.29,2.28-1.31,3.17-.01.4-.02.78-.12,1.1-.09.29-.1.57,0,.86,0,.05-.01.22-.02.34-.01.14-.03.27-.04.41-.01.21,0,.43.01.65,0,.09.02.17.01.26-.03.99-.03,1.98-.02,2.98,0,.84.01,1.69,0,2.53v.57c-.03,1.2-.05,2.85-.61,3.59-.05.06-.1.15-.16.24-.01,0-.03.01-.04.02h-.54c-.58,0-1.47-.03-2.3.85-.52.56-.7,1.13-.73,1.62-.07.19-.11.4-.1.61-.02.63.11,1.15.22,1.57.06.24.12.45.12.59,0,.05-.01.1-.02.15-.04.27-.11.67-.01,1.15.03.14.04.24.05.36l.02.2c.05.5.09,1.03.08,1.54,0,.31-.03,1.15.6,1.78.26.27.73.58,1.47.58h.69c.52,0,1.02,0,1.56-.04.18-.01.37-.01.56-.02.54,0,1.15-.02,1.74-.16,1.27-.3,1.53-1.45,1.57-2.29.29,0,.6.02.92.03.41.02.82.04,1.22.03.11,0,.25-.01.42-.03.09,0,.2-.02.3-.03.29.16.63.23.97.17.35-.06.6-.2.78-.31.19-.02.54,0,.76,0,.2,0,.38.02.55.02h1.95c.19,0,.39-.02.58-.02.3-.01.59-.03.79,0,.25.03.45.02.56,0,.04.01.08.02.12.03,0,.07.02.14.03.21l.03.27c.03.28.3,1.69,2.07,1.71.14,0,.28,0,.43.02.22.01.45.02.67.02.71,0,1.38-.02,2.09-.07.06,0,.12,0,.19,0,.48.02,1.27.06,1.93-.49.89-.74.76-1.99.68-2.81-.01-.11-.02-.21-.02-.29ZM120.64,151.24c.12-.56.1-1.07.07-1.49,0-.16-.02-.32-.02-.48.01-.59.07-1.17.11-1.75.03-.35.06-.71.08-1.06.01-.15,0-.36,0-.59,0-.05,0-.1,0-.16h.36s.02.02.02.02c.16.08.33.13.5.14.4.04.76-.06,1.04-.14.09-.01.17-.02.26-.02.03.21.02.33.01.38-.16.7-.08,1.31-.02,1.8.02.16.04.31.05.48.03.56.02,1.17.02,1.76,0,.71,0,1.4.03,2.03-.03.79-.11,1.8-.2,2.74h-.28c-.74.02-1.63.03-2.35.03.47-1.26.38-2.53.29-3.68ZM120.58,144.23h0s0,0,0,0ZM159.49,143.71c-.02-.16-.08-.33-.16-.47-.65-1.22-1.79-2.35-3.15-3.13l-.18-.17c-.09-.08-.19-.15-.3-.21-.22-.12-.48-.21-.75-.31l-.23-.08c-.69-.27-1.42-.5-2.12-.66-.53-.12-1.02-.14-1.46-.16-.29-.01-.59-.03-.74-.07-.19-.05-.4-.06-.6-.03,0,0,0,0,0,0-.07,0-.14-.01-.2-.01-.86.01-1.66.04-2.44.06-.82.02-1.61.05-2.43.06-.42,0-.86,0-1.31-.02-1.26-.03-2.68-.06-4.18.15-.42-.09-.78,0-.95.04-.36.09-.67.3-.87.61-.54.8-.31,1.61-.21,1.96.01.05.03.1.04.14.03.2-.03.47-.1.79-.06.29-.12.59-.14.89-.09,1.06-.02,2.03.05,2.97.05.73.1,1.42.07,2.07,0,.09,0,.17,0,.26.16,1.3.12,2.44.08,3.55-.05,1.42-.1,2.88.29,4.49-.12.77-.11,1.7-.1,2.67,0,.58.02,1.16,0,1.69-.04.73,0,1.44.09,2.25.13,1.05.35,1.35,2.61,1.35.93,0,2.21-.05,3.96-.12h.36c.44-.02,1.47-.03,2.09-.93.37-.54.61-1.78.38-2.51.12-.55.07-1.06.04-1.45l-.02-.19c-.02-.19-.02-.38-.02-.58,0-.21,0-.42-.01-.63.05-.12.08-.25.09-.38.02-.22,0-.42-.03-.58.09,0,.18-.02.27-.04,1.72.32,3.79-.07,4.37-.19.06,0,.11,0,.17,0,.22,0,.45-.02.66-.07.32-.07.58-.19.78-.31.11,0,.21,0,.3,0,.34-.04.59-.15.77-.24.41-.15.71-.3,1.1-.6l.38-.34c.05-.05.14-.15.25-.26.09-.09.19-.22.3-.32.29-.02.56-.13.78-.31,1.79-1.42,2.93-3.46,3.15-5.6.15-1.49.03-3.48-.71-4.89,0-.04-.02-.08-.03-.12ZM146.5,146.98c0-.11-.01-.22-.02-.33.08-.01.17-.03.25-.05.13-.03.28-.06.53-.05.21.02.55.05.97-.06.4.03.75-.03.99-.08.09-.02.18-.04.25-.05.07,0,.14.03.22.04.17.04.38.08.62.1.45.32.78.9.66,1.64-.94.66-2.67.76-4.38.85-.03-.12-.06-.23-.09-.34h0c.06-.54.03-1.09,0-1.67ZM48.83,150.34c0,2.35-1.91,4.27-4.27,4.27s-4.27-1.91-4.27-4.27,1.91-4.27,4.27-4.27,4.27,1.91,4.27,4.27ZM77.34,158.39c.1.36.08.83-.1,1.16-.29.55-.72.87-1.03,1.11-.09.07-.21.16-.25.2-.11.34-.29.53-.6.71-.16.09-.33.25-.52.43-.15.14-.29.27-.45.4-.2.16-.44.27-.69.32-.56.09-1.02.36-1.61.69-.73.42-1.64.94-2.89,1.1-.21.03-.43,0-.63-.06-.1-.02-.41.03-.6.05-.26.04-.53.08-.83.08-.21,0-.43-.02-.65-.08-.04-.01-.09-.02-.13-.04-2.61,0-4.7-.7-6.71-1.38l-.63-.21c-.15-.05-.29-.12-.42-.22-.76-.57-1.56-1.2-2.26-1.94-.69-.73-1.3-1.41-1.89-2.46-.53-.93-.86-1.98-1.15-2.9-.19-.6-.37-1.16-.57-1.62-.07-.16-.11-.32-.12-.49-.15-2.05.11-4.16.76-6.26.02-.06.02-.14.03-.22.03-.22.07-.52.19-.83l.09-.24c.43-1.09.89-2.22,1.38-2.91.04-.06.09-.12.13-.16.07-.17.16-.33.29-.47l.17-.19c.75-.81,1.59-1.72,2.97-2.23.24-.14.53-.28.87-.45l.95-.48c.97-.51,2.3-1.21,3.58-1.17l.16.02c.13-.06.27-.11.45-.15.3-.05.54-.04.72-.03.94-.14,2.39-.23,3.57,0,.24-.02.45-.04.68-.01,1.21.17,2.17.59,3.11.99.47.2.95.41,1.47.58.25.09.48.24.65.44.16.19.4.38.66.59.32.25.63.51.9.8.16.17.28.38.34.61.02.03.04.05.06.08.36.52.34,1.22-.04,1.72-.64.83-1.41,1.69-2.15,2.51-.52.58-1.04,1.16-1.52,1.73-.38.46-.99.64-1.56.46-.62-.19-1.17-.55-1.66-.86-.25-.16-.49-.31-.72-.43-.22-.03-.5-.08-.79-.21-.05-.02-.1-.05-.15-.08l-.7-.42c-.11-.06-.27-.16-.32-.17-.27-.03-.67,0-1.01.04l-.41.04c-.05,0-.1,0-.15,0-.14.09-.29.16-.46.21-1.27.33-1.8,1.12-2.56,2.69-.22,1.44-.39,3.18.08,4.41.08.2.24.41.43.66.17.23.36.48.53.77.19.17.38.34.56.52.12.12.25.24.37.35.37.09.67.24.91.4.2.02.39.04.58.07.23.03.41.06.56.05.2-.09.4-.19.67-.24.29-.07.56-.05.72-.04.26-.03.59-.17.94-.32.16-.07.32-.13.48-.19.34-.29.7-.5,1.03-.7.27-.16.53-.31.69-.46.31-.29.74-.43,1.16-.37.15.02.3.06.44.12,0,0,0,0,.01,0,.18.01.35.06.51.14.14.07.26.15.36.23.28.13.52.36.68.65.23.44.7.8,1.25,1.21l.17.13c.11.08.21.18.28.27.12.08.23.17.32.28.42.28.8.79,1,1.64ZM173.54,150.34c0,2.35-1.91,4.27-4.27,4.27s-4.27-1.91-4.27-4.27,1.91-4.27,4.27-4.27,4.27,1.91,4.27,4.27ZM105.05,153.98v-.08c.09-.69.01-1.3-.06-1.81-.03-.2-.05-.41-.07-.62-.04-.71-.03-1.47-.02-2.22,0-.85.01-1.73-.04-2.54.04-1.27.2-2.94.34-4.41.13-1.33-.3-2.3-.58-2.94l-.08-.19c-.25-.58-.83-.93-1.46-.88-.39.03-.83,0-1.31-.02-.92-.05-1.96-.12-3.03.21-.12,0-.27-.03-.41-.04-.35-.04-.72-.09-1.09-.05-1.08.12-1.81.66-2.23,1.66-.07.17-.11.32-.13.45-.08.08-.17.17-.25.29-.24.32-.39.65-.51.91-.08.17-.15.33-.22.42l-.36.47c-.94,1.23-1.83,2.41-2.61,3.85h0c0-.77-.05-1.53-.1-2.27l-.05-.73c-.02-.33-.02-.67,0-1.01.02-.93.04-1.99-.41-3.06-.22-.52-.71-.86-1.27-.89-.82-.04-1.47-.02-2.05,0-.45.01-.86.03-1.31,0-.26-.02-.53.02-.76.12-.81-.08-1.54-.1-2.35-.03-.64.06-1.17.54-1.29,1.18-.08.41-.12.93.02,1.45-.07.45-.05.88-.03,1.24.01.28.02.55,0,.75-.03.2-.02.4.03.58-.61,1.59-.34,3.34-.11,4.8v.09c-.09.68,0,1.3.06,1.81.03.21.06.41.07.62.04.71.03,1.47.02,2.23,0,.85-.01,1.73.04,2.53-.04,1.29-.21,3.02-.34,4.41-.13,1.33.3,2.29.58,2.93l.08.2c.25.58.85.94,1.46.89.39-.03.83,0,1.31.02.36.02.74.04,1.13.04.51,0,1.05-.04,1.6-.17.45.07.92.05,1.37.03.23,0,.46-.02.68-.01.12,0,.26-.01.39-.04.82-.07,1.5-.58,1.86-.91.46-.42.77-.9,1.04-1.32l.16-.25c.06-.08.17-.19.27-.3.43-.46.84-.89.98-1.48.02-.08.17-.28.29-.44.1-.13.2-.27.29-.4.14-.21.27-.44.38-.67.05-.11.11-.22.18-.32.08-.13.17-.26.25-.39.02.27.03.54.05.8l.04.69c.02.34.01.68,0,1.02-.02.93-.04,1.99.41,3.06.22.52.71.86,1.27.89.82.04,1.46.02,2.05,0,.45-.02.87-.03,1.32,0,.26.02.53-.02.77-.12.81.08,1.54.1,2.34.03.65-.06,1.18-.54,1.3-1.18.08-.41.12-.93-.02-1.44.07-.45.05-.88.03-1.25-.01-.28-.02-.55,0-.75.03-.2.01-.39-.03-.57.61-1.59.34-3.35.11-4.81ZM98.64,138.52s0,0,0,0h0s0,0,0,0Z"></path><path class="cls-1" d="M75.17,157.88l.05-.19c-.25,0-.23-.23-.36-.33-.69-.53-1.41-1.03-1.83-1.83-.21.02-.23-.17-.37-.23-.21-.02-.36.1-.51-.13-.57.52-1.4.81-1.94,1.36-.64.21-1.28.59-1.99.69-.21.03-.42-.04-.62,0-.25.05-.43.21-.66.25-.65.1-1.22-.13-1.96-.11-.26-.23-.56-.44-1.03-.46-.51-.41-.95-.9-1.46-1.31-.31-.65-.88-1.13-1.15-1.84-.61-1.57-.42-3.57-.13-5.38.8-1.69,1.56-3.14,3.6-3.67l.15-.24c.31.05.37-.13.61-.15.12.07-.1.15.11.14.45-.03,1.12-.14,1.7-.07.45.05.77.31,1.13.51l.47.28c.26.12.57.1.82.23.7.34,1.46.98,2.18,1.21,1.17-1.4,2.59-2.84,3.64-4.2-.24.07-.22-.32-.27-.52-.49-.52-1.15-.9-1.61-1.45-1.52-.51-2.74-1.29-4.28-1.51-.21-.03-.5.06-.72.01-.92-.2-2.21-.15-3.09,0-.23.04-.5-.03-.72.01-.17.03-.32.18-.51.2l-.41-.04c-1.06-.02-2.41.77-3.22,1.19-.67.34-1.18.57-1.53.79-1.21.41-1.93,1.27-2.69,2.09.11.23-.2.34-.3.48-.48.67-1.02,2.11-1.3,2.82-.11.28-.09.63-.19.96-.57,1.86-.83,3.77-.69,5.72.58,1.3.89,3.04,1.66,4.4.5.89,1.02,1.47,1.67,2.17.64.67,1.38,1.25,2.08,1.78,2.26.75,4.47,1.61,7.32,1.51l.06.09c.54.14,1.44-.26,2.15-.03,1.83-.23,2.73-1.5,4.44-1.78.39-.32.71-.71,1.17-.97.22-.67,1.01-.85,1.32-1.44-.1-.36-.17-.99-.79-.99h0ZM158.05,144.21c.69.99.88,2.85.73,4.36-.2,1.97-1.35,3.61-2.61,4.61h-.36c-.22,0-.9.82-1.08.99l-.33.29c-.17.13-.34.22-.62.32-.16.06-.28.15-.45.17-.14.02-.18-.16-.31-.13-.34.07-.48.39-.88.47-.27.06-.56.02-.83.07-1.15.24-2.72.4-3.87.17l.04-.18c-.24-.05-.5-.05-.61,0l.25.14c-.4.17-1.16.03-1.8.12l.11,1.04v.28c.03.15.13.35.11.52l-.17.21.08.31c.03.44,0,.88.04,1.33.04.45.12.94-.04,1.37-.04.1-.28.02-.2.29.04.13.23.13.29.27.09.23-.04,1.04-.19,1.25-.22.32-.71.28-1.05.29-.47.02-5.31.23-5.33.06-.08-.68-.12-1.31-.08-2,.07-1.5-.11-3.45.14-4.48-.76-2.73-.02-4.95-.43-8.18.08-1.61-.27-3.24-.13-5,.06-.67.32-1.31.23-2-.05-.4-.29-.75-.06-1.09.2-.05.32-.06.46.04,2.05-.34,3.97-.16,5.65-.18,1.61-.02,3.11-.09,4.88-.11.09.12.23.02.41,0,.61.16,1.46.07,2.27.25.65.15,1.32.36,1.91.6.27.11.59.19.83.32l.31.28c1.02.56,2.1,1.48,2.72,2.63-.03.15.12.19,0,.29h0ZM150.66,145.03c-.34.09-.78-.13-1.18-.13-.55,0-1,.3-1.44.02h-.05s.05.1.05.1c-.34.15-.58.06-.87.06-.44,0-.79.13-1.13.16l-.31-.09-.3.1c-.12,0-.31-.21-.36-.04-.15,1.23.13,2.62-.05,3.52.17.67.36,1.22.28,1.8,2.54-.19,5.46-.06,6.97-1.57.6-1.75-.27-3.33-1.6-3.93h0ZM99.09,139.9c-.39.13-1.23-.11-1.69-.06-.54.06-.82.23-1.04.76-.09.22-.03.37-.12.57-.09.2-.31.3-.44.48-.3.41-.42.93-.74,1.35-1.11,1.47-2.16,2.77-3,4.44-.61.54-.86,1.27-1.28,1.95-.33.52-.78,1.03-1.14,1.55-.09-1.5-.17-2.98-.16-4.5,0-.99-.09-1.97-.14-2.9-.08-1.2.17-2.47-.31-3.61-1.48-.08-2.34.07-3.39,0-.21-.07-.02.21-.15.19-.97-.12-1.79-.19-2.73-.1-.05.29-.09.76.11,1.04-.25.69,0,1.53-.12,2.33.13.02.05.24.26.29-.92,1.42-.54,3.35-.29,5-.18.8.04,1.53.09,2.33.08,1.56-.03,3.35.07,4.8-.04,1.32-.21,3.07-.35,4.57-.1,1.07.29,1.8.55,2.42,1.31-.11,2.76.29,4.11-.15.55.18,1.45.03,2.16.06l.05-.05c.4.06.86-.26,1.15-.53.41-.37.68-.87.98-1.32.21-.32.96-.96,1.04-1.28.12-.52.49-.88.81-1.35.21-.3.34-.66.54-.96.91-1.4,1.77-2.83,2.65-4.24l.13-.2c.06,1.1.1,2.2.1,3.33,0,.99.09,1.97.14,2.9.08,1.2-.17,2.47.31,3.61,1.48.08,2.34-.07,3.39,0,.21.07.02-.21.15-.19.97.12,1.79.19,2.72.1.05-.29.1-.77-.11-1.04.25-.69,0-1.53.12-2.33-.13-.02-.05-.24-.26-.29.91-1.42.53-3.35.28-5,.18-.8-.04-1.53-.09-2.33-.08-1.56.04-3.35-.07-4.8.04-1.32.21-3.07.35-4.58.1-1.07-.29-1.8-.55-2.42-1.31.11-2.76-.29-4.11.15h0ZM133.14,159.21c.02.54-.08.99-.13,1.52-.04.45.04.87.06,1.34.02.46.24,1.62-.13,1.93-.31.26-.91.12-1.28.15-.69.04-1.34.06-2.02.06-.35,0-.71-.04-1.07-.04-.32,0-.58-.06-.63-.42-.06-.46-.15-.97-.13-1.44.03-.66-.47-.3-.89-.26-.2.02-.38-.12-.59-.11-.14,0-.23.07-.39.04-.49-.07-1.05,0-1.58,0-.65,0-1.3,0-1.94,0-.51,0-1.25-.09-1.74.03-.25.06-.36.23-.6.28-.18-.31-1.08-.14-1.46-.14-1.16.02-2.4-.21-3.55.09-.14.52.24,2.01-.48,2.17-.63.15-1.4.1-2.05.14-.75.04-1.39.03-2.15.03-.54,0-.63-.37-.62-.87.01-.57-.03-1.13-.09-1.72-.03-.27-.03-.44-.09-.72-.07-.36.07-.7.06-1.02-.02-.72-.38-1.34-.34-2.14-.06-.16.13-.02.12-.13-.06-.46,0-.75.32-1.09.43-.45.81-.4,1.37-.39.29,0,.58,0,.87,0l.03-.05c.11-.13.34-.14.49-.25.13-.11.29-.4.4-.54.96-1.28.86-3.5.9-5.01.05-1.83-.04-3.66.03-5.5.01-.29-.05-.59-.03-.88.03-.45.13-.86,0-1.26.42-1.35-.18-2.7.92-3.53.57.07,1.29,0,1.72.18.93-.23,1.89.02,2.8.1l.22-.13c.66-.27,1.54-.05,2.26-.15.44-.06.64-.08,1.09.01.48.1.73-.12,1.16-.13.27,0,.49.14.75.15.68.01,1.32-.06,1.99.03.11.01-.04-.21.12-.15.84.06,1.53-.06,2.72,0,.38.91.18,1.93.25,2.89.05.75.12,1.53.11,2.32,0,2.44.24,4.71.35,7.32.01.29.09.58.09.88.01.45-.06.86.1,1.26-.17.75-.05,1.47-.06,2.12.35-.02.7-.07,1.02-.07.17,0,.31.12.48.13.16,0,.31-.12.46-.1.79.12.74,2.44.77,3.05h0ZM124.59,148.28c-.04-.64-.22-1.23-.07-1.87.12-.51,0-1.17-.15-1.65-.17-.58-.37-.57-.94-.53-.28.02-.56,0-.84.05-.17.03-.46.15-.67.13l-.22-.19c-.14-.03-.24.05-.37.04-.27-.01-.49-.02-.75-.03-.17,0-.6-.07-.75.01-.57.29-.35,1.62-.39,2.12-.06.96-.18,1.91-.2,2.88-.01.64.12,1.24-.07,1.87.1,1.37.24,2.75-.51,3.97.23.28.06.81-.21,1.3l.34-.05c.65.11,3.43.03,5.59,0-.02-.17-.02-.34,0-.54.12-1.21.25-2.61.28-3.67-.08-1.16.01-2.6-.06-3.85h0ZM172.08,150.34c0,1.55-1.26,2.81-2.81,2.81s-2.81-1.26-2.81-2.81,1.26-2.81,2.81-2.81,2.81,1.26,2.81,2.81ZM47.37,150.34c0,1.55-1.26,2.81-2.81,2.81s-2.81-1.26-2.81-2.81,1.26-2.81,2.81-2.81,2.81,1.26,2.81,2.81Z"></path></g></svg> 