<?xml version="1.0" encoding="UTF-8"?> <svg xmlns="http://www.w3.org/2000/svg" width="100" height="100" viewBox="0 0 100 100" fill="none"><path d="M45.3351 42.9035C44.9875 42.6915 44.6324 42.1767 44.5417 41.7755C44.4888 41.5105 44.4964 41.3742 44.6097 41.0033C44.7382 40.5793 44.8138 40.4809 46.0604 38.9592C46.7782 38.0811 47.3751 37.3391 47.3751 37.3164C47.3751 37.2937 47.1258 37.0212 46.8085 36.7108C44.5871 34.5683 42.6604 31.5931 41.6252 28.7239C39.8874 23.9241 40.235 19.0108 42.6906 13.7417C43.8768 11.1829 45.9018 8.1244 47.6623 6.22419C48.1534 5.69425 48.3196 5.58069 48.773 5.47471C49.0601 5.40657 49.2187 5.41414 49.5739 5.49742C49.9592 5.59584 50.065 5.64883 50.405 5.94408C50.6241 6.13334 50.9339 6.44374 51.1001 6.633L51.4099 6.97367L52.2788 6.19391C55.7242 3.10513 59.3434 1.02322 62.5546 0.288881C64.3151 -0.119929 65.1009 -0.0972177 65.6751 0.372156C65.9849 0.621984 66.1587 0.902095 66.5516 1.77271L66.8085 2.3405L67.1711 2.23451C67.3676 2.17395 67.8965 2.04525 68.3498 1.93926C71.4099 1.2352 74.6362 1.12921 77.1523 1.65158C78.0816 1.84841 78.1572 1.87113 78.4443 2.0831C78.8221 2.37078 79.0638 2.81744 79.5172 4.05144C80.4314 6.58001 80.847 9.71421 80.6808 12.7727L80.6354 13.5752L81.5572 13.8023C82.3959 14.0067 82.5093 14.0521 82.7586 14.2565C82.9173 14.3777 83.1137 14.6199 83.2044 14.7865C83.4839 15.3013 83.5746 16.7397 83.4311 18.4052C83.3253 19.5635 82.6604 22.2056 82.1164 23.591C81.4137 25.3777 80.4616 27.3157 79.5096 28.8753C79.2527 29.3068 79.1545 29.5112 79.1923 29.5415C80.6657 30.4197 80.983 30.7301 81.119 31.4493C81.255 32.176 80.9679 32.6984 79.4265 34.5078C75.3389 39.2924 70.2765 42.5023 65.524 43.335C60.7034 44.1753 55.6487 43.0473 51.017 40.0948C50.5032 39.7769 50.0801 39.5119 50.0725 39.5195C50.0574 39.527 49.4681 40.2462 48.7503 41.1093C48.0325 41.9723 47.36 42.7597 47.2467 42.8505C46.7556 43.2442 45.9244 43.2669 45.32 42.8959L45.3351 42.9035ZM61.1417 40.1251C62.6755 40.2387 63.9297 40.1478 65.3427 39.8526C67.1787 39.4665 68.7201 38.8154 70.6241 37.642C71.8028 36.9076 72.3468 36.514 73.4197 35.6206C74.8477 34.4321 76.9256 32.3047 76.782 32.1836C76.7518 32.1533 76.4193 32.0019 76.0491 31.8505C72.309 30.2985 67.7831 29.973 62.7737 30.889C59.9479 31.4038 57.2505 32.7363 54.4549 35.0074C53.5708 35.7266 52.4072 36.8168 52.4526 36.8849C52.513 36.9758 53.6917 37.6874 54.3717 38.0432C55.082 38.4217 55.8224 38.7548 56.6611 39.0804C57.5225 39.421 60.2879 40.0645 61.1492 40.1251H61.1417ZM50.0196 33.8188C51.357 31.6537 52.173 29.8216 52.7624 27.664C53.3064 25.6654 53.4197 24.6585 53.3366 22.5009C53.1628 18.1857 52.0975 14.2793 50.2388 11.2283C49.7552 10.4183 49.2641 9.73693 49.2036 9.77478C49.181 9.78992 48.8938 10.1684 48.5689 10.6151C47.0654 12.6894 45.9169 14.7865 45.1009 16.9289C44.7231 17.9283 44.2093 19.942 44.1111 20.8278C43.5897 25.4382 45.1689 29.8064 48.7805 33.7356C49.1885 34.1747 49.5512 34.5229 49.5739 34.5078C49.6041 34.4851 49.8081 34.1822 50.0272 33.8264L50.0196 33.8188ZM56.85 29.3068C58.8069 28.2772 60.983 27.6186 63.5142 27.2779C64.6777 27.1265 64.5115 27.2476 64.9422 26.0666C65.2595 25.1808 65.8791 22.4252 66.0076 21.3123C66.1813 19.7755 66.3173 17.2545 66.2342 17.1106C66.1889 17.0349 64.3831 17.4665 62.9853 17.898C61.6101 18.3219 60.5297 18.7307 59.4039 19.2531C58.5727 19.6392 56.9256 20.5477 56.782 20.7066C56.7291 20.7672 56.714 21.0322 56.7518 21.5394C56.9407 24.3329 56.782 26.1044 56.1247 28.5346L55.762 29.867L56.0038 29.7459C56.1398 29.6777 56.5251 29.4809 56.8576 29.3068H56.85ZM69.2112 26.9524C71.0548 27.0129 73.1704 27.3233 74.9082 27.7927L75.9433 28.0652L76.2002 27.664C77.1371 26.218 78.2932 23.9393 78.9354 22.2586C79.5172 20.7294 80.0688 18.2538 80.0536 17.2015V16.9365L79.215 16.7775C77.53 16.452 75.3993 16.2779 73.3215 16.3006C71.8783 16.3157 69.7476 16.4747 69.725 16.5807C69.7174 16.6261 69.7023 17.1258 69.6872 17.686C69.6267 20.7218 69.3547 22.8491 68.6898 25.4004C68.4405 26.3618 68.3272 26.8918 68.3649 26.9069C68.4027 26.9221 68.773 26.9372 69.1961 26.9524H69.2112ZM57.9229 16.1265C60.0008 15.1499 62.0332 14.4761 64.7231 13.8704C65.4711 13.7039 66.0756 13.5373 66.0756 13.4919C66.0756 13.4541 66.0378 13.0831 65.9924 12.6592C65.66 9.68393 64.7835 6.2469 63.7786 3.98331L63.5822 3.54422L63.1062 3.67292C60.3937 4.39969 57.0616 6.43617 54.1073 9.19942L53.4499 9.81263L53.7144 10.3199C54.6966 12.1671 55.5127 14.3474 55.9736 16.3612L56.1247 17.0198L56.5629 16.7851C56.8047 16.6564 57.4091 16.3687 57.9154 16.1265H57.9229ZM73.3668 12.8863C74.4246 12.8863 76.0416 12.9393 76.918 13.015L77.2051 13.0377L77.2429 12.697C77.3109 12.1065 77.258 10.1155 77.1598 9.22213C77.0011 7.77615 76.646 6.15606 76.2758 5.17188C76.2304 5.05076 76.1927 4.94477 76.1851 4.9372C76.1776 4.89177 74.7042 4.76307 74.0166 4.74793C72.5055 4.71008 70.3748 4.95234 68.8712 5.33087C67.9569 5.55798 67.9872 5.53527 68.1005 5.84566C68.2969 6.44374 68.7276 8.17739 68.9316 9.19942C69.1054 10.0625 69.453 12.3563 69.5059 12.962C69.5134 13.0604 69.6872 13.0604 70.8432 12.9771C71.5686 12.9241 72.7095 12.8787 73.3744 12.8787L73.3668 12.8863Z" fill="#163B2C"></path><path d="M97.7125 43.8492C96.2996 42.4411 94.4333 41.6235 92.4462 41.5478C90.4515 41.4797 88.5323 42.1534 87.0212 43.4632L75.3173 53.6228C75.272 53.5623 75.2267 53.4941 75.1813 53.426C74.9622 53.1232 74.7129 52.8355 74.4182 52.5478C73.096 51.223 71.343 50.3599 69.4843 50.1177L39.1028 46.1658C33.8062 45.4769 28.5399 46.8699 24.2709 50.0874C20.9388 52.6008 18.5059 56.0151 17.2138 59.9064L15.1511 57.8396C14.8111 57.4989 14.3427 57.3021 13.8591 57.3021C13.3755 57.3021 12.9071 57.4914 12.5671 57.8396L0.538345 69.8919C-0.179448 70.6111 -0.179448 71.7694 0.538345 72.4811L27.4669 99.4625C27.8221 99.8183 28.2905 100 28.759 100C29.2274 100 29.6959 99.8183 30.051 99.4625L42.0797 87.4102C42.4197 87.0695 42.6162 86.6001 42.6162 86.1156C42.6162 85.6311 42.4273 85.1617 42.0797 84.8211L40.1152 82.8527H61.0975C61.0975 82.8527 61.0975 82.8527 61.105 82.8527C66.7567 82.8527 72.0759 80.6421 76.0729 76.6373L97.7049 54.9628C100.765 51.8967 100.765 46.9078 97.7049 43.8417L97.7125 43.8492ZM28.7665 95.5939L4.42954 71.2016L13.8742 61.7385L34.4107 82.3152C34.4107 82.3152 34.4182 82.3228 34.4258 82.3303L38.2112 86.1308L28.7665 95.5939ZM73.4964 74.0557C70.187 77.3716 65.7896 79.1961 61.1126 79.1961H36.4583L20.1908 62.8967C21.9664 54.5086 30.051 48.6944 38.6267 49.8073L69.0159 53.7591C70.0888 53.8954 71.0635 54.3799 71.8342 55.1445C71.9928 55.3035 72.1288 55.4625 72.2648 55.6366C72.9222 56.4921 73.2697 57.5141 73.2697 58.5967C73.2697 61.2918 71.0786 63.4873 68.3963 63.4873H44.1726C43.1602 63.4873 42.3442 64.3049 42.3442 65.3193C42.3442 66.3338 43.1602 67.1514 44.1726 67.1514H68.3963C73.1035 67.1514 76.9267 63.3131 76.9343 58.5967C76.9343 58.1197 76.8965 57.6428 76.8209 57.181L89.4314 46.2264C90.2323 45.5299 91.2599 45.1665 92.3253 45.2044C93.3831 45.2422 94.3804 45.6738 95.136 46.4308C96.768 48.066 96.768 50.7309 95.136 52.3737L73.4964 74.0557Z" fill="#163B2C"></path></svg> 