<?xml version="1.0" encoding="UTF-8"?> <svg xmlns="http://www.w3.org/2000/svg" width="100" height="82" viewBox="0 0 100 82" fill="none"><path d="M74.8393 58.5248C74.8443 61.709 72.1369 64.4235 69.0339 64.4641C68.6424 68.0175 66.7069 70.0392 63.1839 70.4743C63.0571 71.0789 62.9993 71.72 62.7863 72.3033C61.9291 74.6506 60.2534 76.0312 57.757 76.3436C56.912 76.4501 56.071 76.3324 55.2717 76.018C55.1084 75.9541 55.0191 75.9896 54.9045 76.1062C53.8546 77.1825 52.8047 78.2588 51.7436 79.3239C49.6378 81.4379 46.2578 81.6296 43.9237 79.7651C42.4762 78.6087 41.6819 77.1013 41.548 75.2501C41.545 75.2085 41.5399 75.1659 41.5328 75.1243C41.5298 75.1091 41.5186 75.0949 41.5003 75.0584C39.852 75.0411 38.3923 74.5005 37.1922 73.3359C36.0003 72.1795 35.3866 70.7563 35.3024 69.1191C31.5725 68.8128 29.5448 66.7627 29.0294 63.1018C26.249 62.9557 24.2009 61.6552 23.2302 58.9701C22.3801 56.6168 22.9157 54.4744 24.6037 52.6018C24.1918 52.1808 23.78 51.7507 23.357 51.3308C22.1448 50.1267 20.9985 48.8719 20.0957 47.4071C19.1696 45.9028 18.5112 44.2879 17.9838 42.6101C17.5821 41.334 17.155 40.066 16.7279 38.797C16.6772 38.6448 16.5849 38.4917 16.4723 38.377C15.1232 36.9914 13.7659 35.6128 12.4117 34.2322C12.3884 34.2089 12.361 34.1896 12.3772 34.2028C11.8741 34.6806 11.3689 35.1411 10.8861 35.624C10.5523 35.9567 10.2166 36.2732 9.73373 36.3584C9.11495 36.469 8.58341 36.2894 8.14418 35.8431C5.80398 33.4643 3.4648 31.0856 1.12663 28.7058C0.925782 28.5009 0.72899 28.292 0.528141 28.0861C-0.181932 27.3577 -0.173817 26.2683 0.539299 25.543C4.00344 22.019 7.46555 18.494 10.9287 14.969C12.782 13.0832 14.6342 11.1965 16.4865 9.3097C18.9434 6.8092 21.4012 4.3098 23.8561 1.8073C24.627 1.0221 25.6891 1.0008 26.459 1.7839C29 4.3676 31.537 6.9553 34.072 9.544C34.7262 10.2125 34.7486 11.2847 34.1075 11.9755C33.579 12.5446 33.0231 13.0883 32.4794 13.6442C32.4449 13.6797 32.4134 13.7172 32.3719 13.7639C32.8679 14.2731 33.3548 14.7752 33.8447 15.2733C34.6025 16.0442 35.3653 16.8101 36.121 17.5841C36.2154 17.6804 36.2915 17.7038 36.4254 17.6652C38.1356 17.1743 39.8712 16.7949 41.6353 16.5606C43.5149 16.312 45.3986 16.2086 47.2915 16.4297C47.4538 16.449 47.6475 16.4104 47.7926 16.3333C49.4988 15.4305 51.3034 14.8239 53.2084 14.5308C54.9968 14.2548 56.7923 14.2376 58.5776 14.5561C60.5668 14.9112 62.551 15.2966 64.5392 15.6598C64.6457 15.6791 64.811 15.6577 64.8759 15.5878C65.4105 15.0136 65.9279 14.4232 66.433 13.8582C66.2119 13.6168 66.007 13.3744 65.7828 13.1512C65.4237 12.7931 65.0474 12.4533 64.6883 12.0962C63.9346 11.3446 63.9265 10.2967 64.6538 9.5156C65.7422 8.3481 66.8256 7.1775 67.912 6.0089C69.2916 4.5248 70.6701 3.0387 72.0517 1.5567C72.7648 0.79187 73.8168 0.747239 74.5735 1.4695C76.4917 3.3005 78.3988 5.1426 80.3109 6.9807C82.5152 9.0997 84.7184 11.2188 86.9217 13.3378C89.1249 15.4569 91.3292 17.576 93.5324 19.695C95.4922 21.5798 97.4541 23.4625 99.4098 25.3523C100.169 26.0857 100.199 27.1325 99.4808 27.9116C97.7584 29.7801 96.0258 31.6395 94.2973 33.5039C93.5852 34.2718 92.87 35.0356 92.164 35.8086C91.4712 36.5674 90.4233 36.6353 89.6595 35.9384C89.0174 35.3521 88.3966 34.7435 87.7494 34.1288C87.296 34.6339 86.8466 35.135 86.3962 35.6372C86.3232 35.7183 86.2572 35.8106 86.173 35.8786C85.5502 36.3777 85.462 37.1283 85.255 37.8222C84.7762 39.4269 84.3766 41.0591 83.8136 42.6324C82.9412 45.069 81.6316 47.2793 80.0005 49.2929C79.8909 49.4278 79.9001 49.5181 79.9721 49.6662C81.0991 51.98 80.9368 54.1954 79.3574 56.2394C78.3014 57.6058 76.8792 58.3696 75.1334 58.4792C75.0574 58.4843 74.9823 58.4914 74.9062 58.5005C74.8819 58.5035 74.8596 58.5177 74.8362 58.5258L74.8393 58.5248ZM85.1931 31.7865C79.7875 26.6061 74.4051 21.4469 69.0146 16.2806C68.9507 16.3506 68.9 16.4054 68.8493 16.4611C68.12 17.2696 67.3997 18.0872 66.6582 18.8845C66.2697 19.3014 65.7544 19.4637 65.2016 19.3643C63.2042 19.0042 61.2089 18.633 59.2187 18.2373C57.5865 17.9127 55.9524 17.7514 54.2898 17.9533C52.1068 18.2181 50.1074 18.9565 48.2785 20.1738C47.1515 20.9245 46.2071 21.8709 45.2942 22.8609C43.027 25.3188 40.7416 27.7604 38.4653 30.2092C36.4243 32.4053 34.3874 34.6035 32.3475 36.8007C31.6669 37.5341 31.4792 38.3882 31.7744 39.3306C32.0726 40.2831 32.733 40.8968 33.7027 41.1139C34.6451 41.3248 35.4343 41.0155 36.0886 40.2963C37.2024 39.0719 38.3192 37.8495 39.4685 36.6597C41.3117 34.7526 43.1812 32.8709 45.0416 30.9811C45.7506 30.2609 46.8117 30.2376 47.5147 30.9172C48.2217 31.6009 48.2328 32.7178 47.5461 33.442C46.6798 34.355 45.8186 35.272 44.9554 36.188C43.2187 38.0321 41.4821 39.8773 39.7444 41.7215C38.1285 43.4358 36.5116 45.1501 34.8957 46.8644C33.5627 48.2775 32.2298 49.6895 30.8969 51.1025C29.6107 52.4669 28.3173 53.8231 27.0443 55.1997C26.2642 56.0436 26.1536 57.1666 26.6963 58.1769C27.4764 59.6305 29.5965 60.0961 30.7965 58.6942C31.2023 58.2205 31.6476 57.7782 32.0757 57.3238C34.0852 55.1916 36.0967 53.0603 38.1052 50.9271C39.645 49.2919 41.1828 47.6536 42.7227 46.0184C44.4532 44.1804 46.1858 42.3433 47.9184 40.5062C48.8628 39.504 49.798 38.4947 50.7536 37.5036C51.5996 36.6262 53.0258 36.8676 53.5584 37.9611C53.9114 38.6854 53.7572 39.435 53.1181 40.1096C52.6069 40.6493 52.0967 41.1899 51.5874 41.7306C50.006 43.4084 48.4256 45.0862 46.8452 46.765C45.4321 48.2653 44.0201 49.7656 42.6081 51.2659C41.051 52.9203 39.4949 54.5748 37.9378 56.2293C36.3807 57.8827 34.8196 59.5331 33.2665 61.1917C32.6184 61.8835 32.4358 62.7092 32.6934 63.6089C32.9643 64.5533 33.5891 65.1965 34.5437 65.445C35.4728 65.6864 36.2955 65.4501 36.962 64.7359C37.3596 64.3099 37.7593 63.8859 38.1579 63.4619C39.6176 61.9129 41.0784 60.3659 42.5371 58.816C44.0769 57.1808 45.6147 55.5425 47.1546 53.9073C48.8861 52.0693 50.6197 50.2332 52.3503 48.3951C53.884 46.766 55.4117 45.1308 56.9515 43.5068C57.621 42.8008 58.7024 42.7734 59.385 43.4216C60.1184 44.1185 60.1611 45.2171 59.4804 45.9403C57.9071 47.6141 56.3348 49.2888 54.7604 50.9605C52.4902 53.3697 50.217 55.7768 47.9478 58.187C45.1511 61.1562 42.3605 64.1314 39.5598 67.0964C38.9309 67.7619 38.6854 68.5328 38.8741 69.4184C39.081 70.3932 39.6755 71.0718 40.6209 71.3832C41.5734 71.6977 42.4346 71.5039 43.1487 70.7665C44.1996 69.6801 45.2505 68.5927 46.3075 67.5123C46.414 67.4038 46.3958 67.3216 46.3451 67.2039C45.8693 66.1175 45.703 64.9855 45.916 63.8169C46.337 61.499 47.6719 59.9176 49.867 59.0939C50.4331 58.8819 51.0569 58.8241 51.6808 58.6902C51.7183 57.1422 52.2823 55.7556 53.4042 54.6042C54.5292 53.4498 55.9057 52.8645 57.5226 52.8148C57.5784 51.1979 58.1363 49.8062 59.2552 48.6518C60.3842 47.4873 61.7689 46.904 63.3888 46.8492C63.3949 46.8026 63.402 46.7701 63.4041 46.7376C63.4761 44.8762 64.245 43.3638 65.6753 42.1769C67.7872 40.4231 71.0434 40.4586 73.0661 42.3129C74.0612 43.2248 74.9722 44.228 75.9308 45.1805C76.4674 45.7141 77.0243 46.2274 77.5822 46.761C77.7891 46.4719 78.0356 46.1513 78.2578 45.8145C79.3645 44.1428 80.321 42.396 80.8871 40.4596C81.4064 38.6824 81.9004 36.8981 82.4249 35.1229C82.501 34.8652 82.643 34.6045 82.8205 34.4037C83.5894 33.5303 84.3816 32.6782 85.1931 31.7886V31.7865ZM32.3353 44.4471C32.2319 44.4015 32.1507 44.3609 32.0665 44.3285C31.3646 44.0617 30.7427 43.6691 30.1818 43.171C27.6996 40.9698 27.4145 37.1111 29.5843 34.6086C30.4851 33.5688 31.4457 32.5808 32.382 31.5725C34.003 29.8278 35.627 28.0871 37.248 26.3423C38.9847 24.4748 40.7193 22.6063 42.4539 20.7368C42.6872 20.4862 42.9154 20.2316 43.1792 19.9435C40.8542 20.1829 38.6357 20.6607 36.4639 21.3566C35.6788 21.6082 35.0154 21.4682 34.4331 20.8707C33.0129 19.413 31.5796 17.9665 30.1524 16.5159C30.0844 16.4469 30.0124 16.382 29.9353 16.308C24.8836 21.4276 19.8533 26.5239 14.8148 31.6293C14.8736 31.6963 14.9142 31.748 14.9609 31.7947C16.4287 33.2889 17.9036 34.777 19.3583 36.2833C19.5733 36.5055 19.7528 36.7966 19.8533 37.0888C20.3615 38.5688 20.8524 40.0558 21.3231 41.549C21.7857 43.0179 22.3537 44.4319 23.1947 45.7314C23.8834 46.7954 24.7274 47.7236 25.6262 48.6061C26.106 49.0778 26.6051 49.5292 27.1051 49.9979C28.8154 48.1821 30.5683 46.3207 32.3353 44.4461V44.4471ZM90.7936 32.1517C92.4785 30.339 94.139 28.5517 95.8118 26.7511C88.3469 19.5753 80.8911 12.4087 73.4293 5.2369C71.7231 7.074 70.0361 8.8918 68.338 10.7207C75.8293 17.8701 83.3003 24.9993 90.7936 32.1517ZM9.41115 32.1051C16.4084 24.983 23.3793 17.8874 30.3664 10.7755C28.6267 9.0054 26.8992 7.2485 25.1626 5.4814C18.1755 12.5953 11.1985 19.697 4.20936 26.811C5.95107 28.5831 7.67147 30.335 9.41216 32.1051H9.41115ZM63.4436 50.3965C63.328 50.4036 63.2073 50.3965 63.0926 50.4199C62.1209 50.6085 61.4635 51.1857 61.1521 52.1098C60.8478 53.0157 61.0415 53.8526 61.7121 54.5403C63.5562 56.4332 65.4105 58.3169 67.2669 60.1986C68.1859 61.1298 69.5989 61.145 70.5251 60.3051C71.6176 59.313 71.6115 57.7296 70.7279 56.8227C68.8493 54.8923 66.9585 52.9731 65.0656 51.0579C64.6264 50.6136 64.0746 50.4016 63.4436 50.3986V50.3965ZM65.4978 64.4144C65.517 63.7844 65.3131 63.2286 64.8769 62.7812C62.9902 60.8478 61.0953 58.9204 59.1964 56.9982C58.7622 56.5589 58.2124 56.3348 57.5997 56.348C56.5285 56.3713 55.7677 56.9211 55.362 57.8858C54.9745 58.8078 55.1104 59.7157 55.8144 60.4451C57.691 62.3897 59.593 64.3079 61.4909 66.2311C61.9048 66.6501 62.4272 66.8621 63.0145 66.8763C64.3667 66.9098 65.4836 65.795 65.4978 64.4144ZM75.0442 54.9308C75.8395 54.8984 76.5901 54.4044 77.005 53.4661C77.4189 52.5318 77.2951 51.6158 76.5891 50.8794C74.7186 48.9287 72.8166 47.0075 70.9095 45.0923C70.307 44.4877 69.5502 44.2879 68.7174 44.51C66.9483 44.9827 66.2028 47.2184 67.6097 48.6416C69.4447 50.498 71.2727 52.3614 73.1006 54.2238C73.5693 54.7016 74.1343 54.9369 75.0442 54.9308ZM52.0409 62.3156C50.7759 62.3146 49.8914 62.906 49.5089 63.8037C49.1225 64.7086 49.299 65.7635 49.9604 66.4381C51.8167 68.3319 53.673 70.2258 55.5354 72.1136C56.4443 73.0347 57.9456 73.057 58.8434 72.1775C59.8608 71.1814 59.9237 69.6791 58.9752 68.7113C57.1088 66.8043 55.2352 64.9033 53.3636 63.0003C52.9163 62.5459 52.3675 62.3217 52.0409 62.3156ZM48.6711 70.1315C48.6122 70.1842 48.5595 70.2248 48.5138 70.2725C47.609 71.2067 46.7295 72.1653 45.7953 73.0681C44.7707 74.0572 44.8073 75.7218 45.7851 76.7291C46.7579 77.7303 48.3495 77.781 49.304 76.8234C49.7625 76.3639 50.216 75.8983 50.6714 75.4347C51.203 74.894 51.7345 74.3534 52.2782 73.8005C51.0681 72.5691 49.8731 71.3548 48.6711 70.1315Z" fill="#163B2C"></path></svg> 