<?xml version="1.0" encoding="UTF-8"?> <svg xmlns="http://www.w3.org/2000/svg" width="96" height="79" viewBox="0 0 96 79" fill="none"><path d="M94.18 48.3056C94.18 48.3056 94.1508 48.3056 94.129 48.3056C94.1144 48.3056 94.0999 48.3056 94.078 48.3056H90.7073V43.4923H93.0515C94.0562 43.4923 94.8716 42.6828 94.8716 41.6854C94.8716 40.6881 94.0562 39.8786 93.0515 39.8786H84.7302C83.7256 39.8786 82.9102 40.6881 82.9102 41.6854C82.9102 42.6828 83.7256 43.4923 84.7302 43.4923H87.0745V48.3056H81.5706V40.9699C81.5706 40.9338 81.5706 40.9049 81.5706 40.8471C81.5706 40.6953 81.5706 40.5363 81.5706 40.3845V21.6803H81.5852C81.5852 18.269 81.5852 14.8577 81.5852 11.4392C81.5852 8.90239 80.464 7.31959 78.0543 6.45229C77.0933 6.10539 76.125 5.78739 75.1495 5.46939C60.7784 0.807792 45.9413 -0.883389 31.0387 0.431991C21.6109 1.26309 12.3141 3.30849 3.41765 6.49569C1.18991 7.29789 0.00323556 8.93849 0.00323556 11.2585C-0.00404444 16.8163 0.00323556 22.3813 0.00323556 27.9391V34.6099V40.081C0.00323556 46.0074 0.00323556 51.9337 0.00323556 57.8674C0.00323556 60.3752 1.16079 62.0086 3.53413 62.8542C5.46339 63.548 7.46544 64.1985 9.4966 64.7983L5.26682 76.3909C5.07754 76.9185 5.15034 77.5039 5.46339 77.9665C5.77644 78.429 6.30061 78.7109 6.86847 78.7326L15.4882 78.9928C16.2599 78.9928 16.9297 78.5013 17.1627 77.7786L20.497 67.4508C25.4184 68.3686 30.4418 68.9613 35.4433 69.1998C44.0994 69.6117 52.7556 69.0191 61.1788 67.4291L64.5204 77.7858C64.7534 78.5158 65.4304 79 66.2531 79L74.8146 78.7398C75.3752 78.7254 75.8994 78.4363 76.2197 77.9737C76.5327 77.5112 76.6128 76.9185 76.4163 76.3982L72.1792 64.7694C74.1448 64.1913 76.0595 63.5697 77.8796 62.9265C80.4204 62.0303 81.5269 60.5126 81.5706 57.8818V51.9121H92.3599V57.0579C92.3599 58.0553 93.1753 58.8647 94.18 58.8647C95.1846 58.8647 96 58.0553 96 57.0579V50.1052C96 49.1079 95.1846 48.2984 94.18 48.2984V48.3056ZM3.57053 13.6363C3.57053 12.8268 3.57053 12.0174 3.57053 11.2151C3.57053 10.3262 4.05831 10.0588 4.42232 9.93589C5.47067 9.57449 6.53357 9.23479 7.5892 8.88789C8.47739 8.59879 9.3656 8.30969 10.2538 8.01339C10.2465 8.89519 10.2465 9.77689 10.2538 10.6658V11.815V12.8413C10.2538 13.7808 10.2465 14.7131 10.2683 15.6527C10.2683 15.7105 10.2683 15.7539 10.2683 15.7828C10.2392 15.79 10.2028 15.7972 10.1518 15.8117C7.96778 16.2092 5.7546 16.6356 3.57782 17.0981C3.5851 15.949 3.5851 14.7999 3.57782 13.6507L3.57053 13.6363ZM10.261 19.3603C10.2465 20.2276 10.2465 21.0948 10.2538 21.9621V22.3163L10.2319 24.2604C10.2319 25.2361 10.2246 26.2118 10.2465 27.1875C8.026 27.3248 5.79828 27.4838 3.57782 27.6428C3.59238 25.33 3.57782 23.0101 3.56325 20.6973C5.79828 20.2637 8.03329 19.8228 10.261 19.3603ZM3.56325 31.1842V31.1697C5.80556 31.0613 8.05509 30.924 10.2392 30.7505C10.2174 31.6901 10.2246 32.6296 10.2246 33.5692L10.2392 35.3977V35.8385C10.2392 36.7564 10.2319 37.667 10.2465 38.5849C8.0115 38.4115 5.7546 38.2597 3.55597 38.1441V38.1296C3.57781 35.8964 3.57781 33.5547 3.55597 31.1769L3.56325 31.1842ZM3.56325 41.6854C5.83468 41.8589 8.0551 42.0034 10.1518 42.1118C10.1955 42.1118 10.2319 42.1118 10.261 42.1191C10.261 42.148 10.261 42.1841 10.261 42.2275C10.2319 43.1453 10.2319 44.0704 10.2392 44.9666C10.2392 45.3352 10.2392 45.7038 10.2392 46.0796V47.301C10.2392 48.19 10.2319 49.079 10.2465 49.9679C7.69113 49.4403 5.56531 49.0139 3.56325 48.6381C3.56325 48.6236 3.56325 48.602 3.56325 48.5875C3.57782 46.2531 3.5851 43.9693 3.55597 41.6854C3.55597 41.6854 3.55597 41.6854 3.56325 41.6854ZM7.34896 60.368C6.38797 60.05 5.43427 59.7392 4.48056 59.414C3.84718 59.1972 3.57053 58.7997 3.57053 58.077V56.8339C3.57053 55.3017 3.57782 53.7767 3.57053 52.2445C5.63083 52.6926 7.76393 53.1118 10.079 53.5238C10.1664 53.5382 10.2246 53.5527 10.261 53.5671C10.261 53.596 10.261 53.6466 10.261 53.7189C10.2319 54.6368 10.2392 55.5546 10.2465 56.4508V56.7833V58.713C10.2465 59.5802 10.2465 60.4547 10.2465 61.322C9.2855 60.9968 8.3172 60.6788 7.34896 60.3608V60.368ZM14.2069 75.4731L9.402 75.3285L12.8892 65.7668C14.2652 66.1282 15.6484 66.4606 17.0171 66.7642L14.1996 75.4803L14.2069 75.4731ZM17.17 6.30059C17.119 8.59879 17.1336 10.926 17.1408 13.1809C17.1408 14.0771 17.1408 14.9805 17.1408 15.8767V40.9338C17.1336 48.2912 17.1336 55.6414 17.1554 62.9988C17.1554 63.0493 17.1554 63.0855 17.1554 63.1288L16.5075 62.9843C15.5974 62.7241 14.6801 62.5217 13.8283 62.3411C13.8211 62.3411 13.8065 62.3411 13.7992 62.3411C13.7992 62.3266 13.7992 62.3194 13.7992 62.3049C13.8211 61.8352 13.8138 61.3654 13.8065 60.8956C13.8065 60.6788 13.8065 60.4692 13.8065 60.2524V50.4016C13.8065 36.1638 13.8065 21.9332 13.7847 7.69539C13.7847 6.91489 13.8793 6.90039 14.3452 6.84259C15.3572 6.70529 16.3109 6.43059 17.0316 6.19939C17.0826 6.18489 17.1263 6.17049 17.1627 6.16319C17.1627 6.20659 17.1627 6.24999 17.1627 6.30779L17.17 6.30059ZM20.7081 5.57059C20.7081 5.51279 20.7081 5.46939 20.7081 5.44049C20.7373 5.43329 20.7809 5.41879 20.8392 5.40439C34.0819 2.93259 47.5138 2.93259 60.7565 5.41159C60.7929 5.41879 60.8221 5.42609 60.8512 5.43329C60.8512 5.44769 60.8512 5.46939 60.8512 5.49109C60.8293 8.70719 60.8221 11.5837 60.8512 14.2795C54.2699 13.5279 47.5721 13.152 40.9398 13.152C40.8379 13.152 40.7432 13.152 40.6413 13.152C33.8926 13.152 27.1875 13.5351 20.7009 14.2867C20.7227 11.2151 20.7227 8.36029 20.7009 5.56339L20.7081 5.57059ZM60.8585 63.8877C60.7929 63.9022 60.7201 63.9166 60.6837 63.9238C53.6365 65.2175 47.1207 65.8319 40.7797 65.7668H40.7651C34.5114 65.8029 28.0029 65.2103 20.861 63.9238C20.7955 63.9094 20.7445 63.9022 20.7154 63.8877C20.7154 63.8588 20.7154 63.8227 20.7154 63.7793C20.7373 61.0257 20.7373 58.1709 20.7154 55.0415C32.9534 56.4364 45.6428 56.5375 58.4341 55.3234C59.3296 55.2366 60.094 55.1571 60.8512 55.0487C60.8366 58.3877 60.8366 61.1847 60.8512 63.8877H60.8585ZM60.8657 51.2255C60.8657 51.3483 60.8657 51.4278 60.8585 51.4712C60.8148 51.4857 60.7492 51.5001 60.6473 51.5073C51.5034 52.5553 42.0464 52.8661 32.5312 52.4252C28.7819 52.2518 24.887 51.9482 20.9629 51.5146C20.8392 51.5001 20.7591 51.4857 20.7154 51.4712C20.7154 51.4278 20.7009 51.3628 20.7081 51.2544C20.7445 48.4646 20.7445 45.6099 20.7081 42.7768C20.7081 42.7189 20.7081 42.6683 20.7081 42.625C20.7518 42.625 20.8101 42.625 20.8829 42.625C27.2603 42.8563 33.878 42.9791 41.1145 43.008C48.686 42.9647 54.8741 42.8418 60.5745 42.6178C60.7128 42.6178 60.8075 42.6178 60.8657 42.6178C60.8657 42.6756 60.8803 42.7768 60.873 42.9213C60.8148 45.8339 60.8366 48.7393 60.873 51.1966L60.8657 51.2255ZM20.73 30.4036C20.73 30.3313 20.73 30.2807 20.73 30.2446C20.7664 30.2446 20.8101 30.2374 20.8756 30.2302C25.6295 30.0278 30.3326 29.97 34.8754 29.9194C36.6445 29.8977 38.3699 29.876 40.0152 29.8471L41.7989 29.8616C48.3583 29.9266 54.5611 29.9844 60.6255 30.2229C60.7201 30.2229 60.7929 30.2302 60.8366 30.2374C60.8366 30.2808 60.8366 30.3386 60.8366 30.4253C60.8002 33.2078 60.8148 36.0265 60.8657 38.8017C60.8657 38.9463 60.8657 39.033 60.8512 39.0836C60.8002 39.0981 60.7056 39.1053 60.5527 39.1125C47.4774 39.5606 34.1619 39.5606 20.9775 39.1125C20.8392 39.1125 20.7518 39.0981 20.7009 39.0836C20.7009 39.0402 20.6863 38.968 20.6936 38.8596C20.7445 35.8747 20.7373 32.9043 20.7227 30.3892L20.73 30.4036ZM60.8512 26.4214C60.8512 26.537 60.8512 26.6165 60.8439 26.6671C60.7856 26.6671 60.6983 26.6743 60.5745 26.6671C53.4618 26.4214 46.9897 26.3057 40.7869 26.2985C33.9581 26.2696 26.9909 26.472 20.9921 26.6671C20.8756 26.6671 20.7955 26.6671 20.7445 26.6671C20.7445 26.6093 20.7373 26.5298 20.7373 26.4069C20.7882 23.357 20.7737 20.8202 20.7009 18.4207C20.679 17.8136 20.6863 17.8064 21.2978 17.7414C30.4782 16.7946 39.0542 16.4983 47.5138 16.8307C51.3942 16.9825 55.6167 17.2933 60.4071 17.7703C60.7638 17.8064 60.8512 17.857 60.8439 17.8498C60.8439 17.8642 60.8876 17.951 60.8803 18.2401C60.8075 20.6757 60.8002 23.2775 60.8512 26.4286V26.4214ZM78.0033 20.7263C77.9888 23.0245 77.9815 25.33 78.0033 27.6356C75.7829 27.4693 73.5697 27.332 71.3492 27.1947C71.3492 27.1947 71.3492 27.1875 71.3492 27.1802C71.3783 26.219 71.3711 25.2578 71.3638 24.2965L71.3419 22.4464V22.0127C71.3419 21.1238 71.3492 20.242 71.3347 19.3531C73.8827 19.8807 76.0086 20.3071 78.0033 20.6829H78.0179C78.0179 20.6973 78.0179 20.7046 78.0179 20.7263H78.0033ZM71.3274 8.00619C72.0772 8.25189 72.8271 8.49769 73.5842 8.74339C74.7782 9.13369 75.9722 9.51669 77.1515 9.92139C77.7048 10.1093 77.9815 10.5068 77.9961 11.1212C78.0106 11.8367 78.0106 12.5522 78.0033 13.2677V15.1829C77.9961 15.8117 77.9961 16.4477 78.0033 17.0765C75.6955 16.5922 73.3586 16.1514 71.3419 15.7755C71.3347 15.7755 71.3274 15.7755 71.3201 15.7755C71.3201 15.7611 71.3201 15.7539 71.3201 15.7394C71.3419 13.1593 71.3419 10.5647 71.3201 8.02069L71.3274 8.00619ZM71.3274 35.8096V35.441L71.3492 33.533C71.3492 32.6296 71.3638 31.6901 71.3347 30.7578C73.3731 30.9095 75.5572 31.0468 78.0033 31.1769C77.9888 33.4897 77.9888 35.8024 78.0033 38.1585H77.865C75.6809 38.2958 73.5042 38.4331 71.3201 38.5994C71.3347 37.6743 71.3274 36.742 71.3201 35.8096H71.3274ZM64.4258 63.1216C64.4258 62.9265 64.4258 62.7241 64.4258 62.529V62.1532V6.38009C64.4258 6.31499 64.4258 6.24999 64.4258 6.18489C64.4913 6.19939 64.5568 6.21379 64.615 6.22829C64.9572 6.30779 65.2921 6.39449 65.627 6.48849C66.2385 6.64749 66.8646 6.81369 67.5053 6.92929C67.6654 6.95819 67.7382 6.99439 67.7382 6.98709C67.7455 7.00879 67.7746 7.08829 67.7746 7.31959C67.7528 10.7237 67.7601 14.1277 67.7601 17.5318V21.5213V30.129C67.7601 40.6519 67.7601 51.1749 67.7819 61.6906C67.7819 62.3917 67.6873 62.4133 67.2359 62.4856C66.2822 62.6446 65.3285 62.8759 64.433 63.1144L64.4258 63.1216ZM72.2738 75.3213L67.4689 75.4659L64.6442 66.7208C65.8235 66.4606 66.9738 66.186 68.0731 65.9041L68.7793 65.7451L72.2738 75.3213ZM78.0033 55.4824C78.0033 56.3785 78.0033 57.282 78.0033 58.1781C78.0033 58.8214 77.7121 59.2189 77.1006 59.4285C76.0741 59.7754 75.033 60.1151 73.9992 60.4547C73.1038 60.7438 72.2083 61.0329 71.3201 61.3365C71.3347 60.4692 71.3274 59.6019 71.3201 58.7346V57.571V56.5231C71.3201 55.5619 71.3274 54.6006 71.3128 53.6394C71.3128 53.6105 71.3128 53.5888 71.3128 53.5671C71.3347 53.5671 71.3565 53.5599 71.3856 53.5527C73.4823 53.1696 75.6445 52.7432 77.9961 52.2518C77.9888 53.3286 77.9961 54.4055 77.9961 55.4896L78.0033 55.4824ZM77.9961 48.5297C77.9961 48.5803 77.9961 48.6236 77.9961 48.6526C77.9888 48.6526 77.9742 48.6526 77.9596 48.6526C76.0231 49.0067 73.9119 49.4259 71.3201 49.9752C71.3419 49.079 71.3347 48.1756 71.3347 47.2794V46.1375V44.9522C71.3347 44.0343 71.3419 43.1164 71.3201 42.1986C71.3201 42.1624 71.3201 42.1408 71.3201 42.1118C71.3347 42.1118 71.3419 42.1118 71.3565 42.1118C73.708 41.989 75.8848 41.8517 78.0106 41.6854C77.9815 44.0054 77.9888 46.347 78.0033 48.5297H77.9961Z" fill="#163B2C"></path></svg> 