<?xml version="1.0" encoding="UTF-8"?> <svg xmlns="http://www.w3.org/2000/svg" id="Layer_1" data-name="Layer 1" viewBox="0 0 237.46 180.83"><defs><style> .cls-1 { fill: #000; } .cls-1, .cls-2, .cls-3, .cls-4 { stroke-width: 0px; } .cls-2 { fill: #a76b36; } .cls-3 { fill: #e32726; } .cls-4 { fill: #fff; } </style></defs><g><path class="cls-2" d="M150.55,19.24c-.77-.92-1.66-1.88-2.64-2.86-.08-.08-.21-.08-.3,0-.08.08-.09.21,0,.3.43.47.84.93,1.22,1.38.89,1.05,1.27,2.44,1.06,3.8-1.99,12.47-4.81,22.65-8.39,30.26-.71,1.52-2.18,2.56-3.83,2.73-5.11.51-10.53.83-16.12.97-5.59.14-11.03.08-16.15-.16-.85-.04-1.69-.33-2.42-.83-.08-.06-.19-.05-.27.02-.07.07-.09.18-.03.27.91,1.43,2.44,2.34,4.1,2.42,3.29.16,6.71.24,10.21.24,1.96,0,3.95-.03,5.96-.08,5.6-.14,11.04-.47,16.15-.98,1.79-.18,3.39-1.32,4.17-2.97,3.6-7.65,6.43-17.87,8.42-30.38.24-1.48-.18-2.99-1.15-4.14Z"></path><path class="cls-3" d="M118.76.31c-8.46,3.65-19.71,12.17-25.52,19.8-.65.85-.9,1.95-.67,3,1.96,9.29,5.07,20.66,9.8,29.53.61,1.15,1.78,1.91,3.08,1.98,10.24.5,21.91.21,32.11-.81,1.3-.13,2.43-.95,2.98-2.13,4.28-9.1,6.81-20.6,8.3-29.98.17-1.06-.13-2.14-.82-2.96-6.19-7.33-17.85-15.27-26.48-18.5-.9-.34-1.9-.31-2.78.07Z"></path><path class="cls-4" d="M145.44,20.22c-5.5-6.52-16.26-14.04-24.5-17.11-.21-.08-.45-.12-.68-.12,0,0-.03,0-.03,0-.24,0-.48.06-.71.16-8.08,3.49-18.45,11.53-23.61,18.32-.33.43-.45.98-.34,1.52,2.43,11.5,5.51,20.81,9.16,27.65.32.6.91.98,1.57,1.01,3.06.15,6.27.22,9.53.22,1.87,0,3.75-.02,5.63-.07,5.26-.13,10.35-.44,15.13-.91.66-.06,1.22-.47,1.51-1.09,3.3-7.02,5.91-16.46,7.76-28.07.09-.54-.07-1.09-.42-1.5ZM97.27,22.15c5.09-6.56,15.06-14.27,22.84-17.63.05-.02.1-.03.15-.03h0c.06,0,.1,0,.15.03,7.92,2.96,18.23,10.12,23.65,16.4l-23.46,4.56-23.33-3.34ZM120.3,32.85l-14.42,16.75c-3.48-6.63-6.43-15.6-8.79-26.65l23.21,9.9ZM136.04,49.42c-4.64.45-9.56.74-14.63.87-1.87.05-3.74.07-5.56.07-3.23,0-6.41-.07-9.43-.22l14.56-9.79,15.07,9.07ZM136.75,49.1l-15.49-16.27,23.09-11.24c-1.82,11.4-4.38,20.65-7.6,27.52ZM113.43,15.28l.18,1.11c.01.07,0,.15-.05.21s-.11.1-.19.11l-1.99.32.66,4.17c.02.15-.08.3-.24.32l-1.4.22s-.03,0-.04,0c-.14,0-.26-.1-.28-.24l-.88-5.55c-.01-.07,0-.15.05-.21.04-.06.11-.1.18-.11l3.67-.58s.03,0,.04,0c.14,0,.26.1.28.24ZM124.91,16.01c.5,0,.8.12.99.21.04.02.08.03.12.03s.08,0,.12-.03c.08-.04.13-.1.15-.19l.27-1.06c.03-.13-.03-.27-.15-.33-.39-.19-.96-.31-1.49-.32h-.08c-2,0-3.36,1.3-3.39,3.23-.03,1.89,1.23,3.18,3.13,3.21h.08c.71,0,1.31-.15,1.64-.3.12-.05.19-.18.17-.31l-.18-1.05c-.01-.08-.07-.16-.14-.2-.04-.02-.09-.04-.14-.04-.04,0-.07,0-.11.02-.21.08-.51.18-.96.18h-.05c-.41,0-.77-.15-1.02-.41-.27-.27-.4-.67-.39-1.15,0-.92.56-1.52,1.43-1.52ZM117.55,14.51c-.09,0-.19,0-.28.01-1.9.14-3.09,1.55-2.94,3.5.13,1.76,1.36,2.95,3.06,2.95.09,0,.18,0,.28-.01.89-.07,1.67-.44,2.2-1.06.54-.63.78-1.47.71-2.44-.13-1.76-1.35-2.94-3.03-2.94ZM117.51,19.36c-.72,0-1.1-.77-1.15-1.54-.03-.45.04-.87.2-1.17.17-.33.44-.5.8-.53.03,0,.05,0,.08,0,.79,0,1.07.95,1.12,1.52.07.97-.32,1.67-.96,1.72-.03,0-.05,0-.08,0ZM132.75,15.18c.05.06.07.13.06.21l-.12,1.09c-.02.15-.14.25-.28.25-.01,0-.02,0-.03,0l-1.39-.15-.45,4.22c0,.07-.05.14-.1.19-.05.04-.11.06-.18.06-.01,0-.02,0-.03,0l-1.41-.15c-.16-.02-.27-.16-.25-.31l.45-4.22-1.39-.15c-.07,0-.14-.05-.19-.1-.05-.06-.07-.13-.06-.21l.12-1.09c.02-.15.14-.25.28-.25.01,0,.02,0,.03,0l4.76.51c.07,0,.14.05.19.1Z"></path></g><g><path class="cls-2" d="M135.75,102.57s-.04-.09-.04-.14c0-.02,0-.03,0-.05,0,0,0,0,0,0,0,0,0,0,0,0,0-.05.03-.1.06-.14.02-.02.04-.04.06-.06.04-.03.08-.04.13-.05,0,0,0,0,0,0h0s.02,0,.03,0h0s.09.01.13.03c.32.13.64.21.95.24h.16c.06.02.12.02.19.02.58,0,2.35,0,9.06-8.5.05-.07.14-.11.22-.11.01,0,.03,0,.04,0,.1.01.18.08.22.17.17.41.38.82.64,1.25.06.1.05.23-.02.32l-.06.07c-2.59,3.22-4.7,5.5-6.3,6.78-.16.13-.31.24-.45.34-.02.01-.03.02-.05.03-.14.1-.27.18-.39.26,0,0-.05.03-.05.03-.12.07-.24.14-.39.22-.11.06-.21.11-.32.15-.24.1-.47.16-.73.2-.03,0-.06,0-.09.01h-.12s-.09,0-.09,0c-.07,0-.14,0-.21,0h-.17c-.21-.04-.43-.08-.64-.13-.03,0-.06-.02-.12-.04-.17-.05-.33-.11-.49-.18l-.08-.04c-.17-.08-.34-.17-.52-.28-.17-.11-.34-.22-.5-.35,0,0-.02-.01-.02-.02-.02-.02-.03-.03-.04-.05,0,0,0,0,0,0ZM178.26,69.46c-.04.14.02.29.15.35.04.02.08.03.12.03.1,0,.19-.05.24-.14.64-1.08,1.26-2.29,1.86-3.59.02-.04.03-.08.03-.13,0-.32-.04-.62-.09-.93,0,0-.01-.07-.01-.07-.09-.53-.25-1-.46-1.41,0,0-.03-.05-.03-.05-.19-.35-.43-.65-.7-.91l-.05-.05c-.23-.2-.48-.36-.75-.49l-.07-.03c-.12-.05-.23-.1-.33-.13-.03,0-.06-.01-.09-.01-.1,0-.19.05-.24.14-.07.11-.05.26.05.35,1,.95,1.31,2.7.89,5.06-.12.69-.29,1.37-.5,2.01ZM208.2,76.66c-.13,0-.25,0-.38-.02-.23-.02-.47-.07-.74-.15-.08-.02-.16-.06-.24-.09l-.06-.02c-.12-.05-.24-.1-.36-.15-.13-.06-.25-.13-.37-.2-.07-.04-.13-.08-.19-.12-.14-.1-.29-.19-.42-.3-.11-.09-.14-.24-.07-.37.05-.09.15-.14.24-.14.04,0,.07,0,.11.02.38.16.7.25,1.01.28.11.01.22.02.32.02.07,0,.15,0,.22,0,2.86-.2,6.49-7.08,8.93-13.44.04-.11.15-.18.26-.18,0,0,0,0,.01,0,.13,0,.26,0,.39,0s.29,0,.44,0c0,0,0,0,.01,0,.07,0,.14.03.2.08.06.05.09.13.09.2,0,.43.01.87.04,1.31,0,.04,0,.08-.02.12-.15.38-.31.77-.47,1.15l-.02.05c-.15.37-.31.74-.47,1.1l-.02.05-.02.05c-.15.35-.31.69-.46,1.04l-.05.11-.03.06c-.15.32-.3.64-.45.96l-.08.16-.03.06c-.14.29-.29.59-.43.87l-.1.2-.04.08c-.14.26-.28.53-.42.78l-.13.23-.05.09c-.13.24-.26.47-.4.7l-.15.26-.06.09c-.13.21-.25.42-.38.61-.06.09-.12.18-.18.27l-.06.09c-.12.18-.24.36-.36.53-.07.09-.13.18-.2.27l-.07.09-.04.06c-.1.13-.2.27-.29.4-.07.09-.15.18-.22.27l-.07.08-.07.08c-.08.1-.17.21-.25.3-.08.09-.16.17-.24.25l-.07.08-.08.08c-.07.08-.15.16-.22.23-.09.08-.17.16-.26.23l-.07.06-.08.07c-.07.06-.13.12-.2.17-.1.08-.2.14-.29.2l-.07.04-.08.05c-.06.04-.12.08-.18.11-.12.07-.24.12-.36.17l-.05.02-.06.03c-.05.02-.1.05-.15.06-.22.07-.43.11-.63.13-.09,0-.17,0-.26,0ZM163.1,85.58c-.14.41-.29.81-.45,1.22l-.08.21c-.63,1.59-1.39,3.16-2.26,4.66l-.04.07-.08.14c-.19.32-.38.63-.57.94l-.09.14-.05.08c-.54.85-1.11,1.65-1.7,2.39l-.05.06c-.09.12-.19.24-.28.35-.14.17-.27.32-.41.48-.14.16-.27.3-.4.45l-.07.08c-.09.1-.18.19-.26.28-.26.26-.49.48-.7.66-.04.03-.08.06-.11.09l-.07.06c-.18.15-.36.29-.53.42-.07.05-.14.09-.23.15-.16.1-.31.19-.46.27l-.05.03c-.05.03-.1.05-.15.07-.24.11-.43.17-.61.2-.2.03-.41.05-.64.05h-.09c-.14,0-.27,0-.41-.02-.21-.02-.43-.06-.67-.13-.15-.04-.29-.1-.44-.15l-.06-.02s-.08-.03-.12-.05c-.18-.08-.36-.18-.57-.3-.19-.12-.37-.25-.55-.39-.11-.09-.14-.24-.07-.36.05-.09.15-.14.24-.14.04,0,.07,0,.11.02.37.15.7.24,1.03.27.13.01.25.02.38.02.2,0,.41-.02.61-.05,2.56-.41,9.97-9.81,10.72-19.81,0-.13.1-.23.23-.26.11-.02.23-.05.35-.07.02,0,.04,0,.05,0,0,0,.01,0,.02,0h0c.16,0,.28.13.28.28,0,.04,0,.08-.02.11-.82,2.8-1.12,5.07-.84,6.58.05.27.1.52.16.77.01.05.01.11,0,.16ZM172.41,78.83c.75-.96,1.66-2.2,2.7-3.67.02-.02.03-.05.04-.07.1-.25.2-.49.29-.73.1-.24.19-.46.28-.67.05-.11.02-.23-.06-.31l-1-1.03c-.05-.06-.13-.09-.2-.09-.02,0-.03,0-.05,0-.09.02-.17.08-.21.16-.71,1.59-1.66,4.11-2.29,6.14-.04.13.02.27.14.34.04.02.09.03.13.03.08,0,.17-.04.22-.11ZM142.63,89.6c.08,0,.16-.03.22-.1,1.58-1.91,3.31-4.1,4.86-6.19.02-.03.04-.06.05-.09.3-1.07.61-2.13.9-3.1,0-.03.01-.06.01-.09-.01-.33-.04-.59-.09-.84-.04-.22-.11-.44-.19-.68-.02-.06-.04-.12-.07-.17l-.02-.06c-.05-.13-.11-.26-.17-.38-.05-.09-.09-.18-.14-.27-.05-.09-.11-.18-.17-.27l-.03-.05c-.06-.08-.11-.17-.18-.25-.02-.02-.04-.05-.06-.07-.37-.43-.76-.75-1.2-.99-.19-.1-.36-.18-.52-.24-.03-.01-.07-.02-.1-.02-.1,0-.19.05-.24.14-.07.12-.05.27.06.36.67.58,1.13,1.4,1.33,2.39.65,3.14-2.07,7.46-4.46,10.53-.1.12-.07.3.05.4.05.04.12.06.18.06ZM163.21,71.98s.05,0,.07,0c.76-.2,1.87-.9,3.05-1.9.02-.01.03-.03.05-.05.34-.49.7-1.01,1.08-1.55l.03-.05.03-.05c.38-.54.77-1.12,1.18-1.72,0,0,.05-.07.05-.07.42-.62.85-1.26,1.3-1.92.42-.63.86-1.29,1.29-1.96l.06-.09.11-.17c.42-.64.85-1.3,1.28-1.98l.23-.36c.43-.67.86-1.36,1.3-2.06l.12-.2.08-.14c.45-.73.9-1.47,1.35-2.21l.03-.05.03-.05c.44-.73.87-1.46,1.3-2.2l.08-.14.11-.19c.42-.73.84-1.46,1.25-2.19l.03-.05.22-.39c.4-.73.8-1.45,1.18-2.18l.16-.3.06-.12c.39-.75.78-1.49,1.15-2.23l.07-.14.05-.11c.36-.73.71-1.46,1.05-2.18l.04-.09.05-.11c.32-.69.63-1.4.95-2.16l.05-.12.1-.24c.28-.68.55-1.37.8-2.04l.14-.37c.26-.72.48-1.36.66-1.98l.05-.16.03-.11c.22-.75.39-1.39.52-1.97l.05-.22s0-.04,0-.06v-.22c0-.22-.03-.44-.08-.66-.09-.38-.26-.74-.48-1.07-.26-.38-.59-.71-.99-.98l-.97-.66s-.1-.05-.16-.05c-.04,0-.09.01-.13.03l-.09.04c-.09.04-.15.13-.15.23s.04.19.12.25c.9.66,1.23,1.56,1.23,2.19v.19l-.04.18c-2.72,12.17-17.04,32.71-21.36,38.71-.07.1-.07.23,0,.33.05.08.14.12.23.12ZM199.87,74.01c.59-.87,1.23-1.84,1.9-2.87.05-.08.14-.13.24-.13.01,0,.02,0,.03,0,.11.01.2.09.23.19.13.36.27.69.44.97.06.11.14.23.22.35.06.09.06.22,0,.31-.47.73-.95,1.45-1.44,2.17-1.26,1.86-2.27,3.25-3.1,4.26-.31.38-.61.72-.87,1-.26.27-.5.5-.72.69-.22.18-.42.33-.62.44-.51.3-.92.35-1.29.36h-.1c-.11,0-.22,0-.33-.02-.19-.02-.38-.06-.57-.11-.02,0-.05-.02-.08-.03-.16-.05-.31-.11-.51-.2-.16-.08-.33-.17-.49-.27-.17-.11-.34-.23-.5-.36-.11-.09-.14-.24-.07-.37.05-.09.15-.14.24-.14.04,0,.07,0,.11.02.29.12.54.19.78.21.09,0,.18.01.27.01h.08c1.04-.03,2.09-.52,6.15-6.51ZM78.38,122.84c-1.99,3.47-3.5,5.71-4.64,6.88-.09.1-.18.18-.3.28-.08.07-.15.13-.27.22-.07.05-.13.1-.19.14,0,0-.04.03-.05.03-.06.04-.11.07-.17.1,0,0-.05.02-.05.02-.05.02-.1.05-.14.06l-.08.03-.09.03-.13.04c-.18.05-.37.09-.6.11-.05,0-.09,0-.18.01-.1,0-.19,0-.29,0s-.18,0-.27-.01c-.18-.02-.35-.05-.54-.1-.03,0-.06-.02-.14-.04-.13-.04-.26-.09-.38-.14l-.12-.06c-.13-.06-.25-.13-.38-.22l-.06-.04c-.14-.1-.27-.2-.4-.31-.1-.09-.12-.24-.06-.35.05-.09.15-.14.24-.14.03,0,.06,0,.09.02.23.08.44.13.65.15.1,0,.19.01.29.01.28,0,.55-.04.83-.12.57-.16,1.9-.54,6.9-9.61,0-.02.02-.03.03-.05,0,0,0,0,0,0,0,0,0,0,0,0,.01-.02.03-.03.05-.04,0,0,0,0,0,0,0,0,0,0,0,0,.04-.03.09-.05.15-.06h0s0,0,0,0c0,0,.02,0,.03,0,0,0,0,0,0,0h0c.16,0,.28.13.28.28,0,.02,0,.04,0,.06-.11,1.09-.11,1.97,0,2.6.01.06,0,.14-.04.2ZM219.5,46.41c.31.63.4,1.68.25,3.12-.01.14.08.27.22.31.02,0,.04,0,.07,0,.12,0,.22-.07.27-.18.28-.73.59-1.54.93-2.4.03-.07.03-.14,0-.21,0-.02-.01-.04-.02-.06-.02-.05-.03-.11-.06-.15-.15-.3-.32-.59-.51-.88l-.08-.13c-.19-.27-.38-.51-.57-.71,0,0-.05-.05-.05-.05-.44-.44-.93-.76-1.44-.93-.03-.01-.06-.01-.09-.01-.1,0-.19.05-.24.14-.07.12-.04.26.06.35.48.43.91,1.03,1.29,1.79ZM193.62,65.05c.39.47.6,1.01.73,1.37.1.26.25.77.41,1.27.19.62.57,1.88.94,2.86.04.1.12.16.22.18.02,0,.03,0,.05,0,.08,0,.17-.04.22-.11.2-.25.42-.53.64-.83.05-.07.07-.17.04-.26-.17-.53-.32-1.02-.42-1.34-.09-.29-.17-.55-.24-.77-.07-.22-.13-.41-.18-.54-.04-.1-.08-.2-.13-.32-.11-.27-.28-.64-.55-1.02.41-.43.84-.86,1.27-1.3l.05-.05.06-.06c.53-.53,1.05-1.03,1.55-1.5.07-.07.11-.18.08-.28-.02-.1-.1-.18-.2-.21l-.4-.11.17-.87s.01-.06.01-.09c0-.16-.12-.28-.28-.28h0c-.07,0-.14.03-.19.07-1.12,1.01-2.41,2.28-3.83,3.77-.1.1-.1.27-.01.38ZM221.57,72.58c-.11-.09-.13-.24-.06-.36.05-.09.15-.14.25-.14.04,0,.08,0,.12.02.3.13.62.21.95.24.12.01.24.02.35.02,3.5,0,6.79-5.52,10.96-14.44.52-1.1.92-1.96,1.07-2.2l.5-.77-1.62-3.63c-.03-.06-.03-.13-.01-.2-.06-.03-.11-.08-.14-.14l-.29-.64-1.68,2.75c-1.08,1.76-2.25,3.61-3.4,5.35-.01.02-.03.04-.05.06-.37.31-.73.61-1.02.83-.04.24-.07.51-.09.79,0,.05-.02.09-.05.13-.45.67-.89,1.28-1.28,1.83-.05.08-.14.12-.23.12-.03,0-.06,0-.09-.01-.12-.04-.2-.15-.2-.27,0-1.24.1-2.54.25-3.46.01-.07.05-.14.11-.18,1.39-1.06,4.83-3.95,6.71-7.84.74-1.53,4.29-9.32,1.54-11.96-.1-.09-.11-.24-.04-.35.05-.09.15-.13.24-.13.03,0,.06,0,.09.02l.05.02c.15.05.3.1.44.18.26.14.5.31.72.51.05.05.09.1.13.15.02.02.03.04.07.09.12.13.23.26.33.42.04.07.08.14.11.21l.04.09.02.05c.07.14.14.27.19.42.03.08.05.17.07.25l.03.13c.04.15.08.31.11.47.02.09.03.19.04.29v.09c.03.18.05.35.06.54,0,.11,0,.23,0,.35v.06c0,.18,0,.37-.02.56,0,.14-.02.28-.04.42-.02.19-.04.39-.07.58-.02.14-.04.28-.07.42-.03.2-.07.39-.11.59-.03.14-.06.28-.09.41-.05.2-.1.39-.15.59-.04.14-.07.27-.11.4-.06.19-.11.39-.18.62-.04.12-.07.23-.11.35-.06.19-.12.37-.19.56l-.03.09-.1.27c-.06.18-.13.35-.19.52l-.04.1-.09.23c-.06.16-.13.31-.19.46l-.04.11-.08.19-.15.35h0s.01,0,.02,0c.11,0,.2.07.24.17l2.34,5.25c.04.09.03.19-.02.27l-.58.9c-.03.05-.09.15-.15.28-.07.14-.16.32-.25.52-.1.2-.2.42-.31.65l-.32.69c-.28.59-.55,1.16-.81,1.72l-.13.27-.09.19c-.19.39-.38.78-.56,1.15l-.19.37-.11.23-.08.16c-.13.26-.26.51-.38.76l-.21.39-.11.21-.08.15c-.12.23-.24.45-.35.67-.07.14-.15.27-.22.4l-.1.18-.07.13c-.11.2-.23.41-.34.6-.08.13-.15.26-.23.39l-.1.16-.06.1c-.11.19-.22.38-.33.56-.08.13-.16.26-.24.38l-.08.13-.04.06c-.12.18-.23.36-.34.53-.08.13-.17.25-.25.37l-.07.11-.03.05c-.11.16-.23.33-.34.48-.09.12-.18.24-.27.36l-.07.08c-.12.15-.24.31-.36.45-.1.12-.19.23-.29.33l-.04.04c-.12.14-.24.28-.37.4-.11.11-.22.22-.33.33-.12.12-.24.23-.37.34-.11.1-.22.19-.33.27-.12.1-.25.19-.37.28-.11.08-.22.15-.34.22-.12.08-.25.15-.37.21-.11.06-.23.11-.34.16-.13.05-.25.1-.38.14-.12.04-.23.07-.35.1-.13.03-.26.05-.39.07-.12.02-.24.03-.36.03-.1,0-.2,0-.3,0s-.19,0-.29-.01c-.38-.04-.76-.14-1.15-.3-.2-.09-.41-.19-.62-.32-.19-.12-.39-.25-.58-.39ZM185.44,80.52c-.39,1.68-.93,2.45-1.15,2.7l-.2.23-4.14,2.28-1.71-.21s-.02,0-.04,0c-.14,0-.26.1-.28.24l-.08.53c-.01.08,0,.15.05.22.05.06.12.1.19.11l3.03.38s.02,0,.03,0c.05,0,.09-.01.14-.04l4.26-2.34s.06-.04.08-.06l.23-.27c.14-.16.35-.45.58-.92.06-.12.12-.25.18-.39.2-.48.37-1.03.51-1.64l.09-.39c.07-.34.15-.65.22-.96l.05-.23c.06-.27.12-.48.17-.68l.02-.08.05-.18c.07-.26.14-.52.21-.76l.03-.09.02-.07c.05-.19.11-.36.16-.54l.08-.26c.04-.13.08-.26.12-.38l.02-.06.06-.18c.06-.17.12-.33.17-.49.03-.07.02-.15-.01-.22-.31-.61-.55-1.2-.68-1.65-.03-.11-.14-.22-.26-.23,0,0-.02,0-.03,0-.11,0-.21.04-.26.14-.64,1.43-1.26,3.48-1.84,6.09l-.09.39ZM191.62,59.12c.08,0,.16-.03.21-.1.64-.72,1.25-1.38,1.88-2.03.03-.03.06-.08.07-.12l.34-1.26s.02-.07.02-.11c0-.16-.12-.28-.28-.28h0s0,0,0,0h0s0,0,0,0h0s0,0,0,0h0s-.07,0-.1.02l-1.49.59c-.08.03-.15.1-.17.19l-.74,2.74c-.03.13.02.26.14.32.04.02.09.03.13.03ZM177.66,79.81s0,0,.01-.01c0,0,0,0,0,0,.02-.02.04-.04.06-.05.04-.03.09-.04.14-.05h0s0,0,0,0c0,0,.01,0,.02,0h0c.16,0,.28.13.28.28,0,.03,0,.05-.01.08l-.45,2.8s-.03.09-.05.13c-4.73,6.31-6.27,7.76-7.08,8.32-.09.06-.17.11-.26.16-.08.04-.15.08-.23.11-.07.03-.13.05-.2.07-.06.02-.12.03-.18.04-.05,0-.1.02-.15.02-.17.03-.34.04-.54.04h-.06c-.13,0-.25,0-.38-.02-.15-.02-.32-.05-.52-.09l-.11-.03c-.37-.1-.73-.26-1.08-.46,0,0-.06-.04-.06-.04-.2-.12-.38-.25-.55-.38-.11-.09-.14-.24-.07-.36.05-.09.15-.14.24-.14.04,0,.07,0,.11.02.31.13.63.21.94.24.11.01.23.02.34.02.17,0,.33-.01.5-.04.7-.11,1.67-.26,9.33-10.67ZM48.77,60.96c.06-.71.11-1.4.15-2.1.03-.48.06-.96.08-1.43.04-.75.07-1.49.09-2.22.01-.35.02-.69.02-1.03.02-1.02.02-1.87.02-2.65v-.25s0-.11,0-.11c-.01-.83-.04-1.68-.08-2.61-.01-.24-.02-.49-.04-.73-.06-1.06-.12-1.92-.19-2.7l-.29-3.15c0-.1-.07-.18-.15-.23-.04-.02-.08-.03-.13-.03-.05,0-.1.01-.15.04l-1.02.62c-.09.06-.15.16-.14.27l.17,1.85c1.47,15.83-2.1,37.18-10.61,63.47-.03.1,0,.22.08.29.05.05.12.08.19.08.04,0,.07,0,.11-.02l1.47-.6c.08-.03.14-.1.17-.19l6.51-23.26c.41-1.8.8-3.61,1.16-5.41l.03-.17.04-.2c.17-.86.33-1.71.49-2.56l.04-.22.03-.18c.26-1.43.51-2.91.74-4.38l.05-.29.09-.61c.1-.69.2-1.38.29-2.06.05-.34.09-.67.13-1.01l.03-.23c.12-.98.24-1.94.34-2.89.06-.53.11-1.07.16-1.59.05-.51.09-1.01.13-1.51ZM9.72,111.2s.02,0,.03,0c.11,0,.22-.07.26-.18l2.46-6.12c.13-.33.27-.67.42-1.03l.09-.22.06-.16.02-.06.27-.66.16-.39.07-.16.07-.16.2-.47.21-.49.07-.17.07-.15.18-.43.28-.65.04-.1.04-.1.2-.45.37-.85.06-.13.16-.37.41-.93.04-.1.17-.38.46-1.02.04-.09.16-.34.5-1.1.18-.39c.18-.39.36-.79.55-1.19l.15-.32c.2-.42.4-.85.6-1.28l.12-.25c.22-.46.43-.92.66-1.38l.03-.06.05-.1c.24-.49.48-.99.72-1.49,0-.02.02-.03.02-.05,4.33-8.91,10.71-20.89,16.55-27.35.04-.04.06-.09.07-.15.12-.79.23-1.52.32-2.18,0-.02.01-.05.01-.08,0-.16-.12-.28-.28-.28h0c-.08,0-.15.03-.2.08-9.66,9.23-22.07,36.87-26.03,46.74l-1.79,4.46c-.02.05-.03.11-.01.16l.48,2.34c.03.12.13.21.25.23ZM31.23,128.48c.23-.59.45-1.18.67-1.78,1.3-3.45,2.52-6.83,3.65-10.06l.24-.09.08-.03c.08-.03.15-.1.17-.19l.34-1.22s.02-.07.02-.11c0-.16-.12-.28-.28-.28h0s-.07,0-.11.02l-1.93.74c-.08.03-.14.09-.17.17-10.54,30.33-23.84,56.53-23.98,56.79l-.21.41-8.44,5.33s-.07.06-.1.1l-1.15,2.13c-.06.11-.04.25.06.34.05.05.12.08.19.08.05,0,.1-.01.15-.04l10.81-6.82s.08-.07.1-.11l.25-.48c.08-.16,1.96-3.85,4.85-10.05.32-.68.65-1.41,1-2.15.44-.95.89-1.93,1.36-2.97.56-1.23,1.14-2.53,1.75-3.88.51-1.15,1.04-2.34,1.57-3.57.89-2.03,1.78-4.11,2.65-6.18.52-1.25,1.05-2.51,1.59-3.81.68-1.65,1.36-3.33,2.05-5.06.94-2.35,1.89-4.79,2.82-7.23ZM23.65,119.5s-.08,0-.11.02l-11.52,4.42c-.07.03-.13.08-.16.15l-.6,1.35c-.05.1-.03.23.05.31.05.06.13.09.21.09.03,0,.07,0,.1-.02l11.75-4.51c.08-.03.15-.1.17-.19l.16-.53c.07-.23.14-.47.21-.7.01-.03.02-.07.02-.11,0-.16-.12-.28-.28-.28h0ZM59.21,75s.03-.07.03-.12c0-.16-.12-.28-.28-.28h0s-.01,0-.02,0h0s-.06.01-.09.02l-1.55.63c-.08.03-.14.1-.16.18l-8.57,27.64c-.03.1,0,.22.08.29.05.05.12.07.19.07.04,0,.07,0,.11-.02l.58-.24c.07-.03.13-.09.16-.17.39-1.09.76-2.07,1.13-2.99.8-2.03,1.65-4.06,2.52-6.03l5.89-18.99ZM131.7,92.71s.02,0,.04,0c.13,0,.25-.1.28-.23.25-1.35.81-3.85,2.05-8.07.11-.37.24-.76.42-1.23l.05-.2c.02-.07.03-.14.05-.21l1.01-4.05s.02-.07.02-.1c0-.16-.12-.28-.28-.28h0s-.09.01-.13.03l-1.49.71c-.08.04-.13.1-.15.19l-.67,2.68c-.83,3.34-1.24,7.53-1.43,10.46,0,.15.1.28.25.3ZM68.17,128.77c.11.09.12.26.04.37-3.69,5.43-4.71,5.58-5.45,5.68-.2.03-.41.04-.64.05h-.07c-.15,0-.29,0-.43-.02-.17-.02-.34-.05-.54-.09,0,0-.05-.01-.05-.01-.17-.04-.35-.1-.52-.16l-.08-.03c-.19-.08-.37-.17-.54-.27,0,0-.05-.03-.05-.03-.21-.13-.39-.26-.56-.4-.11-.09-.13-.24-.06-.36.05-.09.15-.14.24-.14.03,0,.07,0,.1.02.32.12.64.2.97.24.13.01.26.02.4.02.2,0,.4-.01.6-.04.59-.08,1.57-.23,5.33-5.83.05-.08.14-.13.24-.13,0,0,0,0,0,0,.1,0,.18.05.24.13.25.39.53.73.83,1.01ZM69.56,106.09s.02-.07.02-.11c0-.16-.12-.28-.28-.28h0s-.07,0-.1.02l-.07.03c-.09.03-.17.11-.19.2l-.56,2.25c-.04.15.05.3.2.34.02,0,.05,0,.07,0,.12,0,.24-.08.27-.21l.65-2.25ZM111.79,113.82c-.75,2.42-1.56,4.81-2.49,7.29-.78,2.1-1.62,4.17-2.48,6.14-.68,1.55-1.38,3.07-2.08,4.51-.71,1.46-1.37,2.74-2.01,3.92-.58,1.07-1.21,2.18-1.93,3.4-.64,1.08-1.2,2-1.72,2.8-1.65,2.58-3.42,5.05-5.26,7.34-.64.8-1.21,1.49-1.74,2.1-.69.8-1.4,1.59-2.11,2.33-.34.36-.67.7-.99,1.03-.61.61-1.23,1.21-1.84,1.78-.29.27-.57.52-.84.76-.42.37-.8.69-1.17,1-.21.18-.41.34-.61.49-.24.19-.47.37-.68.53-1.08.82-1.73,1.22-1.81,1.27l-3.43,2.09s-.1.04-.15.04-.11-.01-.15-.04c-.09-.06-.14-.16-.13-.27l.16-1.48c0-.09.06-.17.13-.21l2.12-1.29c.76-.46,18.81-11.77,29.51-46.44.02-.05.04-.1.08-.13l2.19-1.91c.05-.05.12-.07.19-.07s.14.03.19.08c.3.28.65.5,1.03.66.02,0,.04.02.06.03.02,0,.04,0,.06.01.26.09.48.15.7.17.1,0,.19.01.29.01.16,0,.33-.01.49-.04.89-.15,1.91-.32,6.8-9.32.05-.09.15-.15.25-.15.02,0,.03,0,.05,0,.12.02.21.11.23.23.12.71.27,1.3.48,1.81.03.08.03.17-.02.24-.27.49-.53.94-.79,1.41-.24.42-.47.82-.71,1.23-.22.37-.42.71-.62,1.03,0,0-.03.05-.03.05-.19.31-.37.61-.55.88,0,0-.03.05-.03.05-.17.27-.33.51-.49.74l-.04.06c-.15.22-.3.43-.43.62,0,0-.03.05-.03.05-.14.19-.26.36-.39.51,0,0-.03.04-.03.04-.12.15-.24.29-.37.45-.11.12-.21.24-.34.36-.1.1-.19.19-.31.29-.09.08-.18.14-.28.22-.08.06-.16.11-.26.16-.08.04-.15.08-.24.11-.07.03-.14.05-.22.07-.14.04-.27.06-.39.08-.16.03-.34.04-.53.05h-.08c-.11,0-.21,0-.32-.01-.21-.02-.41-.06-.62-.12-.1-.03-.19-.07-.28-.1l-.05-.02-.06-.02s-.1-.04-.15-.06c-.15-.07-.29-.15-.43-.25,0,0-.04-.02-.05-.03-.11-.08-.22-.16-.33-.25l-.87.76-1.08.94ZM65.38,105.19c.07-.03.12-.08.15-.14l4.24-9.02s.04-.09.04-.15c0-.16-.12-.28-.28-.28h0s0,0-.01,0h0s0,0,0,0c0,0,0,0,0,0h0s-.07,0-.1.02l-1.81.73c-.07.03-.12.08-.15.14l-3.54,7.52-5.89,2.26c-.08.03-.14.1-.17.18-4.62,14.83-8.61,27.64-5.57,53.26l.66,5.6c0,.06.03.11.07.15l1.23,1.4c.06.06.13.1.21.1.04,0,.08,0,.12-.02.11-.05.18-.17.17-.29l-.75-6.32c-1.74-14.66-1.38-25.87,1.2-37.49.21-.92.43-1.88.67-2.84.33-1.34.7-2.71,1.12-4.2.36-1.27.76-2.65,1.23-4.21.41-1.37.84-2.75,1.28-4.16l5.87-2.25ZM46.86,110.59h0s-.01,0-.02,0c-.03,0-.06,0-.09.02l-.48.18c-.08.03-.14.1-.17.18l-9.57,30.84-7.6,3c-.08.03-.14.1-.17.19l-.36,1.28c-.03.1,0,.21.08.29.05.05.12.07.19.07.04,0,.07,0,.1-.02l9.23-3.65c.08-.03.14-.1.17-.18l6.61-21.31c.59-3.52,1.37-7.04,2.33-10.51.01-.03.02-.07.02-.11,0-.16-.12-.28-.28-.28ZM103.06,103.09c-.03.13.03.26.15.32.04.02.08.03.13.03.08,0,.16-.04.22-.1.4-.49.8-.99,1.18-1.48.02-.03.04-.06.05-.1l2.63-9.43s.01-.07,0-.1l-.19-1.93c0-.08-.05-.16-.12-.21-.05-.03-.1-.05-.16-.05-.03,0-.05,0-.08.01l-1.05.31c-.13.04-.21.16-.2.3l.24,2.42-.1.32c-.99,3.3-1.97,6.83-2.71,9.68ZM114.11,99.68c.05,0,.11-.01.15-.04.6-.38,1.14-.59,1.48-.7.09-.03.16-.1.19-.19l3.79-13.26s.02-.07.02-.11c0-.16-.12-.28-.28-.28h0s-.08,0-.12.02l-1.52.64c-.08.03-.14.1-.16.18l-3.82,13.37c-.03.11,0,.23.1.3.05.04.11.06.17.06ZM126.24,107.33l.2.03c.11.01.23.02.37.02.09,0,.16,0,.23-.01h.07c.08-.02.13-.03.18-.03.05,0,.1-.02.14-.03.04-.01.09-.02.14-.04.06-.02.12-.03.18-.06l.11-.04c.1-.04.17-.06.25-.1l.06-.03c.51-.23,1.04-.56,1.61-.99.17-.13.33-.26.49-.39l.07-.05c.16-.13.33-.28.51-.44l.04-.04c1.05-.94,2.22-2.16,3.5-3.65l.04-.04.04-.05c.1-.11.09-.28-.02-.39-.3-.3-.58-.63-.84-.97-.05-.07-.13-.11-.22-.12,0,0,0,0,0,0-.08,0-.16.04-.22.1-3.43,4.05-5.95,6.1-7.51,6.1-.12,0-.22-.01-.3-.02l-.18-.03c-.08-.01-.18-.03-.3-.06-.02,0-.05,0-.07,0-.1,0-.19.05-.24.14-.06.11-.05.24.04.34.6.65,1.24.77,1.63.84ZM88.19,142.82s.09.04.14.04c.09,0,.18-.04.23-.12,2.57-3.65,5.04-8.04,7.33-13.04.03-.04.04-.09.04-.15,0-.16-.12-.28-.28-.28h0s-.01,0-.02,0c0,0,0,0,0,0h0s-.09.02-.13.04c0,0,0,0,0,0s0,0,0,0c-.02.02-.05.03-.07.06,0,0-.01.02-.02.02-2.85,4.05-5.32,8.45-7.34,13.07-.06.13,0,.29.12.36ZM91.48,99.01c.06.77-.12,1.74-.66,3.45-.04.14.02.28.15.34.04.02.08.03.12.03.1,0,.19-.05.24-.14.64-1.05,1.25-2.03,1.81-2.94.03-.05.05-.12.04-.18-.03-.29-.1-.58-.21-.89l-.02-.05s-.03-.09-.05-.14c-.05-.12-.11-.23-.17-.34-.03-.05-.06-.1-.09-.15-.07-.12-.15-.23-.23-.34l-.04-.05c-.45-.55-1.01-.94-1.65-1.17-.03-.01-.06-.02-.1-.02-.1,0-.19.05-.24.14-.07.12-.05.27.05.36.61.54.97,1.29,1.04,2.1ZM76.44,110.75s.07.02.11.02c.1,0,.2-.05.25-.15l.09-.16.12-.22c.91-1.64,1.73-3.09,2.47-4.39.01-.02.02-.04.03-.06l.04-.15.05-.18.72-2.43.3-1s.02-.07.02-.11c0-.16-.12-.28-.28-.28h0s-.01,0-.02,0c0,0,0,0,0,0,0,0,0,0,0,0-.02,0-.04,0-.06.01l-1.47.42c-.09.03-.17.1-.19.19l-.7,2.36c-.6,2.02-1.15,3.97-1.64,5.8-.04.14.04.28.17.34ZM60.88,98.53s.07,0,.11-.02l1.68-.68c.07-.03.13-.09.16-.16,2.98-7.51,6.77-14.31,9.44-18.68l.08-.13c.28-.46.56-.92.84-1.37.02-.02.03-.05.05-.07,1.13-1.8,2.25-3.5,3.34-5.06.02-.03.03-.05.04-.08.39-1.36.73-2.57,1-3.61.01-.03.02-.07.02-.1,0-.16-.12-.28-.28-.28h0s0,0,0,0c0,0,0,0-.01,0,0,0,0,0,0,0h0c-.05,0-.1.02-.14.05,0,0,0,0,0,0h0s-.04.03-.06.05c0,0,0,0,0,0h0s0,0,0,.01c-3.85,5.02-11.66,16.94-16.5,29.76-.04.11-.01.22.07.3.05.05.13.08.2.08ZM79.71,94.3c.05.07.13.1.22.1.02,0,.04,0,.06,0,.1-.02.19-.1.21-.2l1.01-3.66c.23-.83.45-1.63.66-2.42.21-.79.41-1.56.6-2.31,1.08-4.21,1.96-8.14,2.62-11.67,2.44-13.08,1.24-17.3.97-18.02l-.84-2.26c-.03-.08-.09-.14-.17-.17-.03-.01-.06-.02-.09-.02-.05,0-.1.01-.15.04l-.73.45c-.11.07-.16.21-.12.34l.42,1.13c.27.72,2.4,7.77-4.86,34.07l-.86,3.13c-.02.09,0,.19.06.26l1,1.21ZM87.23,119.86c.77-1.35,2.43-4.09,4.94-8.14,0-.01.02-.03.03-.04.01-.02.03-.03.05-.05.04-.03.09-.05.14-.05,0,0,0,0,0,0,0,0,0,0,0,0,0,0,.02,0,.02,0,0,0,0,0,0,0h0c.16,0,.28.13.28.28,0,.03,0,.06-.01.08-.23,1.39-.34,2.39-.31,2.96,0,.06-.03.15-.06.2l-.07.12-.06.1-.5.82-.15.24-.08.13-.41.67-.03.05-.18.29-.55.91-.05.09-.45.75-.09.15-.05.08-.31.53-.03.06-.09.15c-.13.22-.24.42-.34.6-.08.14-.17.29-.25.44l-.05.09-.04.07-.17.29-.07.12-.06.1-.15.24-.09.14-.07.1-.15.22-.1.15-.06.08c-.06.08-.11.15-.17.23l-.12.16-.04.05c-.06.08-.13.16-.19.24l-.17.2c-.07.08-.13.15-.2.23-.05.06-.11.12-.18.19-.07.07-.14.14-.21.21-.06.06-.13.12-.19.18-.07.07-.15.13-.22.2-.07.06-.13.11-.2.17-.08.06-.15.12-.23.18-.07.05-.14.1-.21.15-.08.05-.16.11-.24.16-.07.04-.15.09-.22.13-.08.05-.17.09-.26.13-.08.04-.15.07-.23.11-.09.04-.18.07-.27.1-.08.03-.16.06-.24.08-.09.03-.19.05-.3.07-.08.02-.15.03-.23.05-.1.02-.2.02-.34.03-.07,0-.14.01-.22.01h-.12c-.13,0-.26,0-.39-.02-.76-.08-1.49-.37-2.14-.86-.06-.04-.11-.09-.17-.13-.11-.09-.14-.24-.07-.36.05-.09.15-.14.24-.14.03,0,.07,0,.1.02.31.12.62.2.94.23.13.01.25.02.37.02,2.61,0,4.53-2.85,5.75-5Z"></path><path class="cls-1" d="M114.92,110.19c.07,0,.15,0,.23-.02,1.26-.21,5.52-8.03,9.01-14.82-.14,2.3-.39,8.9,1.31,9.2.05,0,.09.01.14.01,1.9,0,7.09-6.38,8.06-7.59.38.84,1.82,3.78,3.66,3.89,0,0,.03,0,.04,0,2.11,0,10.47-11.24,11.1-12.09l.1-.04c-.23.78-.81,3.01-.24,4.45.46,1.17,1.48,3.12,3.21,3.12.12,0,.24,0,.37-.03,1.86-.29,9.58-10.04,9.47-20.01.12.02.3.04.53.04.81,0,2.47-.26,4.83-1.92-.67,1.65-2.78,7.14-2.26,9.97.62,3.39,2.2,4.59,3.36,4.59.09,0,.18,0,.26-.02,1.3-.2,11.44-14.34,12.65-16.04l.16-.13-1.78,11.15s0,.08.03.11c.02.03.06.05.1.06l.36.04s.01,0,.02,0c.02,0,.05,0,.07-.02l3.39-1.86s.03-.02.04-.03c.02-.02.47-.56.81-2.04l.09-.38c.42-1.88,1.67-7.55,3.8-9.02.26.3,1.14,1.37,1.59,2.91.53,1.81,2.69,5.28,4.24,5.28,1.6-.05,8.58-11.38,9.86-13.54.08.1.19.37.01,1.05-.29,1.13-.27,3.53.55,4.92.34.58,1.56,2.48,3,2.48.04,0,.07,0,.11,0,1.29-.09,4.74-4.53,8.09-13.78.25.05.84.16,1.62.16s1.57-.12,2.29-.34l.07.27c-.05.61-.7,8.83,3.26,10.51.21.09.44.14.68.14,3.23,0,7.36-8.81,9.57-13.54.54-1.15.97-2.06,1.17-2.38.03-.04.03-.09.01-.13l-.37-.83s-.07-.08-.12-.08c0,0,0,0,0,0-.05,0-.1.03-.12.07-2.81,4.59-7.6,11.88-8.49,11.89h0c-.09,0-.18-.05-.26-.15-.82-1.05-.61-6.23-.13-8.2.49-.34,4.74-3.4,6.8-7.68,2.12-4.39,3.29-9.47,1.59-10.37-.26-.14-.62-.21-1.04-.21-1.95,0-6.33,1.74-8.98,8.32-2.68,6.68-3.22,9.38-3.3,9.85-.12.06-.45.19-1.05.19s-1.32-.13-2.13-.38c.35-1.13,2.6-8.42,1.79-10.07-.56-1.13-1.15-1.7-1.76-1.7-.25,0-.5.1-.72.3l-.12.11c-.65.56-1.99,1.73-3.34,4.97-.35-.25-1.26-.82-2.07-.82-.5,0-.88.21-1.13.62-.31.5-1.08,2.14-2.06,4.22-1.85,3.91-4.38,9.27-6,11.77-2.03,3.13-4.28,6.48-5.35,6.58h0c-.74,0-1.81-3.52-2.27-5.02-.16-.52-.29-.94-.37-1.17-.25-.66-.48-1.28-1.28-1.28-.36,0-.81.12-1.4.39,1.46-1.64,6-6.6,8.96-8.55.21.31.77,1.37.41,3.28-.01.07.03.14.1.16l.47.13s.02,0,.04,0c.03,0,.07-.01.09-.03l3.37-2.87s.04-.05.05-.08c0-.04.78-3.64-1.68-4.66-.18-.08-.38-.11-.6-.11-2.34,0-6.98,4.45-13.81,13.23l2.28-8.42c.01-.05,0-.11-.04-.14-.03-.02-.06-.04-.09-.04-.02,0-.04,0-.05.01l-5.05,2.01s-.07.05-.08.09c-.02.07-1.99,6.84-5.5,12.03-3.12,4.61-7.39,10.93-9.08,10.93-.05,0-.09,0-.14-.02-.09-.02-.15-.09-.2-.19-.7-1.53,2.34-9.45,3.44-11.68,1.18-2.4,1.81-2.92,2.14-2.93.17.08.13,1.17-.06,2.29,0,.04,0,.09.04.12l.43.44s.06.04.1.04c0,0,0,0,.01,0,.04,0,.08-.03.11-.06.04-.06.95-1.48,1.38-3.9.4-2.26.06-3.7-.94-3.95-.1-.03-.27-.06-.51-.06-1.09,0-3.92.62-6.71,6.41-.24.26-3.69,4.01-6.27,4.01-.94,0-1.66-.51-2.14-1.51,1.1-1.49,19.19-26.24,22.17-39.61,0-.05,0-.58-.63-1-.02-.02-.05-.02-.08-.02-.02,0-.04,0-.06.02-.05.03-5.49,2.85-12.22,10.71-6.21,7.24-14.83,20.37-20.68,41.79-.4.54-8.12,10.89-10.95,12.55-.19-.55-.75-2.58.11-4.99.54-.57,7.89-8.39,7.02-12.59-.27-1.32-1.09-2.04-2.3-2.04-2.48,0-6.04,3.04-7.49,7.96-1.91,6.52-2.16,8.78-2.19,9.13-.28.32-2.36,2.67-3.67,3.36.02-1.48.21-9.86,1.68-15.76.01-.05,0-.11-.05-.14-.03-.02-.06-.03-.09-.03-.02,0-.04,0-.06.01l-4.57,2.19s-.07.05-.08.09c-.02.09-2.15,8.71-9.51,20.26-.23-.23-.77-1.03-.46-3.44,0-.05-.01-.09-.05-.12-.03-.02-.06-.04-.09-.04-.01,0-.02,0-.03,0-.03,0-2.6.65-3.51,3.42l-.37,2.18-2.77,2.06,5.67-19.85c.02-.05,0-.11-.04-.15-.03-.02-.06-.04-.09-.04-.02,0-.04,0-.06.01l-5.57,2.36s-.07.05-.08.09l-3.37,12.08c-1.9,2.45-5.14,6.31-5.83,6.31-.41-.59,2.19-10.05,3.92-15.88,0-.02,0-.04,0-.05l-.07-.7s-.03-.08-.06-.1c-.02-.02-.05-.02-.08-.02-.01,0-.03,0-.04,0-.2.06-5.03,1.51-6.24,3.18-.78,1.08-4.85,7.73-7.82,12.6-1.62,2.64-2.89,4.73-3.18,5.17-.64.98-.97,1.44-1.26,1.66.14-.83.63-3.42,1.77-6.78.32-.93.63-1.83.92-2.66,1.04-2.97,1.79-5.12,1.7-6.13-.07-.91-.77-1.51-1.72-1.51-.66,0-1.42.29-2.18.85-1.14.83-4.46,6.78-7.67,12.53-2.44,4.36-4.75,8.5-5.71,9.69.06-1.21.53-5.67,3.77-16.52.01-.05,0-.1-.04-.14-.03-.03-.06-.04-.1-.04-.01,0-.03,0-.04,0-.03,0-3.13.91-5.09,2.26-.03.02-.05.05-.06.08-.03.11-3.04,10.56-3.52,12.59-.49,2.05-1.2,3.03-2.37,4.65-.66.91-2.2,3.04-2.63,3.04,0,0-.05-.04-.05-.27.05-1.36,4.24-18.18,4.28-18.35.01-.05,0-.1-.04-.14-.03-.02-.06-.04-.09-.04-.02,0-.03,0-.05,0l-5.24,1.94s-.07.05-.09.09c-.17.58-4.25,14.33-3.51,18.04.55,2.78,1.61,4.19,3.14,4.19.12,0,.25,0,.38-.03,1.08-.16,5.21-6.58,6.27-8.25.2,1.1.92,4.21,2.58,4.21.13,0,.27-.02.4-.06,2.2-.63,12.1-20.73,12.52-21.59l.09-.1c-.94,3.28-4.34,15.55-2.97,16.58.4.3.83.46,1.28.46,1.34,0,2.83-1.42,4.42-4.21,1.9-3.34,8.75-14.26,10.6-17.21-.7,2.87-2.85,11.93-2.54,13.06.33,1.2,1.24,2.11,2.1,2.11.17,0,.33-.03.48-.1.85-.35,6.47-6.93,8.25-9.03l-2.61,8.01c-.88.78-19.96,17.86-22.58,41.93,0,.05.02.11.06.13.02.01.05.02.08.02s.05,0,.07-.02c.18-.11,18.47-11.56,28.99-46.07l4.13-3.6c.22.51.9,1.86,2,1.86ZM175.98,41.23c-.35,1.2-2.06,6.23-8.32,16.45-6.59,10.77-9.9,14.99-10.47,15.69.22-.99,1.82-7.52,7.48-16.8,5.96-9.76,9.28-14.28,11.3-15.34ZM154.51,89.4c-.67.96-1.04,1.21-1.15,1.21,0,0,0,0,0,0-.77-.52.32-5.01,1.2-8.62.88-3.63,3.17-5.94,3.79-6.51,1.38,4.35-2.04,11.35-3.84,13.92ZM211.5,55.18c.03,2.4,1.52,3.55,1.94,3.82-2.41,5.71-4.39,8.89-4.89,9.66-1.63-3.13,2.51-12.7,2.83-13.42l.12-.07ZM216.19,48.84c-.16,3.88-1.26,6.62-1.61,7.42-2-3.48.75-6.57,1.61-7.42ZM231.33,42.39c.06.53.09,2.35-1.61,5.68-1.81,3.56-3.77,5.24-4.23,5.61-.04-.16-.06-.73.72-2.51.12-.28.26-.59.4-.92,1.13-2.64,3-6.99,4.72-7.85ZM175.33,70.33h0s0,0,0,0ZM139.35,87.38c.08-.83.43-3.27,1.73-5.35.42-.68,1.72-2.77,2.08-2.77.17.09.51,1.15-.51,3.04-.81,1.51-2.27,4.23-3.31,5.08ZM83.37,151.05c.7-2.73,5.01-17.8,17.58-30.83l.13.65c-.32.96-6.89,20.54-17.72,30.18ZM62.73,102.81s.06-.04.08-.07l1.76-3.74c.02-.05.01-.12-.03-.16-.03-.03-.06-.04-.1-.04-.02,0-.04,0-.05.01l-6.59,2.68c5.75-17.82,20.03-38.06,22.01-38.06.04,0,.07.01.1.07.91,1.43-3.81,15.96-5.71,21.43-.02.05,0,.1.02.14l3.55,4.28s.07.05.11.05c0,0,.02,0,.03,0,.05-.01.09-.05.11-.1,7.25-26.28,5-32.85,4.9-33.12-.01-.04-.05-.07-.09-.08-.01,0-.03,0-.05,0-.03,0-.05,0-.07.02-.17.11-17.22,10.94-30.47,44.49-.45,1.13-.89,2.32-1.39,3.72l-4.94,2.01,8.89-28.65s.01-.04.01-.06c0-.08-.06-.14-.14-.14h0s-.04,0-.06.01l-6.81,2.76s-.07.05-.08.09l-7.97,28.5-5.99,2.44c9.34-27.83,13.3-50.24,11.79-66.61,0-.05-.03-.09-.08-.11-.02-.01-.04-.02-.06-.02-.03,0-.05,0-.07.02-.21.13-21.43,13.32-37.84,50.97-.01.03-.01.06,0,.08l1.59,7.81c.01.06.06.11.13.11,0,0,0,0,.01,0,.06,0,.11-.03.13-.09.18-.44,17.67-43.7,30.08-50.02-.37,2.91-3.88,29.7-12.24,60.53l-12.08,4.92s-.06.04-.08.07l-1.04,2.33c-.02.05-.01.11.03.16.03.03.06.04.1.04.02,0,.03,0,.05,0l12.24-4.7c-6.31,22.63-13.73,41.92-22.07,57.34-.03.06-.02.13.03.17.03.03.06.04.1.04.03,0,.05,0,.08-.02l3.96-2.5s.04-.03.05-.06c.13-.26,13.55-26.61,24.17-57.4l6.15-2.36-8.5,30.36c-.01.05,0,.11.04.14.03.02.06.04.09.04.02,0,.04,0,.05,0l4.63-1.83s.07-.05.08-.09l9.59-30.92,4.8-1.84c-9.37,29.62-1.24,49.73-1.16,49.93,0,.01.01.03.02.04l1.96,2.23s.07.05.11.05c.02,0,.04,0,.06-.01.06-.03.09-.08.08-.15-3.07-25.94.88-38.67,5.9-54.76l6.09-2.34Z"></path></g></svg> 